<svg id="Layer_1" data-name="Layer 1" xmlns="http://www.w3.org/2000/svg" viewBox="0 0 84.45 95.25"><defs><style>.cls-1,.cls-2{fill:#fff;}.cls-1{stroke:#fff;stroke-miterlimit:10;}</style></defs><title>arculattervezes</title><rect class="cls-1" x="43.93" y="27.35" width="16.34" height="1.48"/><rect class="cls-1" x="19.09" y="27.35" width="16.26" height="1.48"/><path class="cls-1" d="M30.16,49.47l-1.46-.24c.86-5.22,3.19-9.17,6.93-11.74a18.19,18.19,0,0,1,10.14-3h.06V36h-.06a16.65,16.65,0,0,0-9.29,2.75C33.07,41,31,44.66,30.16,49.47Z" transform="translate(-9.97 -7.13)"/><path class="cls-1" d="M25.85,39.65a4.49,4.49,0,1,1,4.5-4.49A4.49,4.49,0,0,1,25.85,39.65Zm0-7.51a3,3,0,1,0,3,3A3,3,0,0,0,25.85,32.14Z" transform="translate(-9.97 -7.13)"/><path class="cls-1" d="M74,39.65a4.49,4.49,0,1,1,4.49-4.49A4.49,4.49,0,0,1,74,39.65Zm0-7.51a3,3,0,1,0,3,3A3,3,0,0,0,74,32.14Z" transform="translate(-9.97 -7.13)"/><path class="cls-1" d="M31.36,57.34H26.87a2.11,2.11,0,0,1-2.12-2.11v-4.5a2.13,2.13,0,0,1,2.12-2.11h4.49a2.12,2.12,0,0,1,2.12,2.11v4.5A2.11,2.11,0,0,1,31.36,57.34Zm-4.49-7.25a.64.64,0,0,0-.64.64v4.5a.64.64,0,0,0,.64.64h4.49a.65.65,0,0,0,.65-.64v-4.5a.65.65,0,0,0-.65-.64Z" transform="translate(-9.97 -7.13)"/><path class="cls-1" d="M51.83,39.85h-4.5a2.12,2.12,0,0,1-2.11-2.12V33.24a2.12,2.12,0,0,1,2.11-2.12h4.5A2.12,2.12,0,0,1,54,33.24v4.49A2.12,2.12,0,0,1,51.83,39.85Zm-4.5-7.25a.64.64,0,0,0-.64.64v4.49a.64.64,0,0,0,.64.64h4.5a.64.64,0,0,0,.64-.64V33.24a.64.64,0,0,0-.64-.64h-4.5Z" transform="translate(-9.97 -7.13)"/><path class="cls-1" d="M72.13,58h-4.5a2.11,2.11,0,0,1-2.11-2.11v-4.5a2.11,2.11,0,0,1,2.11-2.11h4.5a2.12,2.12,0,0,1,2.12,2.11v4.5A2.12,2.12,0,0,1,72.13,58Zm-4.5-7.25a.64.64,0,0,0-.64.64v4.5a.64.64,0,0,0,.64.64h4.5a.64.64,0,0,0,.64-.64h0v-4.5a.64.64,0,0,0-.64-.64Z" transform="translate(-9.97 -7.13)"/><path class="cls-1" d="M91.37,75.79H86.88a2.12,2.12,0,0,1-2.12-2.11v-4.5a2.12,2.12,0,0,1,2.12-2.12h4.49a2.12,2.12,0,0,1,2.12,2.12v4.5A2.12,2.12,0,0,1,91.37,75.79Zm-4.49-7.25a.64.64,0,0,0-.64.64h0v4.5a.64.64,0,0,0,.64.64h4.49a.65.65,0,0,0,.65-.64v-4.5a.65.65,0,0,0-.65-.64H86.88Z" transform="translate(-9.97 -7.13)"/><path class="cls-1" d="M69,49.43c-.81-4.8-2.91-8.38-6.25-10.66A17.78,17.78,0,0,0,53.86,36L54,34.49c5.29.31,14.47,2.63,16.48,14.69Z" transform="translate(-9.97 -7.13)"/><path class="cls-1" d="M86,72.2a19.34,19.34,0,0,1-10.46-2.94c-3.6-2.47-5.63-6.44-6.06-11.82L71,57.32c.67,8.61,5.75,13.12,15.09,13.4Z" transform="translate(-9.97 -7.13)"/><path class="cls-1" d="M59.39,88H39.91a.73.73,0,0,1-.71-.57L34.13,66.06a.71.71,0,0,1,.24-.73A37.3,37.3,0,0,0,46.71,45.48a2.69,2.69,0,1,1,5.38,0A37.74,37.74,0,0,0,64.43,65.33a.74.74,0,0,1,.24.71L60.11,87.46A.73.73,0,0,1,59.39,88ZM40.5,86.56H58.79l4.34-20.39A40.86,40.86,0,0,1,53,52.64a30.78,30.78,0,0,1-2.37-6.94v0c0-.15-.2-1.42-1.23-1.42s-1.22,1.37-1.22,1.43v0a30.83,30.83,0,0,1-2.35,6.93A40.38,40.38,0,0,1,35.68,66.17Z" transform="translate(-9.97 -7.13)"/><path class="cls-1" d="M49.4,72.9a3.54,3.54,0,1,1,3.54-3.54A3.55,3.55,0,0,1,49.4,72.9Zm0-5.61a2.07,2.07,0,1,0,2.06,2.07,2.07,2.07,0,0,0-2.06-2.07Z" transform="translate(-9.97 -7.13)"/><rect class="cls-1" x="38.67" y="36.4" width="1.48" height="23.27"/><path class="cls-1" d="M57.3,101.89H42a2.83,2.83,0,0,1-2.83-2.83V87.3a.74.74,0,0,1,1.47,0V99.06A1.35,1.35,0,0,0,42,100.41H57.3a1.36,1.36,0,0,0,1.36-1.35V87.3a.74.74,0,0,1,1.47,0V99.06A2.83,2.83,0,0,1,57.3,101.89Z" transform="translate(-9.97 -7.13)"/><path class="cls-1" d="M59.39,92.59H39.91a.74.74,0,0,1,0-1.47H59.39a.74.74,0,1,1,0,1.47Z" transform="translate(-9.97 -7.13)"/><path class="cls-1" d="M59.39,97.17H39.91a.74.74,0,0,1,0-1.48H59.39a.74.74,0,0,1,0,1.48Z" transform="translate(-9.97 -7.13)"/><circle class="cls-2" cx="4.89" cy="13.33" r="4.89"/><circle class="cls-2" cx="28.92" cy="7.69" r="2.81"/><circle class="cls-2" cx="57.78" cy="6.67" r="6.67"/><circle class="cls-2" cx="81.93" cy="13.02" r="2.52"/></svg>