<svg id="Layer_1" data-name="Layer 1" xmlns="http://www.w3.org/2000/svg" viewBox="0 0 839.5 763.91"><defs><style>.cls-1{fill:#e7f3ff;}.cls-2{fill:#2b444e;}.cls-3{fill:#e1e1e1;}.cls-4{fill:#9fc9ff;}.cls-5{fill:#16282d;}.cls-6{fill:#dcdcdc;}.cls-7{fill:#8ab887;}.cls-8{fill:#c0e5c0;}.cls-9{fill:#cce3ff;}.cls-10,.cls-23,.cls-24,.cls-39{fill:none;}.cls-10,.cls-24,.cls-25,.cls-39{stroke:#fff;}.cls-10,.cls-23,.cls-24,.cls-25,.cls-39{stroke-miterlimit:10;}.cls-11{fill:#fff;}.cls-12{fill:#1a2e36;}.cls-13{fill:#f96755;}.cls-14{fill:#f4f8fc;}.cls-15{fill:#c26358;}.cls-16{fill:#1a2e35;}.cls-17{fill:#ffbf9d;}.cls-18{fill:#ffaba1;}.cls-19{fill:#0b0950;}.cls-20{fill:#6f7be4;}.cls-21{fill:#203391;}.cls-22{fill:#fa7166;}.cls-23{stroke:#1a2e36;}.cls-24{stroke-width:0.75px;}.cls-25{fill:#223c44;}.cls-26{fill:#385b64;}.cls-27{fill:#333;}.cls-28{fill:#d1945d;}.cls-29{fill:#c18859;}.cls-30{fill:#2b454e;}.cls-31{fill:#1d343a;}.cls-32{fill:#dd9373;}.cls-33{fill:#89705d;}.cls-34{fill:#c17e67;}.cls-35{fill:#385962;}.cls-36,.cls-37{fill:#152428;}.cls-37{opacity:0.74;}.cls-38{fill:#91b3fa;}.cls-39{stroke-width:3px;}.cls-40{fill:#a8a8a8;}.cls-41{fill:#375a64;}.cls-42{fill:#3d6a75;}</style></defs><title>illusztraciologouj</title><path class="cls-1" d="M792,696.11c16.5-10.88,46.5-31.23,50.61-62.16,4-30.5-21.23-40-23.93-74.07-3.62-45.94,40-57.24,51.53-110.69,11.61-54-20.15-102-30.36-117.5-32-48.44-64.12-47.6-131.57-98.76C621.4,167,699.73,122.25,635.65,84.29S410,41.74,339.39,80.52c-43.51,23.89-25.45,44.29-104,135.38C178.33,282.13,152,290.81,137.9,337.65c-3.64,12.1-21.64,71.83,11,117.5,28.77,40.21,69.9,31.89,84.64,67.26C249,559.33,210.66,584,217.94,626.29c8.08,47,65.33,74.93,104.89,93.66C506.13,806.72,711.45,749.23,792,696.11Z" transform="translate(-129.68 -53.55)"/><rect class="cls-2" x="354.14" y="590.96" width="86" height="6.33"/><rect class="cls-3" x="436.64" y="117.91" width="47" height="180" rx="11.49"/><path class="cls-4" d="M949.81,142.45h-301a20.47,20.47,0,0,0-20.47,20.47V451.75a24.7,24.7,0,0,0,24.7,24.7h290.6a24.7,24.7,0,0,0,24.7-24.7V161A18.51,18.51,0,0,0,949.81,142.45Z" transform="translate(-129.68 -53.55)"/><path class="cls-5" d="M306.06,443.89s2.51,10.23,4.63,20.94,11.37,32.73,12.25,32.92-3.89-23.7-7.23-33.93-7.39-20.37-7.39-20.37Z" transform="translate(-129.68 -53.55)"/><polygon class="cls-6" points="176.21 390.14 177.61 397.27 181.38 396.14 178.79 389.47 176.21 390.14"/><path class="cls-5" d="M305.89,443.69c-2.71-4.83-1.53-11-1.53-11s5.07,4.43,4.11,10.33Z" transform="translate(-129.68 -53.55)"/><path class="cls-7" d="M147.15,577.11a9.84,9.84,0,0,0,1.48,1.28l4.43,3.43c1.95,1.47,4.31,3.27,7,5.46s5.81,4.57,9.1,7.42c6.69,5.54,14.41,12.44,22.71,20.38s17,17.1,25.75,27.08,16.47,20,23.26,29.25,12.48,17.93,17,25.33c2.37,3.65,4.31,7.07,6.09,10s3.26,5.54,4.44,7.67l2.79,4.86a9.79,9.79,0,0,0,1.06,1.65,10.92,10.92,0,0,0-.81-1.79c-.65-1.27-1.49-2.93-2.55-5s-2.5-4.81-4.23-7.8-3.6-6.47-5.92-10.17c-4.46-7.48-10.16-16.17-16.83-25.56s-14.54-19.36-23.25-29.43-17.6-19.1-25.92-27.09-16.19-14.75-23-20.21c-3.33-2.8-6.5-5.15-9.24-7.27s-5.14-3.87-7.14-5.27l-4.6-3.22A10.87,10.87,0,0,0,147.15,577.11Z" transform="translate(-129.68 -53.55)"/><path class="cls-8" d="M193.55,618.22a32.54,32.54,0,0,0-21.07-6.16c-2.55.16-5.41.85-6.64,3.08-1.64,3,.64,6.63,3.28,8.77a23.92,23.92,0,0,0,15.91,5.3c5.7-.23,10.18-1.6,14.31-5.54" transform="translate(-129.68 -53.55)"/><path class="cls-8" d="M222.85,648.88c-6.79-5.67-19.39-11.65-28.24-11.88a10.67,10.67,0,0,0-4.13.53,4.3,4.3,0,0,0-2.72,3c-.38,2,1.09,3.79,2.57,5.14a34.49,34.49,0,0,0,35.75,6.22" transform="translate(-129.68 -53.55)"/><path class="cls-8" d="M246.32,679.71a50,50,0,0,0-25.19-7.31c-2.07,0-4.37.15-5.82,1.63-2.2,2.25-1.16,6.15.88,8.55,4.19,4.94,11.2,6.31,17.67,6.64,7,.36,16.81-2.4,16.81-2.4" transform="translate(-129.68 -53.55)"/><path class="cls-8" d="M260.81,701.58c-6.45-2.9-13.4-5-20.47-4.87a10,10,0,0,0-4.48.89,4.25,4.25,0,0,0-2.44,3.63c.05,2.47,2.73,4,5.09,4.71,8.15,2.58,16.43,3,24.57.4" transform="translate(-129.68 -53.55)"/><path class="cls-8" d="M254.87,688.51a155.07,155.07,0,0,1,4.5-28c.37-1.43,1-3.07,2.37-3.51a3,3,0,0,1,3,1.13,7.6,7.6,0,0,1,1.3,3.14c2.52,11.07-1.07,23.68-8.43,32.33" transform="translate(-129.68 -53.55)"/><path class="cls-8" d="M234.62,661q.85-12.25,1.73-24.53a18.7,18.7,0,0,1,1.35-6.85c1-2.11,3.05-3.9,5.39-3.91s4.38,1.77,5.37,3.89a16.57,16.57,0,0,1,1.13,6.86c0,5.56-.38,11.21-2.3,16.42s-4.12,9.3-9.08,11.82" transform="translate(-129.68 -53.55)"/><path class="cls-8" d="M210.63,630.93a54.39,54.39,0,0,1-.82-28.31,9.06,9.06,0,0,1,2-4.31c2.2-2.3,6.17-1.92,8.74,0a12.87,12.87,0,0,1,4.81,9.25,27.26,27.26,0,0,1-1.5,10.57,62.81,62.81,0,0,1-8.74,17.67" transform="translate(-129.68 -53.55)"/><path class="cls-8" d="M185.82,607.57c-5.14-9.87-5.77-20.67-5.5-31.8.06-2.34.5-5.1,2.6-6.15a4.47,4.47,0,0,1,4.27.39,10.61,10.61,0,0,1,3.05,3.24,34.06,34.06,0,0,1-.44,37.6" transform="translate(-129.68 -53.55)"/><path class="cls-8" d="M172.22,596.81c-2.83-4.94-5.68-9.91-9.39-14.23s-8.35-8-13.79-9.69a13.15,13.15,0,0,0-7.24-.41,7.17,7.17,0,0,0-5.13,4.77,7.57,7.57,0,0,0,1.59,6.37,19,19,0,0,0,5.21,4.31c9.17,5.76,21.23,10.78,28.75,8.88" transform="translate(-129.68 -53.55)"/><path class="cls-7" d="M288.59,533.63a9.38,9.38,0,0,0,.07,2c.12,1.42.28,3.27.48,5.58s.51,5.39.71,8.84.58,7.36.72,11.71c.46,8.68.62,19,.41,30.52s-1,24.1-2.45,37.28-3.53,25.66-5.74,36.93-4.72,21.33-7.06,29.7c-1.08,4.21-2.28,8-3.25,11.27s-1.87,6.16-2.63,8.47-1.26,4-1.68,5.34a10,10,0,0,0-.5,1.9,10.32,10.32,0,0,0,.77-1.8q.74-2,1.94-5.26c.85-2.29,1.84-5.1,2.87-8.41s2.31-7,3.46-11.23c2.47-8.36,5-18.43,7.38-29.71s4.37-23.81,5.87-37,2.12-25.89,2.35-37.42-.13-21.9-.73-30.6c-.2-4.35-.62-8.27-.92-11.72s-.64-6.41-1-8.83-.56-4.14-.75-5.56A9.7,9.7,0,0,0,288.59,533.63Z" transform="translate(-129.68 -53.55)"/><path class="cls-8" d="M289.82,595.61A32.5,32.5,0,0,0,280.07,576c-1.84-1.77-4.29-3.41-6.77-2.8-3.3.81-4.44,5-4.23,8.36A24,24,0,0,0,276,596.8c4,4,8.08,6.4,13.78,6.76" transform="translate(-129.68 -53.55)"/><path class="cls-8" d="M287.15,637.94c-.43-8.84-4.58-22.16-10.41-28.81a10.42,10.42,0,0,0-3.2-2.68,4.24,4.24,0,0,0-4,0c-1.7,1.06-2,3.37-2,5.37a34.48,34.48,0,0,0,19.66,30.5" transform="translate(-129.68 -53.55)"/><path class="cls-8" d="M280.39,676.09a50,50,0,0,0-11.7-23.47c-1.38-1.55-3.07-3.11-5.15-3.17-3.14-.1-5.3,3.31-5.69,6.43-.79,6.43,3,12.52,7.1,17.5,4.47,5.36,13.16,10.73,13.16,10.73" transform="translate(-129.68 -53.55)"/><path class="cls-8" d="M274.13,701.57c-2.23-6.71-5.4-13.24-10.29-18.35a10.13,10.13,0,0,0-3.69-2.69,4.23,4.23,0,0,0-4.32.67c-1.79,1.71-1.07,4.69,0,6.93,3.63,7.74,8.92,14.14,16.36,18.33" transform="translate(-129.68 -53.55)"/><path class="cls-8" d="M279.72,688.34a153.88,153.88,0,0,1,23.63-15.66c1.3-.7,2.9-1.38,4.18-.64a3,3,0,0,1,1.23,3,7.69,7.69,0,0,1-1.43,3.08c-6.43,9.36-18.14,15.27-29.48,15.73" transform="translate(-129.68 -53.55)"/><path class="cls-8" d="M286.19,654.82l19.22-15.36a18.82,18.82,0,0,1,5.95-3.65c2.23-.69,4.93-.41,6.52,1.31s1.67,4.43.79,6.59a16.58,16.58,0,0,1-4.28,5.48c-4.05,3.8-8.5,7.31-13.63,9.44s-9.63,3.27-14.84,1.34" transform="translate(-129.68 -53.55)"/><path class="cls-8" d="M292.06,616.78A54.32,54.32,0,0,1,312.31,597a9.15,9.15,0,0,1,4.5-1.48c3.19.06,5.59,3.24,6,6.4a12.9,12.9,0,0,1-3.54,9.8,27.11,27.11,0,0,1-8.79,6.06,62.56,62.56,0,0,1-18.92,5.56" transform="translate(-129.68 -53.55)"/><path class="cls-8" d="M292.41,582.71c3.77-10.47,11.29-18.25,19.65-25.6,1.76-1.55,4.09-3.09,6.28-2.27a4.52,4.52,0,0,1,2.61,3.42,10.46,10.46,0,0,1-.31,4.44,34.06,34.06,0,0,1-27.95,25.16" transform="translate(-129.68 -53.55)"/><path class="cls-8" d="M291.1,565.42c1.72-5.43,3.44-10.9,4.1-16.55s.23-11.57-2.23-16.71a13.15,13.15,0,0,0-4.6-5.6,7.2,7.2,0,0,0-7-.54,7.54,7.54,0,0,0-3.6,5.49,19.26,19.26,0,0,0,.36,6.76c2,10.64,6.47,22.91,13,27.15" transform="translate(-129.68 -53.55)"/><path class="cls-8" d="M857.42,593.57c8.78-.2,17.27,3.35,24.43,8.43,3.85,2.73,7.6,6.11,8.92,10.63s-.84,10.33-5.43,11.44c-2.73.66-5.56-.42-8.07-1.68-6.06-3-12.3-7.41-19-6.11-3.8.74-7.34,3.32-11.16,2.73s-6.48-4.28-6.77-8.06,1.43-7.47,3.84-10.38A16.82,16.82,0,0,1,857.42,593.57Z" transform="translate(-129.68 -53.55)"/><path class="cls-8" d="M856.46,554.72c1.31,8.21,10.63,10.25,16.32,8.39s10-6.48,14-10.93c9.15-10.15,18.61-20.87,21.94-34.12,1-4,1.4-8.21.17-12.11s-4.34-7.37-8.35-8.16c-4.74-.94-9.36,1.9-13.16,4.9a96,96,0,0,0-26.57,32.9c-2.93,6-5.28,12.56-4.31,19.13" transform="translate(-129.68 -53.55)"/><path class="cls-8" d="M840.4,557.77c7.35-3.26,12.16-10.89,13.46-18.82s-.51-16.11-3.57-23.54A72.91,72.91,0,0,0,834.79,492c-2.61-2.64-5.5-5.13-9-6.43s-7.64-1.23-10.63,1c-4.41,3.26-4.8,9.62-4.53,15.1a185.13,185.13,0,0,0,3.69,28.72c1.6,7.61,3.85,15.44,9.16,21.12s12.24,8.68,17.9,5.84" transform="translate(-129.68 -53.55)"/><path class="cls-7" d="M811.16,647a14.48,14.48,0,0,0,1.75-2.59l4.44-7.24a123.69,123.69,0,0,1,7.13-10.31,95.73,95.73,0,0,1,10.46-11.18A53.61,53.61,0,0,1,847.45,607a27.73,27.73,0,0,1,11.93-2.92,26.54,26.54,0,0,1,8.23,1.25,15.14,15.14,0,0,0,3,1,14.25,14.25,0,0,0-2.8-1.42,24.17,24.17,0,0,0-8.4-1.69A27.94,27.94,0,0,0,847,606a52.89,52.89,0,0,0-12.87,8.75,89.35,89.35,0,0,0-10.53,11.41,103.31,103.31,0,0,0-7,10.56c-1.81,3.11-3.17,5.68-4.1,7.46A15.16,15.16,0,0,0,811.16,647Z" transform="translate(-129.68 -53.55)"/><path class="cls-7" d="M814.53,641.4a6.13,6.13,0,0,0,.71-1.25l1.79-3.7c1.55-3.21,3.81-7.85,6.77-13.5,5.86-11.31,12.86-23.16,23.23-39.62,9.76-15.47,21.45-33.31,30-44.43,1.92-2.55,3.7-4.81,5.3-6.78s2.93-3.69,4.1-5l2.61-3.17a5.72,5.72,0,0,0,.84-1.16,5.83,5.83,0,0,0-1,1l-2.8,3c-1.22,1.3-2.64,3-4.27,4.91s-3.5,4.15-5.46,6.67a464.19,464.19,0,0,0-28.71,40.82c-10.39,16.49-19,31.93-24.64,43.38-2.87,5.71-5,10.42-6.43,13.7L815,640A6,6,0,0,0,814.53,641.4Z" transform="translate(-129.68 -53.55)"/><path class="cls-7" d="M829.51,610.85a28.27,28.27,0,0,0,1.85-3.88,116.55,116.55,0,0,0,3.91-11,154.79,154.79,0,0,0,4-16.89,140,140,0,0,0,2.41-21.13c.82-15.1-1.37-28.84-4.52-38.23a54,54,0,0,0-2.41-6.23c-.4-.9-.72-1.76-1.11-2.51l-1.13-2a25.6,25.6,0,0,0-2.24-3.66c-.3.16,3.11,5.31,6,14.68s4.91,22.93,4.1,37.91a158.45,158.45,0,0,1-2.29,21c-1.06,6.41-2.46,12.1-3.73,16.85s-2.58,8.5-3.5,11.09A27.75,27.75,0,0,0,829.51,610.85Z" transform="translate(-129.68 -53.55)"/><rect class="cls-9" x="491.64" y="83.91" width="340" height="334" rx="24.7"/><line class="cls-10" x1="499.41" y1="282.8" x2="581.02" y2="402.08"/><rect class="cls-11" x="627.45" y="334.51" width="4.5" height="4.68" transform="translate(422.47 -426.61) rotate(55.62)"/><rect class="cls-11" x="709.39" y="454.45" width="4.5" height="4.68" transform="translate(557.15 -442.02) rotate(55.62)"/><rect class="cls-11" x="668.3" y="393.29" width="9.28" height="9.65" transform="translate(491.87 -435.62) rotate(55.62)"/><path class="cls-12" d="M512.11,83.91h301a18.51,18.51,0,0,1,18.51,18.51v11.49a0,0,0,0,1,0,0h-340a0,0,0,0,1,0,0v-9.53A20.47,20.47,0,0,1,512.11,83.91Z"/><circle class="cls-13" cx="520.14" cy="98.41" r="8.5"/><circle class="cls-3" cx="546.33" cy="98.73" r="6.18"/><circle class="cls-14" cx="591.66" cy="99.06" r="6.18"/><circle class="cls-13" cx="569.66" cy="99.06" r="6.18"/><path class="cls-15" d="M605.24,394.18s17-3.59,17.94-3.47.78,1.39.72,2.39a8.83,8.83,0,0,1-.66,1.7c-1.15,2.62-3.09,7.3.43,8.15,4.63,1.11,9-9.39,9.43-11.14a5.54,5.54,0,0,0-.27-2.37c-.77-2.77-2.93-6.75-6.3-7.63-4.62-1.21-9.77-.3-14.3.18Z" transform="translate(-129.68 -53.55)"/><path class="cls-16" d="M605.24,394.18s17-3.59,17.94-3.47.78,1.39.72,2.39a8.83,8.83,0,0,1-.66,1.7c3.42-1.89,7.19-4,9.59-5.36-.77-2.77-2.93-6.75-6.3-7.63-4.62-1.21-9.77-.3-14.3.18Z" transform="translate(-129.68 -53.55)"/><path class="cls-17" d="M602.24,418.05c.87-.53,9-3.85,15.14-6.35,1.42-4.92,5.39-14.38,6.43-16.89.68-3,3.84-9,4.12-8.88.52.22,2.36,1,4.66,1.75,3,1,6.9,2,9.61,1.66a3.46,3.46,0,0,0,3.07-1.87c.87-2.05-3.54-4.13-8.54-7.06-6.81-4-15.4-8.53-19.4-7.11-5.92,2.09-11.46,9.77-13.37,11.86s-11.34,9.2-11.34,9.2C590.67,409.54,601.07,418.75,602.24,418.05Z" transform="translate(-129.68 -53.55)"/><path class="cls-18" d="M523.4,417.42c8.17,7.06,40.56,27.9,50.23,24.4,15.18-5.48,29.45-17.49,37.44-23.84,2.54-2-17.74-26.05-22.17-21.61-5.72,5.73-18.18,15.14-22.08,16.85-2.66,1.16-23.8-4.47-38.52-8.28C516,401.76,513,408.48,523.4,417.42Z" transform="translate(-129.68 -53.55)"/><path class="cls-16" d="M562.93,411.09s3.7,4.33,12.07-3.17l14.73-12.55,22.7,21.2-36.77,9.92Z" transform="translate(-129.68 -53.55)"/><path class="cls-16" d="M546.4,435.63s24.06,24.7,66.22-19.46l-8.08-7Z" transform="translate(-129.68 -53.55)"/><polygon class="cls-19" points="540.8 346.33 526.52 351.17 521.49 346.08 523.42 337.96 530.21 335.67 540.8 346.33"/><rect class="cls-20" x="646.86" y="394.16" width="8.34" height="2.28" transform="translate(1056.5 -200.2) rotate(103.37)"/><rect class="cls-20" x="657.28" y="395.92" width="2.28" height="2.28" transform="translate(1067.3 -205.22) rotate(103.37)"/><path class="cls-19" d="M651,391l-44.09-8.35s-4.26,1.12-1.08,3.83,43.26,12.76,43.26,12.76" transform="translate(-129.68 -53.55)"/><path class="cls-17" d="M617.38,411.7c2.1-.85,4-1.58,5.26-2.05a16.12,16.12,0,0,0,9.21-7.61c1.89-3.13,12.22-6.93,6.94-9.83s-14,5.37-15,4.08a2.11,2.11,0,0,1,0-1.48C622.77,397.32,618.8,406.78,617.38,411.7Z" transform="translate(-129.68 -53.55)"/><path class="cls-17" d="M624.39,392.94c.07-.12.14-.07.1.09-.15.48-.78,2.64-.31,2.84.83.36,5.5-2.49,7.67-3.35.12,0,.19.11.08.15a35.37,35.37,0,0,0-3.16,1.72c-1,.56-3.87,2.48-4.91,2C623.17,396.12,624.13,393.43,624.39,392.94Z" transform="translate(-129.68 -53.55)"/><line class="cls-10" x1="529.86" y1="343.72" x2="541.37" y2="346.46"/><ellipse class="cls-9" cx="413.14" cy="714.91" rx="309.5" ry="49"/><path class="cls-21" d="M745.61,561.75" transform="translate(-129.68 -53.55)"/><polygon class="cls-22" points="485.64 638.91 485.64 641.84 485.63 638.91 485.64 638.91"/><rect class="cls-12" x="432.64" y="114.91" width="47" height="180" rx="11.49"/><polygon class="cls-11" points="453.17 159.91 452.64 174.91 457.42 171.06 463.35 170.62 453.17 159.91"/><polygon class="cls-10" points="453.18 134.67 452.68 148.67 457.15 145.08 462.68 144.67 453.18 134.67"/><polygon class="cls-11" points="452.53 198.28 462.63 194.66 463.18 189.6 458.51 185.93 453.72 187.66 452.53 198.28"/><rect class="cls-12" x="586.88" y="244.11" width="1.62" height="1.62" transform="translate(147.38 -364.39) rotate(38.17)"/><line class="cls-23" x1="457.48" y1="191.99" x2="452.27" y2="198.61"/><rect class="cls-11" x="589.52" y="238.1" width="5.65" height="2.42" transform="translate(144.91 -368.47) rotate(38.17)"/><polygon class="cls-11" points="452.35 222.12 462.44 218.5 462.99 213.43 458.32 209.77 453.53 211.49 452.35 222.12"/><rect class="cls-12" x="586.69" y="267.94" width="1.62" height="1.62" transform="translate(162.07 -359.18) rotate(38.17)"/><line class="cls-23" x1="457.29" y1="215.82" x2="452.09" y2="222.44"/><rect class="cls-11" x="589.33" y="261.93" width="5.65" height="2.42" transform="translate(159.6 -363.26) rotate(38.17)"/><path class="cls-24" d="M573.32,262.45s5-1,5,3-2,6,3,10" transform="translate(-129.68 -53.55)"/><rect class="cls-25" x="450.14" y="234.41" width="16" height="13"/><path class="cls-11" d="M582.32,322.45l7.4-9.25a2.27,2.27,0,0,1,2.1-.87,1.62,1.62,0,0,1,1.19.76,1.81,1.81,0,0,1-.22,2l-7.47,9.33-3-2" transform="translate(-129.68 -53.55)"/><path class="cls-11" d="M581.32,324.45s-2,0-3,3a3.1,3.1,0,0,1-4,2s4.33,1.45,8.08-.57a2.36,2.36,0,0,0-1-4.43Z" transform="translate(-129.68 -53.55)"/><polygon class="cls-26" points="376.43 538.21 373.14 558.77 341.41 727.77 332.14 727.77 357.14 559.77 359.79 538.21 376.43 538.21"/><path class="cls-26" d="M593.82,781.31h-9.28L552.81,615.74c-.44-2.3-.69-5.1-1-7.43l-2.3-16.55h16.64l2.66,20.55Z" transform="translate(-129.68 -53.55)"/><polygon class="cls-2" points="356.14 566.77 371.14 568.77 376.56 538.21 360.14 537.77 356.14 566.77"/><polygon class="cls-2" points="440.14 566.77 424.14 566.77 419.74 538.21 436.14 537.77 440.14 566.77"/><rect class="cls-26" x="349.23" y="517.29" width="101.84" height="21.1"/><path class="cls-17" d="M749.62,734.92c-3.19,1.38-97.13,9.56-100.91,7.61-1.44-.73-3.43-14.35-5.37-30.86-.41-3.57-.82-7.26-1.22-11-2.6-24.31-4.79-50.17-4.79-50.17l62.83-5.65,3.06,50.32.68,11.05s37.37,12.95,41.28,15.54S752.8,733.53,749.62,734.92Z" transform="translate(-129.68 -53.55)"/><path class="cls-11" d="M749.62,734.92c-3.19,1.38-97.13,9.56-100.91,7.61-1.75-.9-4.32-20.81-6.59-41.86l61.1-5.5.68,11.05s37.37,12.95,41.28,15.54S752.8,733.53,749.62,734.92Z" transform="translate(-129.68 -53.55)"/><path class="cls-27" d="M749.62,734.92c-3.19,1.38-98,8.34-101.8,6.39-1.44-.73-2.54-13.13-4.48-29.64l60.56-5.45s37.37,12.95,41.28,15.54S752.8,733.53,749.62,734.92Z" transform="translate(-129.68 -53.55)"/><path class="cls-16" d="M747.94,731.28c-15.78,1-79.34,6.44-94.86,8.61-.13,0-.12.11,0,.1,15.66-.63,79.17-6.61,94.88-8.45C748.3,731.5,748.28,731.26,747.94,731.28Z" transform="translate(-129.68 -53.55)"/><path class="cls-11" d="M738.85,718.91a12.69,12.69,0,0,0-9.09,4.66,12.34,12.34,0,0,0-2.79,8.72c0,.09.19.08.19,0a14.7,14.7,0,0,1,11.7-13.17A.1.1,0,0,0,738.85,718.91Z" transform="translate(-129.68 -53.55)"/><path class="cls-11" d="M710.14,707.25c-6.31.46-13.42,3.32-16.89,8.82-.13.21.17.4.35.29A87.86,87.86,0,0,1,710.32,708,.4.4,0,0,0,710.14,707.25Z" transform="translate(-129.68 -53.55)"/><path class="cls-11" d="M715.17,708.73c-6.31.46-13.42,3.32-16.89,8.81-.13.22.17.41.35.29a87.86,87.86,0,0,1,16.72-8.34A.39.39,0,0,0,715.17,708.73Z" transform="translate(-129.68 -53.55)"/><path class="cls-11" d="M720.2,710.2c-6.31.46-13.42,3.32-16.89,8.82-.13.21.17.4.35.29A86.7,86.7,0,0,1,720.38,711,.4.4,0,0,0,720.2,710.2Z" transform="translate(-129.68 -53.55)"/><path class="cls-11" d="M725.24,711.67c-6.32.46-13.43,3.32-16.9,8.82-.13.21.17.4.35.29a87.86,87.86,0,0,1,16.72-8.34A.4.4,0,0,0,725.24,711.67Z" transform="translate(-129.68 -53.55)"/><path class="cls-17" d="M634.56,778.38c-3.47.21-94.53-24.28-97.42-27.4-1.1-1.18,1.7-14.66,5.53-30.84.83-3.49,1.71-7.09,2.62-10.75,5.88-23.73,12.68-48.78,12.68-48.78l61,16.2-14.36,48.33-3.14,10.62s30.68,25,33.47,28.74S638,778.17,634.56,778.38Z" transform="translate(-129.68 -53.55)"/><path class="cls-11" d="M634.56,778.38c-3.47.21-94.53-24.28-97.42-27.4-1.33-1.45,3.07-21,8.15-41.59l59.28,15.75-3.14,10.62s30.68,25,33.47,28.74S638,778.17,634.56,778.38Z" transform="translate(-129.68 -53.55)"/><path class="cls-28" d="M497.76,303.45s-20-3.81-24.74,15.22-26.65,57.1-26.65,57.1l23.79-19" transform="translate(-129.68 -53.55)"/><path class="cls-28" d="M494.91,304.4s12.37-3.81,19,1.9,12.66,19.48,9.18,43.05" transform="translate(-129.68 -53.55)"/><path class="cls-28" d="M516.72,318.27s4.83,30.85,20.06,48.94,8.68,35.8,8.68,35.8l-1.15-1.16s5.79-16.56-8.48-33.69-18.32-44.3-18.32-44.3" transform="translate(-129.68 -53.55)"/><path class="cls-29" d="M513.94,412.88s9.51,4.76,24.74-9.51-35.06-13-35.06-13Z" transform="translate(-129.68 -53.55)"/><polygon class="cls-28" points="348.1 270.84 334.77 314.61 394.73 326.98 395.68 304.14 392.82 285.11 388.06 261.32 377.6 255.61 370.93 252.75 349.05 265.13 348.1 270.84"/><path class="cls-30" d="M447.6,488.91c-10.8,23.42-6.18,51.19,12.52,69,.54.52,1.1,1,1.67,1.57,34.26,31.4,110.39,21.89,110.39,21.89s-2.81,20.93-4.71,37.11S538,701.23,538,701.23l75.18,13.33s39-79.94,22.84-121.82-102.77-65.66-102.77-65.66,3.8-20.93-4.76-37.11c0,0-29.5,9.51-78-9.52A34.91,34.91,0,0,1,447.6,488.91Z" transform="translate(-129.68 -53.55)"/><path class="cls-30" d="M528.45,490l104.27,24.95a44.32,44.32,0,0,1,21,11.5,31.62,31.62,0,0,1,8.9,14.94c3.81,16.17,53.29,148.45,53.29,148.45l-76.13,6.66s-23.79-77.08-20.94-119l-85.64-50.44S517,505.19,528.45,490Z" transform="translate(-129.68 -53.55)"/><path class="cls-16" d="M639.79,696.47s-29.5-98-23.79-124.66c0,0-106.62,32.35-151.35-9.52,0,0,48.53,39,155.16,1.91,0,0-5.8,35.12,31.36,131.28Z" transform="translate(-129.68 -53.55)"/><path class="cls-16" d="M649.31,722.17" transform="translate(-129.68 -53.55)"/><path class="cls-16" d="M651.21,681.25s20.94,4.76,51.39-1.91c0,0-20,10.47-48.54,7.62Z" transform="translate(-129.68 -53.55)"/><path class="cls-16" d="M670.24,717.41" transform="translate(-129.68 -53.55)"/><path class="cls-16" d="M572.18,581.33s-18.08,79-34.25,119.9l10.54,1.86s28.37-72.68,29.37-122.92Z" transform="translate(-129.68 -53.55)"/><path class="cls-31" d="M611.36,573.11s4.6,86.25-29.66,133.83l-1,1.87,32.4,5.75s15.73-35.85,18.33-47.9c0,0-18.33-62.5-15.48-94.85Z" transform="translate(-129.68 -53.55)"/><path class="cls-16" d="M549.45,683.38s18.24,11.33,49.2,15c0,0-22.31,3.38-48.37-8.63Z" transform="translate(-129.68 -53.55)"/><path class="cls-18" d="M510.16,370.61c29,22.37,55.35,48,58.45,63,2,9.46-5.3,24.68-10.6,33.66-2.58,4.38-43.5-21.83-39.13-25.05,10.81-8,13-11.57,12.33-13.69-.39-1.35-29.9-38-37.25-53.48C483.72,353.53,497.48,360.82,510.16,370.61Z" transform="translate(-129.68 -53.55)"/><path class="cls-16" d="M444.47,461.42c5.71-1.91,75.82,13.34,76.76,12.45,1.31-1.24-7.27-88.43-20.69-110-3.35-5.39-19.14-9.4-26.22-2.07C447,390.14,443.35,461.79,444.47,461.42Z" transform="translate(-129.68 -53.55)"/><path class="cls-18" d="M494.37,482.59c3.75,3.09,10.6-6.81,10.6-6.81a9,9,0,0,0,1.48,5.93c2.2,3,7.82.81,7.82.81a11.06,11.06,0,0,0,2.56,6c2.39,2.63,8.38,1.27,8.38,1.27a9.66,9.66,0,0,0,5.56,3.85c6.1,1.3,12.71-5.55,17-9.86s12.26-20.51,14.1-23.44L534.4,432.82s-24.54,13.91-28.82,19.69C502,457.38,488.63,477.86,494.37,482.59Z" transform="translate(-129.68 -53.55)"/><path class="cls-16" d="M504.92,475.62c2.59-6.09,6.63-11.56,10.59-16.78.09-.12.27,0,.18.13-4,5.16-6.71,11.5-10.49,16.81A.16.16,0,0,1,504.92,475.62Z" transform="translate(-129.68 -53.55)"/><path class="cls-16" d="M514,482.07a17.23,17.23,0,0,1,2.66-3.65q1.53-1.83,3.14-3.62,3.21-3.58,6.59-7c.1-.1.28,0,.18.14-2.13,2.38-4.22,4.79-6.24,7.26-1,1.23-2,2.47-3,3.72a20.14,20.14,0,0,1-3,3.41A.23.23,0,0,1,514,482.07Z" transform="translate(-129.68 -53.55)"/><path class="cls-16" d="M525.29,489.67a12.09,12.09,0,0,1,2.57-3.15c1-1.07,2-2.14,3-3.22,2-2.15,3.93-4.31,5.83-6.53.09-.11.27,0,.18.14-1.91,2.27-3.79,4.56-5.73,6.81-.94,1.1-1.9,2.2-2.86,3.3a11.32,11.32,0,0,1-2.85,2.76C525.33,489.81,525.27,489.73,525.29,489.67Z" transform="translate(-129.68 -53.55)"/><path class="cls-18" d="M468.62,364.14c-44.72,22.51-86.18,57.44-85.25,71,1,14.37,29.66,29.3,53.13,36.77,4.81,1.53,22.32-26.47,17.58-29-3.7-2-20.65-10.3-22.34-13.13-1.18-2,33.57-36,46.27-54.73C491.29,355.44,480.59,358.12,468.62,364.14Z" transform="translate(-129.68 -53.55)"/><path class="cls-17" d="M444.13,440s14.76,4.21,24.28,7.43c5.31,1.79,14.14,5.68,17.44,8.78,4.93,4.64,22.61,27.19,17.24,31.6-4.87,4-9.59-4.57-9.59-4.57s6,8.86,0,11.33-11.16-9.24-11.16-9.24,7.06,9,.36,11c-5.82,1.76-13.12-11.12-13.12-11.12s8.45,8.59,2.66,11c-4.39,1.81-12.09-6.1-16.47-11.22a33.94,33.94,0,0,0-8.44-7.08c-10.23-6.08-18.14-11.61-23.68-17.15C422.4,459.46,444.13,440,444.13,440Z" transform="translate(-129.68 -53.55)"/><path class="cls-16" d="M480.16,358.49s2.85-1.08,2.85,8.57c0,13.82-48.12,58.28-48.12,58.28s-7.23,6,24.11,17.68c0,0-5.6,22.26-21.28,28.81-12.21,5.1-41.39-16.4-53.2-25.64-7.26-5.68-7.82-14.95-2.38-22.39.4-.55.84-1.11,1.32-1.67C393.11,410.88,463.54,361,480.16,358.49Z" transform="translate(-129.68 -53.55)"/><path class="cls-16" d="M500.79,364.27s57.32,38.46,66.42,65l-35.89-.74-19.49-23.93S507.21,380.34,500.79,364.27Z" transform="translate(-129.68 -53.55)"/><path class="cls-5" d="M438.51,422s-10.69,6-17.36,4.08A13.31,13.31,0,0,0,436,430.81S432.07,426.47,438.51,422Z" transform="translate(-129.68 -53.55)"/><path class="cls-5" d="M444.42,416.32s17.69-10.69,23.4-24Z" transform="translate(-129.68 -53.55)"/><path class="cls-5" d="M481.11,357.54s5.61,8.9-2.91,21.11S468.33,391,469.49,390s12-18.37,7.81-30.53l3.81-1.9" transform="translate(-129.68 -53.55)"/><path class="cls-5" d="M467.82,392.31s-21.92,30.89-8.6,50.88c0,0-8.85-2.46-12.85-5.56L444,416.54Z" transform="translate(-129.68 -53.55)"/><path class="cls-5" d="M387.73,447.36c3.2,2.3,12.7,6.4,33.42-3.22,0,0-9.14,13.33-25.22,10.62l-13.32-10.47.78.39A30.7,30.7,0,0,1,387.73,447.36Z" transform="translate(-129.68 -53.55)"/><path class="cls-5" d="M531.07,421.45s7.14,9.37,20.46.8l-7.27,6.58-12.72.08Z" transform="translate(-129.68 -53.55)"/><path class="cls-5" d="M500.84,365c7.37,12.24,12.16,41,12.16,41s13.79,17.13,14.74,18.08,6.26,2,6.26,2c-5.16-9.45-22.85-29.33-22.85-29.33" transform="translate(-129.68 -53.55)"/><path class="cls-5" d="M510.31,387" transform="translate(-129.68 -53.55)"/><path class="cls-5" d="M461.6,407.17s9.51,11.42,22.84,2.86c0,0-6.57,13.06-26.65-.95l-1.9-.95,4.67-7.1S459.69,405.27,461.6,407.17Z" transform="translate(-129.68 -53.55)"/><path class="cls-5" d="M456.55,412.2s18.37,12.1,27.89-2.17c0,0-9.62,12.28-26.65-1.9Z" transform="translate(-129.68 -53.55)"/><path class="cls-17" d="M492.86,375.33c-3.93-.5-10.78-9.21-12.88-15.91-.14-.46,1.37-4.7,3-9.94.95-3.18,1.94-6.74,2.6-10.06l19.8,9.22A53.91,53.91,0,0,0,500.78,361a6.73,6.73,0,0,0-.13,1.39c0,.06,0,.14,0,.23C500.53,365.27,499,376.12,492.86,375.33Z" transform="translate(-129.68 -53.55)"/><path class="cls-32" d="M500.64,362.37a1.89,1.89,0,0,0,0,.24,15.52,15.52,0,0,1-2.18-.32c-12-2.69-12-18.13-11.8-22.33l18.68,8.68A54.27,54.27,0,0,0,500.77,361,10.13,10.13,0,0,0,500.64,362.37Z" transform="translate(-129.68 -53.55)"/><path class="cls-17" d="M483.79,317.09c-2.5,7.46.88,29.29,6.1,34.28,7.56,7.24,20.24,8.25,26.46-.91,6-8.87,1.12-37.25-4.74-41.82C503,301.92,487.48,306.07,483.79,317.09Z" transform="translate(-129.68 -53.55)"/><path class="cls-16" d="M503.34,330.76c0-.05-.1.1-.09.15.33,1.46.47,3.17-.76,3.92a0,0,0,0,0,0,.08C504.09,334.37,503.88,332.09,503.34,330.76Z" transform="translate(-129.68 -53.55)"/><path class="cls-16" d="M501.74,329.49c-2.39.28-1.65,5,.55,4.77S503.73,329.26,501.74,329.49Z" transform="translate(-129.68 -53.55)"/><path class="cls-16" d="M511.56,329.22c0-.06.13,0,.13.11.18,1.48.64,3.14,2,3.42,0,0,.06.09,0,.09C512.08,332.86,511.49,330.65,511.56,329.22Z" transform="translate(-129.68 -53.55)"/><path class="cls-16" d="M512.64,327.48c2.33-.55,3.25,4.17,1.09,4.67S510.68,327.94,512.64,327.48Z" transform="translate(-129.68 -53.55)"/><path class="cls-17" d="M488,334.92c.15-.05-4.4-7.22-8.07-5.33-3.23,1.67.43,11.94,4.16,13.36a3.81,3.81,0,0,0,5.12-2Z" transform="translate(-129.68 -53.55)"/><path class="cls-32" d="M481,331.54a.05.05,0,0,0,0,.1c2.61,1.08,4,3.53,4.93,6.06a2.1,2.1,0,0,0-3.14-.6.08.08,0,0,0,.07.14,2.34,2.34,0,0,1,2.57.84,11.43,11.43,0,0,1,1.22,2.09c.12.24.54.11.46-.16a.14.14,0,0,1,0-.06C487.16,336.61,484.59,331.9,481,331.54Z" transform="translate(-129.68 -53.55)"/><path class="cls-17" d="M515.07,347.81a2,2,0,0,0-2-2.16h-4.21c-3,0-8.68.84-8.81,1.47-.32,1.58-.32,7.67,11.86,4.62A4.49,4.49,0,0,0,515.07,347.81Z" transform="translate(-129.68 -53.55)"/><path class="cls-16" d="M510.82,345.78s-3.91,2.51-8,.56C502.8,346.34,507.18,351.32,510.82,345.78Z" transform="translate(-129.68 -53.55)"/><path class="cls-28" d="M483.82,330.31l4.42,4.54s-2.6-19.13,10.46-23.31a9.6,9.6,0,0,0,3.82-2.38h0a22.36,22.36,0,0,0,6.52,4.6A17.36,17.36,0,0,1,518.4,325c3,12,6.82,33.73.71,52.57l16.25,13.69,7,5.93s-2.76-21.46-11.32-34.78c-4.33-6.74-9.07-30.21-10.08-40.39a21.83,21.83,0,0,0-6.66-13.84,18.67,18.67,0,0,0-16.57-4.77s-23.79,0-23.79,23.79S446.07,376,446.07,376s19.64-12.45,30-16.31c0,0,3.3-.63,4.42-2.24s4-14,4-14a14.63,14.63,0,0,1-5.79-11.53s.19-3.4,3.17-2.57A4.73,4.73,0,0,1,483.82,330.31Z" transform="translate(-129.68 -53.55)"/><path class="cls-21" d="M554.64,330.06" transform="translate(-129.68 -53.55)"/><path class="cls-21" d="M515.84,315.82" transform="translate(-129.68 -53.55)"/><path class="cls-29" d="M501.81,357.07a29.89,29.89,0,0,0-1.27,6.81s20.17,14.93,24.4,18.64c0,0-11.19-18.16-6.81-36.25C518.13,346.27,516.33,357.4,501.81,357.07Z" transform="translate(-129.68 -53.55)"/><path class="cls-33" d="M503.23,325.45a2,2,0,0,1,.93,2.79s-5.57-1.86-8.35.92l-1.86.93a10.49,10.49,0,0,1,4.64-3.71A16.24,16.24,0,0,1,503.23,325.45Z" transform="translate(-129.68 -53.55)"/><path class="cls-33" d="M509.7,324.55a1.62,1.62,0,0,0,.09,2.34s3.64-2.95,6.51-1.65l1.65.17a8.34,8.34,0,0,0-4.52-1.47A13.06,13.06,0,0,0,509.7,324.55Z" transform="translate(-129.68 -53.55)"/><path class="cls-33" d="M508.23,333s2.85,3.8,2.85,6.66-4.75,1.9-4.75,1.9,4.75,0,3.8-2.85Z" transform="translate(-129.68 -53.55)"/><path class="cls-28" d="M502.52,309.16a56.83,56.83,0,0,1-10.47,9.51c-5.71,3.81-3.87,15.6-3.87,15.6l-1.57-20Z" transform="translate(-129.68 -53.55)"/><path class="cls-29" d="M478.65,333s1.66,20.58-15.58,33c0,0,10.9-4.81,16.75-6.61l4.87-16.15S479.82,341.31,478.65,333Z" transform="translate(-129.68 -53.55)"/><path class="cls-34" d="M474.13,491.61s-4.31-11.3-10.31-16.3c0,0,8.63,13.81,10.31,17.41Z" transform="translate(-129.68 -53.55)"/><path class="cls-34" d="M485.82,490.87s-4.31-11.3-10.31-16.3c0,0,8.62,13.81,10.31,17.4Z" transform="translate(-129.68 -53.55)"/><path class="cls-34" d="M492.82,482.87s-4.31-11.3-10.31-16.3c0,0,8.62,13.81,10.31,17.4Z" transform="translate(-129.68 -53.55)"/><rect class="cls-35" x="319.72" y="440.65" width="107.98" height="4.84"/><polygon class="cls-35" points="362.66 445.49 467.89 445.49 476.65 374.02 371.42 374.02 362.66 445.49"/><path class="cls-36" d="M500.82,427.31a3.66,3.66,0,0,1,3.5,2.84c1,3-8.17,69-8.17,69l-6.64-.15" transform="translate(-129.68 -53.55)"/><path class="cls-5" d="M459,443s-4.5-24.37,12.16-26c0,0-6.34-.67-14.34-5.67C456.82,411.31,450.18,428.73,459,443Z" transform="translate(-129.68 -53.55)"/><path class="cls-16" d="M554.34,409.44s2.47,5.12,12.48,0L584.25,401l16.57,26.28-38.08.25Z" transform="translate(-129.68 -53.55)"/><path class="cls-5" d="M555.28,410.51s6.54,3.8,6.54,9.8c0,0,3.08-3.45,1-9.23C562.86,411.08,557.73,412.72,555.28,410.51Z" transform="translate(-129.68 -53.55)"/><polygon class="cls-5" points="400.89 374.02 397.03 369.42 400.14 369.77 403.66 372.44 404.66 374.02 400.89 374.02"/><path class="cls-16" d="M500.7,329.91c-.34.23-.67.62-1.09.67s-.84-.36-1.16-.75c0,0-.06,0-.06.05,0,.75.29,1.52,1.1,1.62s1.26-.58,1.44-1.33C501,330,500.84,329.82,500.7,329.91Z" transform="translate(-129.68 -53.55)"/><path class="cls-16" d="M513.62,327.91c.34.23.67.62,1.08.67s.85-.36,1.17-.75c0,0,.06,0,.06.05,0,.75-.29,1.52-1.1,1.62s-1.26-.58-1.44-1.33C513.36,328,513.48,327.82,513.62,327.91Z" transform="translate(-129.68 -53.55)"/><polygon class="cls-37" points="468.14 445.77 476.49 375.37 439.26 445.49 468.14 445.77"/><polygon class="cls-36" points="468.14 440.77 468.14 445.49 354.3 445.49 360.04 440.65 468.14 440.77"/><path class="cls-8" d="M787.75,670.22c-4.64-2.39-10.1-2.7-15.24-1.85-2.77.46-5.65,1.29-7.53,3.36s-2.24,5.73-.08,7.52a7.23,7.23,0,0,0,4.75,1.2c4,0,8.5-.75,11.71,1.67,1.84,1.38,3.06,3.68,5.26,4.36a5.18,5.18,0,0,0,5.71-2.54,8.88,8.88,0,0,0,.64-6.55A10,10,0,0,0,787.75,670.22Z" transform="translate(-129.68 -53.55)"/><path class="cls-8" d="M798.37,649.72c-2.84,4-8.35,2.71-10.9.24s-3.64-6.05-4.62-9.47c-2.24-7.8-4.51-16-2.84-23.93a13.29,13.29,0,0,1,3.06-6.51,7,7,0,0,1,6.58-2.19c2.78.73,4.51,3.45,5.75,6A57.06,57.06,0,0,1,801,638.39c0,3.94-.45,8.08-2.67,11.33" transform="translate(-129.68 -53.55)"/><path class="cls-8" d="M806.15,655.53c-3.08-3.65-3.66-9-2.29-13.55s4.46-8.47,8-11.65a43,43,0,0,1,14.37-8.48,15.34,15.34,0,0,1,6.47-1.1,6.78,6.78,0,0,1,5.42,3.28c1.52,2.89.07,6.39-1.5,9.24a109.66,109.66,0,0,1-9.45,14.38c-2.83,3.65-6.07,7.25-10.38,8.9S808,658,805.74,655" transform="translate(-129.68 -53.55)"/><path class="cls-7" d="M798.56,710.79a8.32,8.32,0,0,1-.26-1.84c-.13-1.34-.29-3-.49-5a70.34,70.34,0,0,0-1.13-7.36,56.86,56.86,0,0,0-2.67-8.69,32.24,32.24,0,0,0-4.44-7.87,16.55,16.55,0,0,0-5.61-4.66,15.4,15.4,0,0,0-4.73-1.47,8.75,8.75,0,0,1-1.83-.27,9,9,0,0,1,1.87,0,14.31,14.31,0,0,1,4.92,1.28,16.58,16.58,0,0,1,5.92,4.71,31.24,31.24,0,0,1,4.6,8,53,53,0,0,1,2.66,8.83,62.5,62.5,0,0,1,1,7.46c.16,2.13.22,3.86.25,5A9.26,9.26,0,0,1,798.56,710.79Z" transform="translate(-129.68 -53.55)"/><path class="cls-7" d="M798.21,706.93a4.46,4.46,0,0,1-.05-.86c0-.64,0-1.45,0-2.44,0-2.12,0-5.18-.11-9-.19-7.57-.84-15.72-2.1-27.2-1.19-10.8-2.79-23.37-4.48-31.55-.36-1.86-.73-3.53-1.07-5s-.61-2.74-.88-3.76l-.57-2.37a4.34,4.34,0,0,1-.15-.85,3.43,3.43,0,0,1,.3.8l.71,2.34c.31,1,.64,2.28,1,3.74s.79,3.13,1.19,5a277.36,277.36,0,0,1,4.71,29.27c1.26,11.51,1.83,22,1.88,29.58,0,3.8,0,6.87-.14,9-.06,1-.11,1.8-.15,2.44A3.37,3.37,0,0,1,798.21,706.93Z" transform="translate(-129.68 -53.55)"/><path class="cls-7" d="M798.16,686.71a17.15,17.15,0,0,1,0-2.55c.09-1.64.32-4,.78-6.91a89.91,89.91,0,0,1,2.25-10.06,82.32,82.32,0,0,1,4.2-11.91A63.85,63.85,0,0,1,817.77,636a32.8,32.8,0,0,1,2.91-2.7c.45-.38.84-.75,1.24-1.05l1.13-.78a14.86,14.86,0,0,1,2.15-1.37c.12.16-3,2-7,6.28a66.73,66.73,0,0,0-12,19.17,93.91,93.91,0,0,0-4.23,11.8,102.22,102.22,0,0,0-2.39,10c-.53,2.87-.83,5.21-1,6.84A16.84,16.84,0,0,1,798.16,686.71Z" transform="translate(-129.68 -53.55)"/><polygon class="cls-4" points="688.02 668.83 685.99 696.58 650.34 696.58 648.32 668.83 688.02 668.83"/><rect class="cls-38" x="644.06" y="657.89" width="47.4" height="10.94"/><polygon class="cls-38" points="691.46 693.51 691.46 696.55 689.24 696.55 644.85 696.55 644.85 693.51 691.46 693.51"/><polygon class="cls-38" points="687.05 703.88 689.24 698.55 646.54 698.55 649.09 703.88 687.05 703.88"/><path class="cls-38" d="M775.7,752.39c0,.12,9.71.22,21.68.22s21.69-.1,21.69-.22-9.71-.22-21.69-.22S775.7,752.27,775.7,752.39Z" transform="translate(-129.68 -53.55)"/><path class="cls-11" d="M647.82,742.31s-3-4-3-14c0,0,69,5,106,1,0,0,1.06,3,0,5S670,742.31,647.82,742.31Z" transform="translate(-129.68 -53.55)"/><path class="cls-11" d="M738.82,719.31s-10,3-9,12h-2.56S727.82,719.31,738.82,719.31Z" transform="translate(-129.68 -53.55)"/><path class="cls-27" d="M634.67,778.38c-3.47.2-94.48-24.49-97.35-27.62-1.1-1.19,1.72-14.65,5.6-30.82l58.72,15.75s30.61,25,33.4,28.81S638.14,778.18,634.67,778.38Z" transform="translate(-129.68 -53.55)"/><path class="cls-11" d="M630.07,759.64a12.67,12.67,0,0,0-10.13,1.25,12.28,12.28,0,0,0-5.62,7.22c0,.09.14.14.18,0A14.66,14.66,0,0,1,630,759.83.1.1,0,1,0,630.07,759.64Z" transform="translate(-129.68 -53.55)"/><path class="cls-11" d="M607.14,738.81c-6.08-1.74-13.74-1.51-18.89,2.46-.2.15,0,.43.23.39a87.06,87.06,0,0,1,18.57-2.07A.4.4,0,0,0,607.14,738.81Z" transform="translate(-129.68 -53.55)"/><path class="cls-11" d="M611.36,741.93c-6.08-1.75-13.75-1.51-18.9,2.45-.2.16,0,.44.23.39a87.77,87.77,0,0,1,18.57-2.06A.4.4,0,0,0,611.36,741.93Z" transform="translate(-129.68 -53.55)"/><path class="cls-11" d="M615.57,745c-6.08-1.74-13.74-1.51-18.89,2.46-.2.15,0,.43.23.39a87.7,87.7,0,0,1,18.57-2.07A.4.4,0,0,0,615.57,745Z" transform="translate(-129.68 -53.55)"/><path class="cls-11" d="M619.79,748.16c-6.08-1.74-13.75-1.51-18.9,2.46-.2.15,0,.43.23.39a87.13,87.13,0,0,1,18.57-2.07A.4.4,0,0,0,619.79,748.16Z" transform="translate(-129.68 -53.55)"/><path class="cls-11" d="M536.82,751.31s-.76-5.51,2.68-14.89c0,0,62.19,27.89,98.32,36.89,0,0-.32,3.49-2,5S557.67,759,536.82,751.31Z" transform="translate(-129.68 -53.55)"/><path class="cls-11" d="M629.91,760s-10.42-.63-12.58,8.16l-2.41-.88S619.58,756.22,629.91,760Z" transform="translate(-129.68 -53.55)"/><rect class="cls-2" x="150.64" y="445.91" width="470" height="10"/><rect class="cls-26" x="162.64" y="455.91" width="446" height="10"/><polygon class="cls-26" points="232.45 466.09 227.84 494.91 183.34 731.91 170.34 731.91 205.4 496.31 209.11 466.09 232.45 466.09"/><polygon class="cls-2" points="204 506.13 225.03 508.93 232.64 466.09 209.6 465.46 204 506.13"/><polygon class="cls-26" points="543.53 465.86 548.14 494.69 592.64 731.91 605.64 731.68 570.58 496.09 566.87 465.86 543.53 465.86"/><polygon class="cls-2" points="571.98 505.91 550.95 508.71 543.34 465.86 566.37 465.24 571.98 505.91"/><path class="cls-11" d="M840.11,306.77H814.44a2.43,2.43,0,0,0-.88.18h0a2.67,2.67,0,0,0-.81.52h0a2.75,2.75,0,0,0-.54.84h0a2.32,2.32,0,0,0-.19.94v27.26a2.56,2.56,0,0,0,2.42,2.56h25.67a2.15,2.15,0,0,0,.87-.18h0a2.09,2.09,0,0,0,.79-.52h0a3.06,3.06,0,0,0,.56-.82h0a2.9,2.9,0,0,0,.19-.92h0V309.35A2.55,2.55,0,0,0,840.11,306.77ZM817.4,333.69V315.44l17.75,18.25Zm21.54-3.27-17.73-18.27h17.73Z" transform="translate(-129.68 -53.55)"/><path class="cls-11" d="M769.89,301.39h-27a2.6,2.6,0,0,0-2.63,2.56h0v27.16a2.6,2.6,0,0,0,2.61,2.58H770a2.59,2.59,0,0,0,2.58-2.59V304A2.61,2.61,0,0,0,769.89,301.39Zm-2.73,26.91H745.62V306.77h21.54Z" transform="translate(-129.68 -53.55)"/><path class="cls-11" d="M841.68,342.66h-27a2.62,2.62,0,0,0-2.65,2.56V372.4a2.62,2.62,0,0,0,2.65,2.56h27a2.6,2.6,0,0,0,2.64-2.56h0V345.22a2.6,2.6,0,0,0-2.64-2.56Zm-2.74,26.92H817.4v-9h21.54Zm0-12.56H817.4v-9h21.54Z" transform="translate(-129.68 -53.55)"/><path class="cls-11" d="M769.89,340.87h-27a2.61,2.61,0,0,0-2.63,2.58V370.6a2.57,2.57,0,0,0,2.57,2.57h27.08a2.62,2.62,0,0,0,2.65-2.57V343.45A2.63,2.63,0,0,0,769.89,340.87Zm-2.73,26.91H745.62V346.25h21.54Z" transform="translate(-129.68 -53.55)"/><path class="cls-11" d="M793,341.36A17.19,17.19,0,0,0,775.85,359a17.39,17.39,0,0,0,16.7,16.7,17.19,17.19,0,0,0,17.67-17.19h0A17.21,17.21,0,0,0,793,341.36Zm-.21,29.22a12,12,0,1,1,12-12h0A12.07,12.07,0,0,1,792.82,370.58Z" transform="translate(-129.68 -53.55)"/><path class="cls-11" d="M778.76,294.21h27a2.6,2.6,0,0,0,2.65-2.55h0V264.47a2.55,2.55,0,0,0-2.57-2.56h-27.1a2.6,2.6,0,0,0-2.63,2.56h0v27.18a2.6,2.6,0,0,0,2.63,2.56Zm17.11-26.92h9v21.54h-9Zm-12.56,0h7.18v21.54h-7.18Z" transform="translate(-129.68 -53.55)"/><path class="cls-11" d="M841.69,261.91H814.76A2.63,2.63,0,0,0,812,264.4v27.24a2.61,2.61,0,0,0,2.66,2.57h27a2.6,2.6,0,0,0,2.63-2.57h0V264.47a2.6,2.6,0,0,0-2.63-2.56Zm-2.75,26.92H817.4v-9h21.54Zm0-12.56H817.4v-9h21.54Z" transform="translate(-129.68 -53.55)"/><path class="cls-11" d="M755.37,260.88a17.18,17.18,0,0,0-17.2,17.66,17.37,17.37,0,0,0,16.67,16.72,17.2,17.2,0,0,0,17.7-17.17v0A17.21,17.21,0,0,0,755.37,260.88Zm.64,29.23a12,12,0,1,1,12-12A12,12,0,0,1,756,290.11Z" transform="translate(-129.68 -53.55)"/><path class="cls-11" d="M792.82,302.15A17.2,17.2,0,1,0,810,319.34,17.2,17.2,0,0,0,792.82,302.15Zm-.54,29.67a12,12,0,0,1-12-12.21,12.2,12.2,0,0,1,11.87-11.87,12,12,0,0,1,12.21,12v0a12.07,12.07,0,0,1-12,12.07h0Z" transform="translate(-129.68 -53.55)"/><path class="cls-39" d="M961.32,286.22q3.33-6.41,6.5-13.27" transform="translate(-129.68 -53.55)"/><path class="cls-39" d="M623.82,472s10.5-86.5,87.5-77.5c74.42,8.7,185.75,15,250-108.23" transform="translate(-129.68 -53.55)"/><path class="cls-39" d="M613.82,183" transform="translate(-129.68 -53.55)"/><path class="cls-39" d="M618.67,161.54s10.5,86.5,87.5,77.5,193.5-15.39,256.5,121.5" transform="translate(-129.68 -53.55)"/><path class="cls-40" d="M330.92,437s-3.55,9.91-7.68,20-8.56,33.58-7.93,34.22S325.13,469.35,328,459,333,437.9,333,437.9Z" transform="translate(-129.68 -53.55)"/><polygon class="cls-6" points="201.2 383.22 198.44 389.94 202.21 391.07 203.73 384.08 201.2 383.22"/><path class="cls-5" d="M330.88,436.77c.4-5.53,4.79-10,4.79-10s1.79,6.5-2.26,10.89Z" transform="translate(-129.68 -53.55)"/><path class="cls-13" d="M320,424s1.4,10.44,3.33,21.18,1.36,34.63.61,35.13-5-23.49-5.64-34.23-.56-21.67-.56-21.67Z" transform="translate(-129.68 -53.55)"/><polygon class="cls-6" points="190.4 370.23 191.7 377.38 187.78 377.69 187.75 370.54 190.4 370.23"/><path class="cls-5" d="M317.43,424.08s2.51-.25,2.65-.31a60.09,60.09,0,0,0,1.86-7.45c-.15-.2-8.44,1-8.4,1.75S317.43,424.08,317.43,424.08Z" transform="translate(-129.68 -53.55)"/><rect class="cls-41" x="173.9" y="410.02" width="29.22" height="36.79" rx="4.38"/><rect class="cls-41" x="177.59" y="404.21" width="21.85" height="5.81"/><polygon class="cls-4" points="123.37 708.91 161.57 708.91 165.69 671.54 119.25 671.54 123.37 708.91"/><rect class="cls-38" x="246.89" y="720.47" width="50.52" height="9.23" transform="translate(414.62 1396.62) rotate(180)"/><polygon class="cls-38" points="161.67 716.49 163.85 711.15 121.17 711.15 123.71 716.49 161.67 716.49"/><polygon class="cls-38" points="165.82 705.92 165.82 708.96 163.59 708.96 119.2 708.96 119.2 705.92 165.82 705.92"/><path class="cls-16" d="M307.32,463.45s11,4,22,0C329.32,463.45,319.32,471.45,307.32,463.45Z" transform="translate(-129.68 -53.55)"/><rect class="cls-42" x="176.64" y="417.91" width="4" height="19" rx="2"/><rect class="cls-42" x="176.64" y="438.91" width="4" height="5" rx="2"/><path class="cls-2" d="M305.78,464.16a27.19,27.19,0,0,0,25,.08,4.78,4.78,0,0,0-1.65-.67s-6.8,2.88-21.8-.12Z" transform="translate(-129.68 -53.55)"/><rect class="cls-4" x="832.14" y="210.41" width="6.5" height="102"/><path class="cls-11" d="M338.21,305.49l1.2,1.77a12.52,12.52,0,0,0,5.46,4.46l2,.84-1.76,1.21a12.55,12.55,0,0,0-4.47,5.46l-.83,2-1.21-1.77a12.61,12.61,0,0,0-5.46-4.47l-2-.83,1.76-1.21a12.55,12.55,0,0,0,4.47-5.46Z" transform="translate(-129.68 -53.55)"/><path class="cls-11" d="M362.83,177l2.21,3.24a23,23,0,0,0,10,8.17l3.61,1.53-3.23,2.21a22.9,22.9,0,0,0-8.18,10l-1.53,3.6-2.21-3.23a23.07,23.07,0,0,0-10-8.18l-3.61-1.52,3.23-2.22a22.93,22.93,0,0,0,8.18-10Z" transform="translate(-129.68 -53.55)"/><path class="cls-11" d="M392.34,221.69l3,4.36a31,31,0,0,0,13.48,11l4.86,2.06-4.36,3a31,31,0,0,0-11,13.47l-2,4.86-3-4.35a31,31,0,0,0-13.48-11L374.9,243l4.36-3a31,31,0,0,0,11-13.48Z" transform="translate(-129.68 -53.55)"/></svg>