<svg id="Layer_1" data-name="Layer 1" xmlns="http://www.w3.org/2000/svg" viewBox="0 0 1025.64 775.17"><defs><style>.cls-1{fill:#f2f2f2;}.cls-2{fill:#c0e5c0;}.cls-3{fill:#8ab887;}.cls-4{fill:#e7f3ff;}.cls-5{fill:#cce3ff;}.cls-6{fill:#2b444e;}.cls-7{fill:#666;}.cls-27,.cls-28,.cls-8{opacity:0.1;}.cls-9{fill:#385b64;}.cls-10{fill:#ffbf9d;}.cls-11{fill:#fff;}.cls-12{fill:#333;}.cls-13,.cls-28{fill:#1a2e35;}.cls-14{fill:#d1945d;}.cls-15{fill:#dd9373;}.cls-16{fill:#203391;}.cls-17{fill:#c18859;}.cls-18{fill:#89705d;}.cls-19{fill:#cc1b05;}.cls-20{fill:#f47067;}.cls-21{fill:#2b454e;}.cls-22{fill:#482e77;}.cls-23{fill:#00448e;opacity:0.72;}.cls-24{fill:#91b3fa;}.cls-25{fill:#4d4d4d;}.cls-26{fill:#ffaba1;}.cls-29{fill:#375a64;}.cls-30{fill:#c17e67;}.cls-31{fill:#16282d;}.cls-32{fill:none;stroke:#fff;stroke-miterlimit:10;stroke-width:2px;}</style></defs><title>kapcsolat2</title><path class="cls-1" d="M781.07,696.66c16-10.52,45-30.21,48.95-60.13,3.91-29.5-20.54-38.68-23.14-71.65-3.51-44.43,38.71-55.37,49.84-107.07,11.23-52.25-19.49-98.72-29.37-113.67-31-46.86-62-46-127.27-95.54-84.08-63.78-8.31-107.06-70.3-143.78S411.5,63.66,343.19,101.17c-42.09,23.12-24.61,42.84-100.57,131-55.22,64.07-80.69,72.47-94.34,117.78-3.52,11.71-20.93,69.48,10.68,113.66,27.84,38.9,67.62,30.85,81.88,65.07,14.89,35.71-22.17,59.56-15.13,100.48,7.82,45.42,63.19,72.48,101.46,90.6C504.49,803.66,703.1,748.05,781.07,696.66Z" transform="translate(-30.99 -38)"/><path class="cls-2" d="M137.34,224.46c.07-8.5,3.75-16.6,8.87-23.37,2.76-3.64,6.13-7.17,10.55-8.31s10,1.11,10.89,5.58c.56,2.66-.57,5.36-1.86,7.75-3.11,5.77-7.52,11.68-6.46,18.16.6,3.69,3,7.19,2.3,10.87s-4.33,6.14-8,6.31-7.18-1.61-9.93-4A16.27,16.27,0,0,1,137.34,224.46Z" transform="translate(-30.99 -38)"/><path class="cls-2" d="M99.75,224.24c8-1,10.22-10,8.59-15.53s-6-9.82-10.15-13.82c-9.55-9.15-19.63-18.61-32.35-22.22-3.8-1.08-7.89-1.59-11.7-.52s-7.26,4-8.14,7.83c-1,4.56,1.57,9.11,4.36,12.86a92.72,92.72,0,0,0,31,26.67c5.68,3,12,5.47,18.37,4.73" transform="translate(-30.99 -38)"/><path class="cls-2" d="M102.23,239.86c-2.94-7.2-10.17-12.08-17.81-13.57s-15.58,0-22.86,2.75a70.48,70.48,0,0,0-23.12,14.31A24.89,24.89,0,0,0,32,251.83c-1.36,3.32-1.41,7.36.63,10.31,3,4.37,9.15,4.93,14.46,4.83a178.74,178.74,0,0,0,27.88-2.73c7.4-1.31,15-3.26,20.69-8.23s8.75-11.57,6.17-17.14" transform="translate(-30.99 -38)"/><path class="cls-3" d="M187.63,270.76a14.4,14.4,0,0,0-2.45-1.76l-6.87-4.51a115.55,115.55,0,0,1-9.76-7.2,92.08,92.08,0,0,1-10.5-10.44,52.58,52.58,0,0,1-8-12.35,27,27,0,0,1-2.47-11.62,25.51,25.51,0,0,1,1.45-7.93,14.61,14.61,0,0,0,1-2.84,13.26,13.26,0,0,0-1.45,2.67,23.41,23.41,0,0,0-1.89,8.07,27.06,27.06,0,0,0,2.3,12.09,51.42,51.42,0,0,0,8.08,12.71,86.59,86.59,0,0,0,10.73,10.52,103,103,0,0,0,10,7.06c3,1.84,5.4,3.23,7.1,4.18A14.55,14.55,0,0,0,187.63,270.76Z" transform="translate(-30.99 -38)"/><path class="cls-3" d="M182.33,267.34a6.13,6.13,0,0,0-1.2-.72l-3.52-1.84c-3.06-1.6-7.48-3.92-12.85-6.95-10.77-6-22-13.11-37.62-23.62-14.67-9.9-31.58-21.73-42.08-30.35-2.41-1.93-4.54-3.72-6.39-5.33s-3.48-2.94-4.76-4.11l-3-2.62a6.5,6.5,0,0,0-1.11-.85,7,7,0,0,0,.93,1c.75.73,1.69,1.65,2.84,2.79s2.79,2.64,4.62,4.27,3.91,3.5,6.29,5.48a450.6,450.6,0,0,0,38.62,29c15.64,10.53,30.32,19.29,41.22,25.11,5.44,2.94,9.93,5.15,13.06,6.61,1.47.67,2.67,1.21,3.63,1.63A5.4,5.4,0,0,0,182.33,267.34Z" transform="translate(-30.99 -38)"/><path class="cls-3" d="M153.23,252a27.28,27.28,0,0,0-3.69-1.91c-2.44-1.1-6-2.57-10.55-4.1a148.32,148.32,0,0,0-16.21-4.39,135,135,0,0,0-20.36-2.95c-14.58-1.24-27.93.47-37.1,3.24a52,52,0,0,0-6.1,2.15c-.88.36-1.72.64-2.45,1l-2,1a25.43,25.43,0,0,0-3.6,2.05c.14.3,5.22-2.85,14.37-5.39s22.31-4.07,36.77-2.85a152.7,152.7,0,0,1,20.21,2.84c6.17,1.21,11.63,2.73,16.18,4.1s8.15,2.75,10.63,3.71A27.36,27.36,0,0,0,153.23,252Z" transform="translate(-30.99 -38)"/><path class="cls-2" d="M209.4,294.09c-2.44,4.41-2.91,9.68-2.24,14.68.36,2.68,1.08,5.5,3,7.38s5.48,2.33,7.27.29a7,7,0,0,0,1.3-4.55c.07-3.9-.48-8.24,2-11.28,1.39-1.74,3.65-2.85,4.37-4.95a5,5,0,0,0-2.29-5.6,8.57,8.57,0,0,0-6.31-.82A9.67,9.67,0,0,0,209.4,294.09Z" transform="translate(-30.99 -38)"/><path class="cls-2" d="M189.9,283.21c3.83,2.86,2.37,8.15-.1,10.55s-6,3.33-9.29,4.18c-7.61,1.94-15.59,3.89-23.22,2a12.83,12.83,0,0,1-6.21-3.15,6.72,6.72,0,0,1-1.92-6.43c.79-2.66,3.47-4.25,6-5.38A55.27,55.27,0,0,1,179,280.29c3.82.11,7.8.68,10.89,2.92" transform="translate(-30.99 -38)"/><path class="cls-2" d="M195.74,275.86c-3.62,2.87-8.79,3.27-13.17,1.82s-8.06-4.57-11-8.11a42,42,0,0,1-7.78-14.15,15,15,0,0,1-.87-6.29,6.59,6.59,0,0,1,3.34-5.15c2.83-1.37,6.17.13,8.89,1.73a105.46,105.46,0,0,1,13.62,9.56c3.45,2.84,6.83,6.08,8.3,10.3s1.15,8.55-1.81,10.67" transform="translate(-30.99 -38)"/><path class="cls-2" d="M249,284.83a9.13,9.13,0,0,1-1.79.19l-4.87.33a70.61,70.61,0,0,0-7.15.87,56.21,56.21,0,0,0-8.48,2.33,31.23,31.23,0,0,0-7.74,4.06,16.07,16.07,0,0,0-4.67,5.29,15.17,15.17,0,0,0-1.57,4.53,7.72,7.72,0,0,1-.31,1.76,9.15,9.15,0,0,1,0-1.8,13.78,13.78,0,0,1,1.39-4.73,16,16,0,0,1,4.72-5.58,30.34,30.34,0,0,1,7.89-4.22,51.33,51.33,0,0,1,8.62-2.3,60,60,0,0,1,7.24-.73c2.07-.09,3.74-.1,4.89-.09A8.53,8.53,0,0,1,249,284.83Z" transform="translate(-30.99 -38)"/><path class="cls-3" d="M245.2,285.05a3.32,3.32,0,0,1-.83,0L242,285c-2-.06-5-.15-8.67-.16-7.33,0-15.22.35-26.37,1.23-10.48.84-22.68,2-30.63,3.4-1.81.3-3.44.6-4.86.89s-2.66.51-3.66.74l-2.31.48a4.06,4.06,0,0,1-.82.12,3.85,3.85,0,0,1,.78-.26l2.28-.62c1-.27,2.22-.55,3.64-.86s3.05-.67,4.86-1a270.1,270.1,0,0,1,28.44-3.69c11.16-.88,21.32-1.12,28.66-.94,3.67.06,6.63.23,8.68.39l2.35.21A3.21,3.21,0,0,1,245.2,285.05Z" transform="translate(-30.99 -38)"/><path class="cls-3" d="M223.78,282.51a15.32,15.32,0,0,1-2.47-.09c-1.58-.14-3.86-.43-6.65-1A87.93,87.93,0,0,1,205,279a80.24,80.24,0,0,1-11.39-4.42,61.42,61.42,0,0,1-18.24-12.52,30.52,30.52,0,0,1-2.53-2.89c-.35-.44-.7-.84-1-1.23l-.72-1.12a14.7,14.7,0,0,1-1.26-2.11c.16-.12,1.87,3,5.86,7a64.73,64.73,0,0,0,18.18,12.21,90.58,90.58,0,0,0,11.29,4.44,98.15,98.15,0,0,0,9.56,2.61c2.76.59,5,1,6.59,1.18A16.81,16.81,0,0,1,223.78,282.51Z" transform="translate(-30.99 -38)"/><path class="cls-3" d="M947.9,374.75a8.93,8.93,0,0,0-.37,1.86q-.3,2-.79,5.36c-.31,2.34-.71,5.19-1.28,8.48s-1.09,7.06-1.93,11.18c-1.49,8.28-3.64,18.06-6.38,28.83s-6.32,22.47-10.58,34.56-9,23.38-13.6,33.5-9.17,19-13.23,26.4c-2,3.73-3.92,7-5.56,9.89s-3.12,5.38-4.35,7.39l-2.78,4.66a9.57,9.57,0,0,0-.88,1.67,9.88,9.88,0,0,0,1.12-1.52l3-4.52c1.3-2,2.86-4.39,4.56-7.28s3.74-6.11,5.75-9.81c4.18-7.32,8.8-16.25,13.54-26.34s9.4-21.45,13.74-33.57,7.74-23.91,10.51-34.71,4.74-20.65,6.11-29c.78-4.15,1.25-7.93,1.73-11.25s.82-6.17,1-8.52.39-4,.53-5.4A10,10,0,0,0,947.9,374.75Z" transform="translate(-30.99 -38)"/><path class="cls-2" d="M935.31,433.38a31.43,31.43,0,0,0-4.82-20.68c-1.34-2.07-3.29-4.15-5.76-4.13-3.28,0-5.27,3.69-5.83,6.93a23.25,23.25,0,0,0,3.1,15.92c2.91,4.71,6.19,7.82,11.48,9.43" transform="translate(-30.99 -38)"/><path class="cls-2" d="M923.41,472.64c1.55-8.41.6-21.87-3.42-29.43a10.06,10.06,0,0,0-2.41-3.24,4.18,4.18,0,0,0-3.79-.88c-1.84.62-2.68,2.72-3.11,4.61a33.36,33.36,0,0,0,11.74,33.08" transform="translate(-30.99 -38)"/><path class="cls-2" d="M908.58,507.06a48.4,48.4,0,0,0-5.81-24.69c-1-1.76-2.2-3.61-4.14-4.13-2.94-.78-5.73,1.95-6.79,4.8-2.17,5.88,0,12.44,2.8,18,3,6,10,13,10,13" transform="translate(-30.99 -38)"/><path class="cls-2" d="M897,529.67c-.61-6.81-2.15-13.67-5.62-19.56a9.73,9.73,0,0,0-2.87-3.36,4.1,4.1,0,0,0-4.22-.32c-2.06,1.21-2,4.18-1.55,6.52,1.69,8.09,5.25,15.29,11.33,20.89" transform="translate(-30.99 -38)"/><path class="cls-2" d="M905.23,518.45A150,150,0,0,1,931,509c1.38-.37,3-.66,4.08.32a2.87,2.87,0,0,1,.49,3.09,7.27,7.27,0,0,1-2,2.59c-8.13,7.38-20.46,10.35-31.24,8.26" transform="translate(-30.99 -38)"/><path class="cls-2" d="M918.76,488.33l21.5-10.2a18.29,18.29,0,0,1,6.41-2.12c2.26-.15,4.74.71,5.85,2.68a6.09,6.09,0,0,1-.72,6.38,16.09,16.09,0,0,1-5.24,4.21c-4.66,2.68-9.62,5-14.93,5.87s-9.8.94-14.27-2" transform="translate(-30.99 -38)"/><path class="cls-2" d="M932.72,453.81a52.68,52.68,0,0,1,23.46-14.14,8.94,8.94,0,0,1,4.57-.4c3,.76,4.54,4.29,4.18,7.35a12.46,12.46,0,0,1-5.5,8.45,26.39,26.39,0,0,1-9.62,3.76,60.94,60.94,0,0,1-19,1" transform="translate(-30.99 -38)"/><path class="cls-2" d="M940.61,421.81c5.87-9,14.68-14.68,24.18-19.74,2-1.07,4.54-2,6.42-.74a4.35,4.35,0,0,1,1.7,3.79,10.27,10.27,0,0,1-1.28,4.11,32.94,32.94,0,0,1-31.89,17.49" transform="translate(-30.99 -38)"/><path class="cls-2" d="M943.21,405.24c2.82-4.73,5.66-9.5,7.54-14.68s2.78-10.84,1.6-16.22a12.62,12.62,0,0,0-3.09-6.29A6.9,6.9,0,0,0,942.8,366a7.32,7.32,0,0,0-4.61,4.37A18.72,18.72,0,0,0,937,376.8c-.49,10.46,1,23,6.18,28.44" transform="translate(-30.99 -38)"/><path class="cls-2" d="M991.14,558.37c8.37,1.47,15.75,6.45,21.57,12.63,3.14,3.32,6,7.23,6.44,11.78s-2.75,9.63-7.31,9.81c-2.71.11-5.19-1.45-7.34-3.12-5.17-4-10.26-9.36-16.82-9.39-3.74,0-7.59,1.75-11.11.47s-5.33-5.29-4.89-8.93,2.77-6.81,5.62-9.12A16.25,16.25,0,0,1,991.14,558.37Z" transform="translate(-30.99 -38)"/><path class="cls-2" d="M997.6,521.33c-.32,8,8.14,11.74,13.89,11.06s10.67-4.26,15.31-7.72c10.61-7.89,21.62-16.27,27.29-28.21,1.69-3.57,2.88-7.52,2.45-11.45s-2.71-7.82-6.36-9.33c-4.33-1.79-9.25,0-13.42,2.16A93,93,0,0,0,1005.31,504c-3.91,5.1-7.38,10.92-7.71,17.33" transform="translate(-30.99 -38)"/><path class="cls-2" d="M981.79,521.18c7.59-1.7,13.6-8,16.33-15.3s2.57-15.38,1.09-23a70.44,70.44,0,0,0-10.27-25.17,24.85,24.85,0,0,0-7.29-7.8c-3-1.89-7-2.62-10.27-1.1-4.8,2.25-6.38,8.22-7.16,13.46a179.08,179.08,0,0,0-2,27.95c.07,7.52.72,15.38,4.69,21.77s10,10.56,15.87,8.94" transform="translate(-30.99 -38)"/><path class="cls-3" d="M937.13,600.27a15.34,15.34,0,0,0,2.14-2.13l5.59-6a116.36,116.36,0,0,1,8.72-8.42,92,92,0,0,1,12-8.63,52.36,52.36,0,0,1,13.51-5.81,27,27,0,0,1,11.87-.51,25.62,25.62,0,0,1,7.57,2.75,14.85,14.85,0,0,0,2.63,1.47,13.42,13.42,0,0,0-2.38-1.88,23.57,23.57,0,0,0-7.65-3.2,27.16,27.16,0,0,0-12.31.26A51.34,51.34,0,0,0,965,574a86,86,0,0,0-12.15,8.83,101.25,101.25,0,0,0-8.63,8.69c-2.31,2.61-4.09,4.78-5.3,6.3A13.33,13.33,0,0,0,937.13,600.27Z" transform="translate(-30.99 -38)"/><path class="cls-3" d="M941.39,595.6a6,6,0,0,0,.9-1.06l2.4-3.16c2.08-2.75,5.11-6.73,9-11.52,7.7-9.62,16.58-19.54,29.54-33.18,12.2-12.82,26.67-27.53,36.92-36.45,2.3-2.05,4.42-3.86,6.31-5.42s3.49-2.94,4.84-4l3.08-2.51a6,6,0,0,0,1-.95,5.78,5.78,0,0,0-1.18.75l-3.22,2.33c-1.41,1-3.07,2.31-5,3.85s-4.11,3.27-6.45,5.29a448.07,448.07,0,0,0-35,33.28c-13,13.67-24.06,26.69-31.61,36.47-3.8,4.87-6.73,8.93-8.69,11.77l-2.21,3.31A5.5,5.5,0,0,0,941.39,595.6Z" transform="translate(-30.99 -38)"/><path class="cls-3" d="M961.39,569.46a26.24,26.24,0,0,0,2.49-3.32c1.49-2.22,3.54-5.51,5.8-9.72a147.8,147.8,0,0,0,7-15.26A133.85,133.85,0,0,0,983,521.58c3.65-14.17,4.18-27.62,3-37.13a51.76,51.76,0,0,0-1.1-6.36c-.21-.93-.35-1.81-.57-2.59s-.48-1.47-.7-2.12a25.82,25.82,0,0,0-1.43-3.9c-.32.1,2,5.63,2.93,15.07s.32,22.68-3.3,36.73a153.32,153.32,0,0,1-6.15,19.47A164.54,164.54,0,0,1,968.9,556c-2.15,4.24-4.06,7.57-5.43,9.86A27.4,27.4,0,0,0,961.39,569.46Z" transform="translate(-30.99 -38)"/><path class="cls-2" d="M910.51,617.86c-3.94-3.15-9.06-4.48-14.11-4.65-2.7-.09-5.6.15-7.77,1.76s-3.21,5-1.5,7.12a7,7,0,0,0,4.27,2c3.83.72,8.21.9,10.8,3.8,1.48,1.66,2.2,4.08,4.16,5.14a5,5,0,0,0,5.89-1.33,8.55,8.55,0,0,0,1.86-6.08A9.69,9.69,0,0,0,910.51,617.86Z" transform="translate(-30.99 -38)"/><path class="cls-2" d="M924.47,600.43c-3.45,3.3-8.43,1-10.38-1.84s-2.3-6.43-2.58-9.86c-.65-7.83-1.25-16,1.84-23.24a13,13,0,0,1,4.14-5.6,6.74,6.74,0,0,1,6.66-.83c2.49,1.23,3.61,4.14,4.31,6.83a55.18,55.18,0,0,1,.7,24.29c-.73,3.75-2,7.58-4.69,10.25" transform="translate(-30.99 -38)"/><path class="cls-2" d="M930.75,607.41c-2.22-4-1.77-9.21.4-13.29s5.84-7.18,9.83-9.52a41.82,41.82,0,0,1,15.24-5.32,14.88,14.88,0,0,1,6.34.18,6.59,6.59,0,0,1,4.53,4.15c.89,3-1.15,6.07-3.18,8.48a107.21,107.21,0,0,1-11.69,11.85c-3.38,2.92-7.13,5.72-11.54,6.47s-8.62-.29-10.22-3.56" transform="translate(-30.99 -38)"/><path class="cls-2" d="M913.07,658.39a8.3,8.3,0,0,1,.11-1.79q.2-2,.48-4.86a68.86,68.86,0,0,0,.33-7.2,54.89,54.89,0,0,0-.89-8.75,30.89,30.89,0,0,0-2.72-8.3,16,16,0,0,0-4.44-5.49,15.29,15.29,0,0,0-4.2-2.29,9.16,9.16,0,0,1-1.69-.6,8.5,8.5,0,0,1,1.78.33,13.79,13.79,0,0,1,4.43,2.15,16,16,0,0,1,4.72,5.58,30.29,30.29,0,0,1,2.84,8.49,50.83,50.83,0,0,1,.85,8.88,59.27,59.27,0,0,1-.49,7.26c-.25,2.05-.52,3.7-.72,4.84A8.16,8.16,0,0,1,913.07,658.39Z" transform="translate(-30.99 -38)"/><path class="cls-3" d="M913.47,654.66a4.15,4.15,0,0,1,.12-.82c.12-.61.28-1.37.47-2.31.41-2,1-4.92,1.6-8.53,1.26-7.22,2.18-15.07,3.17-26.2.92-10.48,1.78-22.7,1.73-30.78,0-1.83,0-3.48-.07-4.94s0-2.71-.12-3.73-.06-1.74-.09-2.36a4.16,4.16,0,0,1,0-.83,3.21,3.21,0,0,1,.13.82c.06.62.14,1.4.23,2.35s.17,2.28.24,3.74.16,3.11.18,4.95A270.23,270.23,0,0,1,920,614.68c-1,11.15-2.44,21.2-3.83,28.41-.68,3.61-1.34,6.51-1.83,8.5l-.61,2.29A2.73,2.73,0,0,1,913.47,654.66Z" transform="translate(-30.99 -38)"/><path class="cls-3" d="M919.54,634a15.67,15.67,0,0,1,.5-2.42c.4-1.53,1.06-3.74,2.05-6.4a87.2,87.2,0,0,1,4-9.12,79.78,79.78,0,0,1,6.25-10.5,61.29,61.29,0,0,1,15.38-15.91,29.09,29.09,0,0,1,3.27-2c.49-.28.94-.56,1.37-.77l1.22-.52a18.1,18.1,0,0,1,2.3-.9c.08.18-3.27,1.35-7.87,4.62A65.09,65.09,0,0,0,933,605.94a92.53,92.53,0,0,0-6.25,10.39,98.32,98.32,0,0,0-4.16,9c-1,2.62-1.77,4.79-2.26,6.29A15.86,15.86,0,0,1,919.54,634Z" transform="translate(-30.99 -38)"/><path class="cls-3" d="M132.87,144.91a9.18,9.18,0,0,0,1.83.5l5.3,1.15c2.3.46,5.12,1.06,8.37,1.85s7,1.57,11,2.69c8.16,2,17.78,4.85,28.33,8.32s22,7.83,33.77,12.9,22.7,10.59,32.49,15.85,18.37,10.44,25.44,15c3.59,2.19,6.7,4.37,9.49,6.21s5.16,3.48,7.08,4.85l4.45,3.08a9.65,9.65,0,0,0,1.62,1,9.2,9.2,0,0,0-1.45-1.22l-4.31-3.3c-1.87-1.44-4.18-3.15-6.94-5s-5.84-4.14-9.4-6.4c-7-4.67-15.61-9.88-25.36-15.3s-20.76-10.84-32.56-16-23.33-9.35-33.91-12.85-20.29-6.13-28.5-8.06c-4.08-1.06-7.82-1.78-11.1-2.49s-6.1-1.24-8.43-1.63l-5.35-.89A9.41,9.41,0,0,0,132.87,144.91Z" transform="translate(-30.99 -38)"/><path class="cls-2" d="M190.51,161.45a31.52,31.52,0,0,0-21,3.4c-2.15,1.21-4.37,3-4.51,5.47-.19,3.28,3.32,5.52,6.52,6.29a23.21,23.21,0,0,0,16.09-2c4.89-2.58,8.22-5.64,10.19-10.81" transform="translate(-30.99 -38)"/><path class="cls-2" d="M228.87,176c-8.29-2.12-21.78-2.09-29.6,1.41a10.17,10.17,0,0,0-3.39,2.18,4.13,4.13,0,0,0-1.13,3.72c.49,1.88,2.53,2.86,4.38,3.42a33.37,33.37,0,0,0,33.8-9.47" transform="translate(-30.99 -38)"/><path class="cls-2" d="M262.2,193.13a48.41,48.41,0,0,0-25,4.12c-1.82.83-3.75,1.95-4.39,3.85-1,2.88,1.54,5.85,4.32,7.1,5.72,2.56,12.41.84,18.2-1.57,6.23-2.6,13.67-9.1,13.67-9.1" transform="translate(-30.99 -38)"/><path class="cls-2" d="M284,206.19c-6.84.15-13.78,1.21-19.9,4.28a9.74,9.74,0,0,0-3.54,2.64,4.1,4.1,0,0,0-.61,4.18c1.07,2.14,4,2.32,6.4,2,8.19-1.14,15.61-4.2,21.62-9.89" transform="translate(-30.99 -38)"/><path class="cls-2" d="M273.34,197.25a148.92,148.92,0,0,1-7.73-26.31c-.28-1.4-.45-3.08.6-4.05a2.87,2.87,0,0,1,3.11-.28,7.23,7.23,0,0,1,2.44,2.2c6.82,8.61,8.94,21.12,6.13,31.74" transform="translate(-30.99 -38)"/><path class="cls-2" d="M244.2,181.7l-8.71-22.14a18.43,18.43,0,0,1-1.68-6.54c0-2.26,1-4.68,3.07-5.66a6.11,6.11,0,0,1,6.31,1.15A15.89,15.89,0,0,1,247,154c2.36,4.83,4.34,9.94,4.85,15.3s.27,9.83-3,14.09" transform="translate(-30.99 -38)"/><path class="cls-2" d="M210.72,165.42a52.53,52.53,0,0,1-12.52-24.36,8.79,8.79,0,0,1-.08-4.58c1-2.93,4.59-4.25,7.61-3.68a12.5,12.5,0,0,1,8.06,6.07,26.39,26.39,0,0,1,3.09,9.85,60.69,60.69,0,0,1-.26,19.07" transform="translate(-30.99 -38)"/><path class="cls-2" d="M179.32,155.38c-8.6-6.47-13.65-15.64-18-25.47-.93-2.07-1.69-4.66-.3-6.45a4.37,4.37,0,0,1,3.9-1.44,10.3,10.3,0,0,1,4,1.56,33,33,0,0,1,15.29,33" transform="translate(-30.99 -38)"/><path class="cls-2" d="M163,151.66a87.23,87.23,0,0,0-14.13-8.52c-5-2.23-10.63-3.51-16.08-2.7a12.65,12.65,0,0,0-6.48,2.66,6.91,6.91,0,0,0-2.5,6.3,7.33,7.33,0,0,0,4,4.9,18.61,18.61,0,0,0,6.34,1.59c10.41,1.2,23,.56,28.8-4.23" transform="translate(-30.99 -38)"/><path class="cls-3" d="M241.11,44.13a9.81,9.81,0,0,0,.88,1.68l2.75,4.67c1.21,2,2.69,4.49,4.31,7.41s3.57,6.19,5.5,9.93c4,7.38,8.48,16.36,13.08,26.47s9.15,21.47,13.4,33.57,7.62,23.86,10.39,34.63,4.77,20.58,6.21,28.86c.82,4.13,1.33,7.9,1.87,11.2s.94,6.15,1.23,8.48.57,4,.76,5.37a9.49,9.49,0,0,0,.36,1.86,10.35,10.35,0,0,0-.08-1.89c-.13-1.37-.29-3.17-.5-5.4s-.52-5.22-1-8.53-.91-7.11-1.66-11.25c-1.33-8.33-3.32-18.18-5.95-29s-6.1-22.6-10.31-34.77-9-23.49-13.55-33.64-9.24-19.07-13.39-26.41c-2-3.72-4-7-5.69-9.85s-3.23-5.33-4.52-7.3l-3-4.54A9.73,9.73,0,0,0,241.11,44.13Z" transform="translate(-30.99 -38)"/><path class="cls-2" d="M268,97.72a31.51,31.51,0,0,0-16.71-13.11c-2.35-.77-5.17-1.17-7.08.39-2.54,2.08-1.8,6.19-.2,9.06a23.25,23.25,0,0,0,12.39,10.47c5.2,1.84,9.72,2.22,14.85.16" transform="translate(-30.99 -38)"/><path class="cls-2" d="M283.34,135.78c-4.06-7.54-13.24-17.43-21.1-20.81a10.11,10.11,0,0,0-3.9-1,4.13,4.13,0,0,0-3.51,1.69c-1.05,1.63-.39,3.79.46,5.54a33.34,33.34,0,0,0,29.87,18.42" transform="translate(-30.99 -38)"/><path class="cls-2" d="M293.34,171.89a48.55,48.55,0,0,0-20-15.61c-1.85-.77-4-1.43-5.82-.62-2.78,1.23-3.25,5.11-2.28,8,2,5.95,7.8,9.7,13.49,12.32,6.13,2.82,15.95,3.88,15.95,3.88" transform="translate(-30.99 -38)"/><path class="cls-2" d="M298.5,196.75c-4.75-4.93-10.24-9.31-16.64-11.73a9.75,9.75,0,0,0-4.34-.81A4.1,4.1,0,0,0,274,186.6c-.85,2.23,1,4.53,2.88,6.05,6.39,5.25,13.67,8.63,21.92,9.19" transform="translate(-30.99 -38)"/><path class="cls-2" d="M297.86,182.87A149.76,149.76,0,0,1,312,159.35c.84-1.15,2-2.41,3.38-2.3a2.86,2.86,0,0,1,2.32,2.1,7.3,7.3,0,0,1,0,3.29c-1.71,10.85-9.47,20.89-19.18,26" transform="translate(-30.99 -38)"/><path class="cls-2" d="M289.54,150.91l10.37-21.42a18.46,18.46,0,0,1,3.67-5.66c1.67-1.53,4.14-2.41,6.24-1.58a6.08,6.08,0,0,1,3.43,5.43,16,16,0,0,1-1.44,6.56c-1.95,5-4.37,9.93-8,13.93s-7.05,6.87-12.4,7.35" transform="translate(-30.99 -38)"/><path class="cls-2" d="M278.81,115.26a52.56,52.56,0,0,1,9.43-25.72,8.87,8.87,0,0,1,3.3-3.17c2.81-1.27,6.24.5,7.87,3.11a12.46,12.46,0,0,1,1,10,26.47,26.47,0,0,1-5.14,9,61.12,61.12,0,0,1-14.2,12.74" transform="translate(-30.99 -38)"/><path class="cls-2" d="M264.91,85.37c-1.08-10.71,2.25-20.64,6.48-30.53.89-2.09,2.28-4.41,4.54-4.6a4.36,4.36,0,0,1,3.7,1.89,10.31,10.31,0,0,1,1.58,4,33,33,0,0,1-13.9,33.61" transform="translate(-30.99 -38)"/><path class="cls-2" d="M256.56,70.83a88.46,88.46,0,0,0-3.32-16.16c-1.77-5.22-4.63-10.19-8.92-13.65a12.61,12.61,0,0,0-6.34-3,6.93,6.93,0,0,0-6.33,2.44,7.29,7.29,0,0,0-.85,6.29,18.32,18.32,0,0,0,3.13,5.75c6.17,8.46,15.19,17.31,22.63,18.3" transform="translate(-30.99 -38)"/><path class="cls-4" d="M781.07,696.66c16-10.52,45-30.21,48.95-60.13,3.91-29.5-20.54-38.68-23.14-71.65-3.51-44.43,38.71-55.37,49.84-107.07,11.23-52.25-19.49-98.72-29.37-113.67-31-46.86-62-46-127.27-95.54-84.08-63.78-8.31-107.06-70.3-143.78S411.5,63.66,343.19,101.17c-42.09,23.12-24.61,42.84-100.57,131-55.22,64.07-80.69,72.47-94.34,117.78-3.52,11.71-20.93,69.48,10.68,113.66,27.84,38.9,67.62,30.85,81.88,65.07,14.89,35.71-22.17,59.56-15.13,100.48,7.82,45.42,63.19,72.48,101.46,90.6C504.49,803.66,703.1,748.05,781.07,696.66Z" transform="translate(-30.99 -38)"/><ellipse class="cls-5" cx="498.7" cy="705.03" rx="451.27" ry="70.13"/><polygon class="cls-6" points="246.12 506.08 302.86 705.68 295.46 705.68 238.76 506.53 246.12 506.08"/><polygon class="cls-6" points="160.46 506.08 217.2 705.68 209.8 705.68 153.1 506.53 160.46 506.08"/><polygon class="cls-7" points="161.91 537.45 168.95 535.93 159.77 503.85 157.26 521.15 161.91 537.45"/><polygon class="cls-8" points="247.28 536.07 254.32 534.55 245.15 502.47 242.64 519.77 247.28 536.07"/><polygon class="cls-9" points="160 506.36 155.95 529.28 114.14 717.95 105.37 717.73 136.21 530.39 139.47 506.36 160 506.36"/><path class="cls-9" d="M241.34,757.06H232.7l19.23-190.92c.26-2.6.92-5.69,1.36-8.27l2.89-18.45,19.74,5.11-3.84,22.85Z" transform="translate(-30.99 -38)"/><polygon class="cls-8" points="135.1 539.53 153.48 540.43 160.17 506.36 139.91 505.86 135.1 539.53"/><polygon class="cls-8" points="239.56 538.26 220.21 537.3 225.08 501.39 244.67 505.95 239.56 538.26"/><rect class="cls-9" x="126.46" y="483.03" width="125.62" height="23.52"/><rect class="cls-9" x="119.19" y="657.5" width="98.55" height="7.06"/><rect class="cls-9" x="125.35" y="605.09" width="98.55" height="7.06"/><rect class="cls-9" x="136.45" y="550.45" width="98.55" height="7.06"/><path class="cls-10" d="M232.86,628.55c-3.29.5-92.31-15.26-95.32-18-1.15-1,.41-14.26,2.75-30.18.5-3.43,1.05-7,1.62-10.58,3.67-23.36,24.54-42,24.54-42l43.15,4.27-9.76,47.79-2.13,10.49s31.36,21.41,34.33,24.8S236.16,628.05,232.86,628.55Z" transform="translate(-30.99 -38)"/><path class="cls-11" d="M232.86,628.55c-3.29.5-92.31-15.26-95.32-18-1.39-1.28,1.2-20.52,4.37-40.76l57.93,10.09-2.13,10.49s31.36,21.41,34.33,24.8S236.16,628.05,232.86,628.55Z" transform="translate(-30.99 -38)"/><path class="cls-12" d="M232.86,628.55c-3.29.5-92.83-16.62-95.84-19.38-1.15-1,.93-12.9,3.27-28.82l57.42,10s31.36,21.41,34.33,24.8S236.16,628.05,232.86,628.55Z" transform="translate(-30.99 -38)"/><path class="cls-13" d="M232.22,624.74c-14.86-3-75.06-13.75-90-15.59-.12,0-.13.07,0,.1,14.66,3.31,75,13.55,90,15.73C232.49,625,232.53,624.8,232.22,624.74Z" transform="translate(-30.99 -38)"/><path class="cls-11" d="M226.89,610.91a12.12,12.12,0,0,0-9.58,2.1,12,12,0,0,0-4.76,7.44c0,.09.15.13.18,0,1.9-5.75,8.13-10,14.13-9.39A.1.1,0,0,0,226.89,610.91Z" transform="translate(-30.99 -38)"/><path class="cls-11" d="M203.23,592.87c-5.95-1.14-13.26-.24-17.84,4-.18.17.06.42.25.36a82.92,82.92,0,0,1,17.56-3.63A.38.38,0,0,0,203.23,592.87Z" transform="translate(-30.99 -38)"/><path class="cls-11" d="M207.52,595.5c-6-1.14-13.26-.24-17.84,4-.18.17.06.42.25.36a82.92,82.92,0,0,1,17.56-3.63A.38.38,0,0,0,207.52,595.5Z" transform="translate(-30.99 -38)"/><path class="cls-11" d="M211.81,598.13c-6-1.14-13.26-.24-17.84,4-.18.17.06.42.25.36a82.92,82.92,0,0,1,17.56-3.63A.38.38,0,0,0,211.81,598.13Z" transform="translate(-30.99 -38)"/><path class="cls-11" d="M216.1,600.76c-6-1.14-13.26-.24-17.84,4-.18.17.05.42.25.36a82.79,82.79,0,0,1,17.56-3.63A.38.38,0,0,0,216.1,600.76Z" transform="translate(-30.99 -38)"/><path class="cls-13" d="M143.18,591.65" transform="translate(-30.99 -38)"/><path class="cls-13" d="M163.75,592.42" transform="translate(-30.99 -38)"/><path class="cls-11" d="M136.77,610.1s-1.78-4.48.72-13.83c0,0,62.62,21.86,97.89,27.35,0,0,.22,3.06-1.25,4.67S157.33,615.64,136.77,610.1Z" transform="translate(-30.99 -38)"/><path class="cls-11" d="M226.77,611.28s-10,.31-11.34,9l-2.37-.63S216.58,608.54,226.77,611.28Z" transform="translate(-30.99 -38)"/><path class="cls-10" d="M291.8,693.14c-3.15,1.1-93.54,2.06-97-.1-1.32-.81-2.23-14.09-2.87-30.16-.14-3.47-.27-7.06-.37-10.7-.71-23.64-.91-48.74-.91-48.74l60.46-.82-.75,48.76-.16,10.71s34.78,15.25,38.33,18S295,692,291.8,693.14Z" transform="translate(-30.99 -38)"/><path class="cls-11" d="M291.8,693.14c-3.15,1.1-93.54,2.06-97-.1-1.61-1-2.61-20.39-3.24-40.86l58.8-.8-.16,10.71s34.78,15.25,38.33,18S295,692,291.8,693.14Z" transform="translate(-30.99 -38)"/><path class="cls-12" d="M291.8,693.14c-3.15,1.1-94.3.82-97.77-1.34-1.32-.81-1.47-12.85-2.11-28.92l58.27-.79s34.78,15.25,38.33,18S295,692,291.8,693.14Z" transform="translate(-30.99 -38)"/><path class="cls-13" d="M290.47,689.5c-15.16-.21-76.31.37-91.31,1.32-.12,0-.12.1,0,.1,15,.54,76.16-.54,91.31-1.17C290.79,689.74,290.79,689.51,290.47,689.5Z" transform="translate(-30.99 -38)"/><path class="cls-11" d="M282.67,676.9a12.1,12.1,0,0,0-9,3.83,12,12,0,0,0-3.3,8.2c0,.09.17.09.18,0,.8-6,6.14-11.31,12.15-11.84A.1.1,0,0,0,282.67,676.9Z" transform="translate(-30.99 -38)"/><path class="cls-11" d="M256.09,663.55c-6.07,0-13.08,2.21-16.79,7.26-.15.19.13.4.31.3a83.3,83.3,0,0,1,16.59-6.81A.38.38,0,0,0,256.09,663.55Z" transform="translate(-30.99 -38)"/><path class="cls-11" d="M260.79,665.34c-6.07,0-13.08,2.21-16.79,7.26-.15.19.13.4.31.3a83.3,83.3,0,0,1,16.59-6.81A.38.38,0,0,0,260.79,665.34Z" transform="translate(-30.99 -38)"/><path class="cls-11" d="M265.49,667.13c-6.07,0-13.07,2.21-16.79,7.26-.14.2.13.4.31.3a83.3,83.3,0,0,1,16.59-6.81A.38.38,0,0,0,265.49,667.13Z" transform="translate(-30.99 -38)"/><path class="cls-11" d="M270.19,668.92c-6.06,0-13.07,2.22-16.79,7.26-.14.2.13.4.31.3a83.79,83.79,0,0,1,16.59-6.81A.38.38,0,0,0,270.19,668.92Z" transform="translate(-30.99 -38)"/><path class="cls-13" d="M196.85,673.45" transform="translate(-30.99 -38)"/><path class="cls-13" d="M217.21,670.4" transform="translate(-30.99 -38)"/><path class="cls-11" d="M194,692.77s-2.58-4.08-1.85-13.73c0,0,65.57,9.91,101.25,8.78,0,0,.79,3-.37,4.82S215.19,694.41,194,692.77Z" transform="translate(-30.99 -38)"/><path class="cls-11" d="M282.62,677.29s-9.78,2.16-9.48,10.91l-2.45-.19S272.11,676.48,282.62,677.29Z" transform="translate(-30.99 -38)"/><path class="cls-14" d="M164.52,316s-13.77,14.23-9.79,26.46c0,0,65.89,13.2,83.31,5.46s-24.19-25.15-24.19-25.15l-29-21.28Z" transform="translate(-30.99 -38)"/><path class="cls-14" d="M214.08,246.1s-19.33-3.68-23.93,14.73-25.78,55.24-25.78,55.24l23-18.42" transform="translate(-30.99 -38)"/><path class="cls-14" d="M211.32,247s12-3.68,18.41,1.84,12.25,18.85,8.89,41.65" transform="translate(-30.99 -38)"/><path class="cls-14" d="M232.43,260.45s4.67,29.84,19.4,47.33,8.39,34.63,8.39,34.63l-1.1-1.12s5.59-16-8.21-32.59-17.73-42.85-17.73-42.85" transform="translate(-30.99 -38)"/><polygon class="cls-14" points="163.76 228.35 150.87 270.7 208.87 282.67 209.79 260.57 207.03 242.16 202.43 219.15 192.3 213.63 185.85 210.86 164.68 222.83 163.76 228.35"/><path class="cls-10" d="M209.34,315.64c-3.8-.49-10.43-8.91-12.45-15.39-.14-.45,1.32-4.55,2.86-9.61.92-3.08,1.87-6.53,2.51-9.74l19.15,8.92A52.58,52.58,0,0,0,217,301.76a7.06,7.06,0,0,0-.13,1.34,1.77,1.77,0,0,1,0,.22C216.77,305.91,215.3,316.41,209.34,315.64Z" transform="translate(-30.99 -38)"/><path class="cls-15" d="M216.87,303.1a1.55,1.55,0,0,0,0,.23,13.34,13.34,0,0,1-2.1-.31c-11.61-2.59-11.63-17.53-11.42-21.6l18.08,8.4A52.42,52.42,0,0,0,217,301.75,9.59,9.59,0,0,0,216.87,303.1Z" transform="translate(-30.99 -38)"/><path class="cls-10" d="M200.57,259.3c-2.42,7.22.85,28.34,5.9,33.17,7.31,7,19.58,8,25.6-.88,5.83-8.59,1.08-36-4.58-40.46C219.14,244.63,204.14,248.64,200.57,259.3Z" transform="translate(-30.99 -38)"/><path class="cls-13" d="M219.48,272.53s-.1.09-.09.15c.32,1.4.45,3.06-.73,3.78,0,0,0,.09,0,.08C220.2,276,220,273.81,219.48,272.53Z" transform="translate(-30.99 -38)"/><path class="cls-13" d="M217.93,271.3c-2.31.27-1.6,4.86.54,4.61S219.86,271.07,217.93,271.3Z" transform="translate(-30.99 -38)"/><path class="cls-13" d="M227.43,271s.12.05.13.11c.18,1.43.62,3,2,3.31,0,0,.05.08,0,.08C227.93,274.56,227.37,272.42,227.43,271Z" transform="translate(-30.99 -38)"/><path class="cls-13" d="M228.47,269.35c2.26-.53,3.15,4,1.06,4.52S226.58,269.79,228.47,269.35Z" transform="translate(-30.99 -38)"/><path class="cls-10" d="M204.59,276.55c.15-.05-4.26-7-7.8-5.16-3.13,1.62.41,11.56,4,12.93a3.68,3.68,0,0,0,4.95-1.94Z" transform="translate(-30.99 -38)"/><path class="cls-15" d="M197.87,273.28c-.06,0-.07.08,0,.1,2.53,1,3.85,3.41,4.77,5.86a2,2,0,0,0-3-.58c-.07,0,0,.15.07.13a2.28,2.28,0,0,1,2.49.81,11.38,11.38,0,0,1,1.17,2c.12.23.53.11.45-.15a.14.14,0,0,1,0-.06C203.83,278.18,201.34,273.63,197.87,273.28Z" transform="translate(-30.99 -38)"/><path class="cls-10" d="M230.83,289a2,2,0,0,0-2-2.09H224.8c-2.94,0-8.4.81-8.52,1.42-.32,1.53-.32,7.42,11.47,4.47A4.35,4.35,0,0,0,230.83,289Z" transform="translate(-30.99 -38)"/><path class="cls-13" d="M226.72,287.05s-3.79,2.43-7.76.55C219,287.6,223.2,292.41,226.72,287.05Z" transform="translate(-30.99 -38)"/><path class="cls-14" d="M200.6,272.09l4.28,4.39S202.35,258,215,253.93a9.28,9.28,0,0,0,3.7-2.3h0a21.66,21.66,0,0,0,6.3,4.45A16.76,16.76,0,0,1,234,267c2.94,11.57,6.61,32.63.69,50.86l15.73,13.24,6.79,5.73s-2.66-20.75-10.95-33.64c-4.18-6.52-8.77-29.22-9.75-39.07a21.1,21.1,0,0,0-6.43-13.39,18.11,18.11,0,0,0-16-4.62s-23,0-23,23-27,47.12-27,47.12,19-12.05,29-15.78c0,0,3.19-.61,4.28-2.17s3.86-13.52,3.86-13.52a14.16,14.16,0,0,1-5.6-11.16s.18-3.29,3.06-2.49A4.56,4.56,0,0,1,200.6,272.09Z" transform="translate(-30.99 -38)"/><path class="cls-16" d="M231.57,258.07" transform="translate(-30.99 -38)"/><path class="cls-17" d="M218,298a29,29,0,0,0-1.22,6.6s19.5,14.43,23.59,18c0,0-10.82-17.57-6.59-35.07C233.78,287.53,232.05,298.29,218,298Z" transform="translate(-30.99 -38)"/><path class="cls-18" d="M219.38,267.39a2,2,0,0,1,.9,2.69s-5.39-1.79-8.08.9l-1.8.9a10.15,10.15,0,0,1,4.49-3.59A15.66,15.66,0,0,1,219.38,267.39Z" transform="translate(-30.99 -38)"/><path class="cls-18" d="M225.63,266.52a1.57,1.57,0,0,0,.09,2.27s3.52-2.86,6.3-1.61l1.59.17a8,8,0,0,0-4.37-1.42A12.4,12.4,0,0,0,225.63,266.52Z" transform="translate(-30.99 -38)"/><path class="cls-18" d="M224.21,274.64s2.76,3.68,2.76,6.44-4.6,1.85-4.6,1.85,4.6,0,3.68-2.77Z" transform="translate(-30.99 -38)"/><path class="cls-14" d="M218.69,251.63a55.31,55.31,0,0,1-10.13,9.2c-5.52,3.68-3.74,15.09-3.74,15.09l-1.53-19.4Z" transform="translate(-30.99 -38)"/><path class="cls-17" d="M195.6,274.64s1.61,19.91-15.08,31.9c0,0,10.55-4.66,16.21-6.4l4.71-15.62S196.73,282.73,195.6,274.64Z" transform="translate(-30.99 -38)"/><path class="cls-13" d="M216.93,271.7c-.33.22-.65.61-1.05.65s-.82-.34-1.13-.72c0,0-.06,0-.06,0,0,.73.28,1.48,1.07,1.57s1.21-.56,1.39-1.29C217.18,271.81,217.06,271.62,216.93,271.7Z" transform="translate(-30.99 -38)"/><path class="cls-13" d="M229.42,269.77c.33.22.65.6,1.05.65s.82-.35,1.13-.73c0,0,.06,0,.06.05,0,.73-.28,1.47-1.07,1.57s-1.21-.56-1.39-1.29C229.17,269.88,229.29,269.68,229.42,269.77Z" transform="translate(-30.99 -38)"/><path class="cls-19" d="M416.13,488.49c0,.12,0,.24,0,.37l29.66-.25A25.29,25.29,0,0,0,470.74,463l-.32-36.89a36.51,36.51,0,1,0-.52-59.88l-.31-36.13A25.29,25.29,0,0,0,444.2,304.9l-131.67,1.15a25.29,25.29,0,0,0-24.95,25.62l1.16,132.89a25.29,25.29,0,0,0,25.38,25.19l29.67-.26c0-.13,0-.25,0-.38a36.18,36.18,0,1,1,72.35-.62Z" transform="translate(-30.99 -38)"/><path class="cls-20" d="M416.8,480.92a2.41,2.41,0,0,1,0,.38l29.67-.26a25.29,25.29,0,0,0,24.94-25.62l-.32-36.89a36.51,36.51,0,1,0-.52-59.88l-.31-36.13a25.29,25.29,0,0,0-25.39-25.18L313.2,298.48a25.3,25.3,0,0,0-24.95,25.62L289.41,457a25.29,25.29,0,0,0,25.38,25.18l29.67-.26c0-.13,0-.25,0-.37a36.18,36.18,0,1,1,72.35-.63Z" transform="translate(-30.99 -38)"/><path class="cls-21" d="M140.49,562.39l61.08,7.05s64.82-99.62,58.3-134.06c-3.59-18.94-68-48.69-68-48.69l-6.52-13.1H139.92s-18.53,27.3-5.23,53c9,17.43,58.69,30.72,60.52,36.32C197.62,470.25,140.49,562.39,140.49,562.39Z" transform="translate(-30.99 -38)"/><path class="cls-13" d="M196.32,553.45c5.4-8.25,34.44-60.72,38.78-69.55,2.17-4.41,4.27-8.87,6.16-13.4a118.82,118.82,0,0,0,5-13.81c1.29-4.66,2.49-9.57,1.5-14.2a20.12,20.12,0,0,0-2.76-6.56A29.66,29.66,0,0,0,243,433c-.78-.93-1.55-1.86-2.4-2.73-6.81-7-15.31-12.17-23.86-17s-17.57-8.87-26.51-13c-2.22-1.06-4.45-2.12-6.65-3.25-1.1-.57-2.19-1.16-3.25-1.8a7.29,7.29,0,0,1-2.79-2.5c-2.48-4.34-3.5-9.3-4-14.18.59,4.87,1.74,9.8,4.28,14a6.92,6.92,0,0,0,2.71,2.3c1.06.61,2.16,1.16,3.26,1.7,2.22,1.06,4.47,2.07,6.72,3.07,9,4,18,8,26.75,12.7a139.12,139.12,0,0,1,12.75,7.6,73.88,73.88,0,0,1,11.54,9.44c.88.89,1.68,1.85,2.5,2.81a30.51,30.51,0,0,1,2.18,3.08,20.05,20.05,0,0,1,3.13,14.59c-.23,1.23-.4,2.48-.69,3.69s-.57,2.43-.93,3.62a122.1,122.1,0,0,1-5.15,14c-1.93,4.55-4,9-6.26,13.44C231.89,493.34,201.92,545.34,196.32,553.45Z" transform="translate(-30.99 -38)"/><path class="cls-21" d="M166.27,431.75s24.93,78.57,25.38,93c.38,12.31-1.19,120.93-1.19,120.93l63.1.37s-5.33-111.12-6.31-123.95c-1.85-24-22.86-89.85-37.89-148.52h-68s.59,30.73,14.56,53C155.89,426.54,162.22,429.47,166.27,431.75Z" transform="translate(-30.99 -38)"/><path class="cls-13" d="M207.61,410.61c2.25,7.51,4.15,15.13,6.16,22.7s4,15.27,6.06,22.91c3.89,14.78,7.74,29.58,10.65,44.59a270.07,270.07,0,0,1,5.05,45.71c.33,15.64,0,31.3-.1,47s-.24,13.75-.51,29.47q0,2.94-.15,5.87a.15.15,0,0,1-.29,0c-.42-15.64-.2-13.61-.15-29.26s.26-31.3.13-46.95a282.27,282.27,0,0,0-4-46.35c-2.64-15.06-6.35-29.9-10.2-44.69-2.19-8.44-4.41-16.87-6.6-25.3s-4.56-17-6.49-25.53A.23.23,0,0,1,207.61,410.61Z" transform="translate(-30.99 -38)"/><path class="cls-13" d="M242.19,495.06c-2.34-8.16-4.56-16.34-6.77-24.53L228.9,446l-6.43-24.61q-1.58-6.15-3.28-12.28c-1.14-4.08-2.17-8.19-3.68-12.16,3.38,7.8,5.62,16,8.07,24.14s4.56,16.34,6.76,24.53,4.22,16.43,6.19,24.68S240.44,486.75,242.19,495.06Z" transform="translate(-30.99 -38)"/><path class="cls-13" d="M211.56,360.43l-2.2,13.16H139.92s22.5-56.23,45.05-69.66c11.28-6.72,21.08-3.05,25.53,5.32,1.13,2.12,11.6,25.3,10.74,35.63C220.45,354,211.56,360.43,211.56,360.43Z" transform="translate(-30.99 -38)"/><path class="cls-13" d="M210.16,368.81l-.32,1.89H141.1c.25-.56.53-1.19.82-1.89Z" transform="translate(-30.99 -38)"/><path class="cls-13" d="M210.86,364.6l-.31,1.89H142.94c.27-.59.54-1.22.84-1.89Z" transform="translate(-30.99 -38)"/><path class="cls-10" d="M199.68,319c7.33,10.67,38.53,44.69,50.81,43.58,19.25-1.73,39.46-11.3,50.66-16.24,3.55-1.57-12.63-35.58-19.12-31.79-8.38,4.89-25.69,12-30.73,12.8-3.44.54-26.23-12.42-42.14-21.33C195.89,298.57,190.4,305.45,199.68,319Z" transform="translate(-30.99 -38)"/><path class="cls-10" d="M333.73,309.07c-5.37-1-9.38-2.1-11.94-2.4-.41,0-.77-.07-1.1-.07h0a5.06,5.06,0,0,0-.57,0l.17.2c.92,1.1,5.27,6.59,5.49,11.53,0,.15,0,.31,0,.45a7.11,7.11,0,0,1-.09,1.14.13.13,0,0,1,0,.06,3.43,3.43,0,0,1-.09.44c-.38,1.58-1.21,4.76-2.3,8.21-.07.23-.15.48-.23.72a2.41,2.41,0,0,1-.08.25c-.1.33-.21.66-.32,1-.58,1.72-1.22,3.45-1.89,5a25.31,25.31,0,0,1-2.92-.65,11.42,11.42,0,0,1-1.27,2.68,12.76,12.76,0,0,1-9.29,5.94l-6.09,2.68-1.13.5-1.9.83-21.89-29.37,5.62-3.65.13-.08a23,23,0,0,0,4.84-4.52c5.7-6.38,23.72-18.29,46.28-9.87C341.8,303.35,343.32,310.82,333.73,309.07Z" transform="translate(-30.99 -38)"/><path class="cls-10" d="M339.21,320.12c-.67,2.75-3.1,3.32-5,3.3a11.7,11.7,0,0,1-2.44-.29l-.22-.06h0l0,0c.11.06.48.33,1,.73h0c1.69,1.37,4.76,4.4,3.27,7.44a4.4,4.4,0,0,1-4.28,2.41,8.86,8.86,0,0,1-2.39-.37l-.14,0,.06.06a6.66,6.66,0,0,1,1.09,1.45h0a4.25,4.25,0,0,1-.24,4.88c-2.53,3.39-7.78-1.46-13.31-2a8.43,8.43,0,0,0-2.74.12c-1.44.32-20.55-33-20.55-33,4.46-.55,13.93-1.57,22,.3.7.16,1.44.35,2.22.56q1.53.42,3.21,1h0c.62.2,1.25.41,1.88.64h0C331.07,310.21,340.43,315.12,339.21,320.12Z" transform="translate(-30.99 -38)"/><path class="cls-10" d="M311.49,314.14c4.28.17,13.9,3.05,19.93,8.73.14.13.11.31,0,.21a89.5,89.5,0,0,0-19.91-8.85A0,0,0,0,1,311.49,314.14Z" transform="translate(-30.99 -38)"/><path class="cls-10" d="M329.11,333.31a.05.05,0,0,1-.08,0l0,0c-2.06-1.36-4.08-2.6-6-3.7l-.55-.31a88.14,88.14,0,0,0-12.79-6,0,0,0,1,1,0-.07,41.88,41.88,0,0,1,13.63,5.43c.54.34,1.08.69,1.61,1.06a27.89,27.89,0,0,1,4.13,3.4C329.11,333.19,329.13,333.27,329.11,333.31Z" transform="translate(-30.99 -38)"/><path class="cls-13" d="M242.12,323.32l-12.8,31.54S208.79,334,198.58,319.65s-4.47-21.39,10.85-15S242.12,323.32,242.12,323.32Z" transform="translate(-30.99 -38)"/><path class="cls-14" d="M322.57,307.24c-.14,0-1-.23-2.29-.42-2.77-.44-7.44-.86-10.66.42a14.77,14.77,0,0,1,7.85-1.6,17,17,0,0,1,3.76.64l.56.39c-.41,0-.77-.07-1.1-.07C321.31,306.8,321.94,307,322.57,307.24Z" transform="translate(-30.99 -38)"/><path class="cls-14" d="M334.16,323.42a11.7,11.7,0,0,1-2.44-.29,1.39,1.39,0,0,0-.27-.21A18.69,18.69,0,0,0,326,320.1l-.33-.1a29.18,29.18,0,0,0-11.22-1.15,20.45,20.45,0,0,1,9.93-.8c.45.09.92.18,1.38.3A17.2,17.2,0,0,1,334.16,323.42Z" transform="translate(-30.99 -38)"/><path class="cls-14" d="M329,333.34a6.66,6.66,0,0,1,1.09,1.45,17.44,17.44,0,0,0-7.46-4.18,15.07,15.07,0,0,0-7.21-.16,15.68,15.68,0,0,1,7-1.14l.63.06a13.56,13.56,0,0,1,8.45,4.3h0a8.86,8.86,0,0,1-2.39-.37A.05.05,0,0,1,329,333.34Z" transform="translate(-30.99 -38)"/><path class="cls-10" d="M702.23,378c2.3-.4,2.11-1.61-1.54-3.58s-19.76-6.7-17.64-12.18,24.76,1.5,30.59,5.26,13.93,11.87,13.93,11.87C722.89,378.88,711.43,378.81,702.23,378Z" transform="translate(-30.99 -38)"/><path class="cls-19" d="M547.31,570.48v-.37l-29.87.1a25.47,25.47,0,0,0-25.25,25.67l.13,37.15a36.76,36.76,0,1,0,.22,60.3l.13,36.38a25.46,25.46,0,0,0,25.44,25.49l132.59-.48A25.46,25.46,0,0,0,676,729.05l-.48-133.83A25.45,25.45,0,0,0,650,569.74l-29.88.1c0,.13,0,.25,0,.38a36.43,36.43,0,1,1-72.86.26Z" transform="translate(-30.99 -38)"/><rect class="cls-22" x="449.05" y="589.43" width="7.58" height="79.61"/><path class="cls-23" d="M487.29,628h.38V598.15a25.46,25.46,0,0,0-25.58-25.34H425a36.77,36.77,0,1,0-60.3,0H328.26a25.47,25.47,0,0,0-25.58,25.34v132.6a25.47,25.47,0,0,0,25.58,25.34H462.09a25.46,25.46,0,0,0,25.58-25.34V700.88h-.38a36.43,36.43,0,1,1,0-72.86Z" transform="translate(-30.99 -38)"/><path class="cls-24" d="M479.68,627.28c.13,0,.23,3.94.36,3.94l0-33.81a25.47,25.47,0,0,0-25.58-25.34H417.33a36.77,36.77,0,1,0-60.3,0H320.65a25.46,25.46,0,0,0-25.58,25.34V730a25.46,25.46,0,0,0,25.58,25.34H454.48A25.47,25.47,0,0,0,480.06,730V700.13c-.13,0,.11-3,0-3-20.31,0-37.13-13.35-37.13-33.47A36.6,36.6,0,0,1,479.68,627.28Z" transform="translate(-30.99 -38)"/><path class="cls-20" d="M542.37,569.87v-.38l-29.87.1a25.47,25.47,0,0,0-25.25,25.68l.13,37.14a36.77,36.77,0,1,0,.22,60.3l.13,36.38a25.46,25.46,0,0,0,25.44,25.49l132.59-.47A25.47,25.47,0,0,0,671,728.43l-.48-133.82a25.46,25.46,0,0,0-25.44-25.49l-29.87.1c0,.13,0,.25,0,.38a36.43,36.43,0,1,1-72.86.27Z" transform="translate(-30.99 -38)"/><path class="cls-10" d="M704.21,747c3.2,1,94.49.24,97.95-2,1.32-.84,2-14.14,2.32-30.23.07-3.48.13-7.07.16-10.72.26-23.67,0-48.79,0-48.79l-61.06.36,1.7,48.78.36,10.71s-34.81,15.94-38.35,18.79S701,746,704.21,747Z" transform="translate(-30.99 -38)"/><path class="cls-11" d="M704.21,747c3.2,1,94.49.24,97.95-2,1.6-1,2.25-20.45,2.48-40.95l-59.38.35.36,10.71s-34.81,15.94-38.35,18.79S701,746,704.21,747Z" transform="translate(-30.99 -38)"/><path class="cls-25" d="M699.77,746.83c3.36,1.17,100,2.29,103.68,0,1.41-.86,2.39-14.92,3.1-31.94L744.27,714s-37.18,16.11-41,19.06S696.41,745.66,699.77,746.83Z" transform="translate(-30.99 -38)"/><path class="cls-13" d="M709.91,728.8a13,13,0,0,1,9.64,4.07,12.55,12.55,0,0,1,3.52,8.69c0,.09-.18.09-.19,0a15,15,0,0,0-13-12.55A.1.1,0,0,1,709.91,728.8Z" transform="translate(-30.99 -38)"/><path class="cls-13" d="M738.34,714.68c6.48,0,14,2.37,17.94,7.71.15.21-.15.43-.34.32a90.19,90.19,0,0,0-17.72-7.23A.41.41,0,0,1,738.34,714.68Z" transform="translate(-30.99 -38)"/><path class="cls-13" d="M733.31,716.58c6.49,0,14,2.36,17.94,7.71.15.2-.14.42-.33.32a89.7,89.7,0,0,0-17.73-7.24A.4.4,0,0,1,733.31,716.58Z" transform="translate(-30.99 -38)"/><path class="cls-13" d="M728.29,718.47c6.48,0,14,2.36,17.93,7.71.16.21-.14.42-.33.32a89,89,0,0,0-17.72-7.23A.41.41,0,0,1,728.29,718.47Z" transform="translate(-30.99 -38)"/><path class="cls-13" d="M723.26,720.36c6.48,0,14,2.36,17.94,7.71.15.21-.15.42-.34.32a89.33,89.33,0,0,0-17.72-7.23A.41.41,0,0,1,723.26,720.36Z" transform="translate(-30.99 -38)"/><path class="cls-13" d="M803.28,746.9s3.16-5.44,2.39-15.65c0,0-69,10.16-107.1,8.92,0,0-.92,4.22.31,6.18S780.59,748.61,803.28,746.9Z" transform="translate(-30.99 -38)"/><path class="cls-13" d="M710,729.21s10.45,2.3,10.12,11.57l2.61-.2S721.21,728.37,710,729.21Z" transform="translate(-30.99 -38)"/><path class="cls-10" d="M868.17,746.75c3.34-.34,86.61-37.76,88.88-41.2.87-1.3-3.87-13.74-10-28.61-1.33-3.22-2.72-6.53-4.16-9.88-9.27-21.78-19.63-44.67-19.63-44.67l-55.77,24.88,21.17,44,4.63,9.66s-25.47,28.59-27.56,32.62S864.82,747.08,868.17,746.75Z" transform="translate(-30.99 -38)"/><path class="cls-11" d="M868.17,746.75c3.34-.34,86.61-37.76,88.88-41.2,1.05-1.58-6.17-19.62-14.19-38.49l-54.23,24.19,4.63,9.66s-25.47,28.59-27.56,32.62S864.82,747.08,868.17,746.75Z" transform="translate(-30.99 -38)"/><path class="cls-25" d="M864,748.35c3.55-.28,92.46-38.08,94.94-41.67.95-1.35-3.8-14.62-10-30.49l-57.39,24.2S864,730.09,861.7,734.31,860.47,748.63,864,748.35Z" transform="translate(-30.99 -38)"/><path class="cls-13" d="M866.05,727.76a13.07,13.07,0,0,1,10.47-.15,12.64,12.64,0,0,1,6.71,6.54c0,.09-.13.16-.18.08A15,15,0,0,0,866.13,728,.1.1,0,0,1,866.05,727.76Z" transform="translate(-30.99 -38)"/><path class="cls-13" d="M886.41,703.41c5.93-2.62,13.74-3.45,19.52-.15.23.13,0,.44-.18.43a89.35,89.35,0,0,0-19.13.5A.41.41,0,0,1,886.41,703.41Z" transform="translate(-30.99 -38)"/><path class="cls-13" d="M882.57,707.16c5.93-2.61,13.74-3.45,19.52-.15.22.13,0,.45-.18.43a89.35,89.35,0,0,0-19.13.5A.41.41,0,0,1,882.57,707.16Z" transform="translate(-30.99 -38)"/><path class="cls-13" d="M878.73,710.92c5.93-2.62,13.74-3.46,19.52-.15.22.12,0,.44-.18.42a90,90,0,0,0-19.13.51A.41.41,0,0,1,878.73,710.92Z" transform="translate(-30.99 -38)"/><path class="cls-13" d="M874.88,714.67c5.93-2.62,13.75-3.45,19.53-.15.22.13,0,.44-.18.43a89.46,89.46,0,0,0-19.14.5A.41.41,0,0,1,874.88,714.67Z" transform="translate(-30.99 -38)"/><path class="cls-13" d="M958.82,706.81s.71-6.25-4.1-15.3c0,0-59.07,37-94.48,51.23,0,0,.85,4.22,2.77,5.52S938.73,717.49,958.82,706.81Z" transform="translate(-30.99 -38)"/><path class="cls-13" d="M866.27,728.12s10.49-2.1,13.92,6.52l2.31-1.23S876.22,722.82,866.27,728.12Z" transform="translate(-30.99 -38)"/><path class="cls-26" d="M797.74,328c-10,4.77-45.15,13.83-59.75,4.08-13.09-8.74-14.2-71.46-8.74-91.56C731.17,233.49,759,247,762,253c2.53,5.09-1.6,52.44.42,53.48,3.41,1.74,14.46,3.06,32.07,5.52C811.05,314.27,804.81,324.66,797.74,328Z" transform="translate(-30.99 -38)"/><path class="cls-13" d="M762.7,273.69l-37.26-17.63s-6.42,63.84,11.78,77.3c4.19,3.1,32.12,8.25,58.43-3,8.14-3.49,20.78-15.51-3.41-19.34s-28.6-5.18-29-5.78S762.7,273.69,762.7,273.69Z" transform="translate(-30.99 -38)"/><g class="cls-27"><path class="cls-13" d="M744.76,287.56a3.21,3.21,0,0,0,4.42-.38c2.13-2.42,1.1-6.53,0-9.25s-3.05-5.7-6.24-6.19c-2-.32-3.19,1.46-2.81,3.27.44,2.1,1.54,4,2.09,6.14C742.81,283.42,742.7,286.05,744.76,287.56Z" transform="translate(-30.99 -38)"/><path class="cls-13" d="M748.43,300.41c1.88-1,2.2-3.73,2.18-5.62a5.29,5.29,0,0,0-.84-2.89c-.77-1.13-2.44-1.88-3.67-1a3.5,3.5,0,0,0-1.34,2.27,8,8,0,0,0-.16,1.39.82.82,0,0,0,0,.14.6.6,0,0,1,0,.12c-.24,1.39-.68,2.84-.23,4.22A2.74,2.74,0,0,0,748.43,300.41Z" transform="translate(-30.99 -38)"/><path class="cls-13" d="M758.5,296.06c1.53-3.23,1.5-7,.84-10.46-.54-2.78-1.6-7.34-4.8-8.06a1.66,1.66,0,0,0-1.75.9c-1.29,2.09,0,5.7.22,8,.25,2.89,0,5.8.27,8.67A2.76,2.76,0,0,0,758.5,296.06Z" transform="translate(-30.99 -38)"/><path class="cls-13" d="M740.81,310.44a3.82,3.82,0,0,0,1.47.69,3.32,3.32,0,0,0,2.37-.51,5.24,5.24,0,0,0,1.63-2,5,5,0,0,0,.48-2.38c-.06-.24-.11-.49-.16-.74l-.35-.7a2.83,2.83,0,0,0-1.53-1.1,2.93,2.93,0,0,0-3.13.88,14.46,14.46,0,0,0-1.61,2.06c-.08.26-.16.52-.25.78a2.36,2.36,0,0,0,0,1.21A3,3,0,0,0,740.81,310.44Z" transform="translate(-30.99 -38)"/><path class="cls-13" d="M750.63,309.51a2.67,2.67,0,0,0,3.08-.68,6.43,6.43,0,0,0,1.33-3.1,5.72,5.72,0,0,0-.1-3.15,2.06,2.06,0,0,0-3.47-.64,10.33,10.33,0,0,0-1.18,2.26c-.16.34-.34.65-.52,1a6.89,6.89,0,0,0-.58,1.53A2.59,2.59,0,0,0,750.63,309.51Z" transform="translate(-30.99 -38)"/></g><path class="cls-13" d="M726.47,265.61c3.09,1,6.07,2.41,9,3.69s5.87,2.55,8.79,3.85c5.89,2.63,11.89,5.13,17.61,8.14a.12.12,0,0,1-.09.22c-6.18-2.05-12.17-4.76-18.12-7.37q-4.49-2-8.91-4.05a85.8,85.8,0,0,1-8.46-4.26C726.22,265.75,726.34,265.57,726.47,265.61Z" transform="translate(-30.99 -38)"/><path class="cls-28" d="M795.65,330.36c-26.31,11.25-54.25,6.1-58.43,3-8.43-6.25-11.58-23.32-12.53-39.86l38.3,8.65a18.17,18.17,0,0,0,.21,3.08c.44.61,4.84,2,29,5.78S803.79,326.86,795.65,330.36Z" transform="translate(-30.99 -38)"/><path class="cls-29" d="M825.18,416.63s-15.86,157-16.24,158.93c-.05.27-.16,3.29-.31,8.21-.86,27-3,111.27-3,111.27H740.91s4.23-99.79,6.65-123.06c3.1-29.7,22.58-155.35,22.58-155.35Z" transform="translate(-30.99 -38)"/><path class="cls-13" d="M825.18,416.63s-15.86,157-16.24,158.93c-.05.27-.16,3.29-.31,8.21L778.1,416.63Z" transform="translate(-30.99 -38)"/><path class="cls-29" d="M770.14,416.63s4.27,22.67,20.08,34.2c0,0,34.88,116.71,39.41,130.09C837.44,604,879.41,682.1,879.41,682.1l64.79-27.81s-49.41-87-54.75-93.74c-3.55-4.45-29.78-99-29.83-101.49-.55-27.8-9.87-42.58-9.87-42.58Z" transform="translate(-30.99 -38)"/><path class="cls-13" d="M822.56,424.84a21.61,21.61,0,0,0,7.92,11.38c4.19,3.19,9.22,4.52,14.39,4.93.87.07.94,1.39,0,1.39-10.55.06-21.22-6.68-22.77-17.63C822.09,424.66,822.49,424.6,822.56,424.84Z" transform="translate(-30.99 -38)"/><path class="cls-13" d="M780.09,443.65A58.72,58.72,0,0,1,791,449.43c3.62,2.25,7,4.87,10.47,7.3.13.09,0,.31-.13.22-3.66-2.11-7.49-3.94-11.12-6.12a69.75,69.75,0,0,1-10.29-6.9C779.81,443.83,779.93,443.59,780.09,443.65Z" transform="translate(-30.99 -38)"/><path class="cls-13" d="M778.61,421.64c.56,2.42,1.26,4.8,1.9,7.21.6,2.25,1.07,4.55,1.77,6.77a11.58,11.58,0,0,0,3.45,5.59c.93.79,1.95,1.48,2.93,2.2.54.38,1.11.75,1.66,1.14-.08-.32-.16-.64-.23-1l-.6-2.76c-.44-2-.86-4.08-1.27-6.12-.8-4-1.56-8.08-2.59-12.05,0-.16.2-.24.25-.08,1.19,3.93,2.49,7.8,3.55,11.77.52,1.94,2.49,11.57,2.59,12.25s.2,1.41.26,2.12a8.86,8.86,0,0,1,.1,2.18.18.18,0,0,1-.33,0h0a8.24,8.24,0,0,1-.71-2.08c-.21-.68-.4-1.38-.56-2.07-.06-.26-.1-.51-.15-.77-1-.54-1.91-1.27-2.83-1.87s-2-1.29-2.95-2a11,11,0,0,1-3.73-5.28,40.75,40.75,0,0,1-1.46-6.92c-.43-2.74-.78-5.5-1.29-8.23C778.33,421.55,778.57,421.47,778.61,421.64Z" transform="translate(-30.99 -38)"/><path class="cls-13" d="M845.55,419.29a53.68,53.68,0,0,1,9,28.86,45.82,45.82,0,0,1-.56,7.67c-.1.63-.18,1.27-.33,1.9l-.19.94a2.48,2.48,0,0,0-.11.8c.15,1.18.46,2.45.74,3.67,1.16,4.94,2.47,9.86,3.77,14.77,5.28,19.65,10.62,39.29,16.24,58.84l4.23,14.65c.73,2.44,1.45,4.87,2.23,7.28.39,1.2.78,2.43,1.23,3.54s1.07,2.23,1.69,3.34c4.79,8.94,10,17.72,15,26.57,0,0,25.53,42.89,30.79,52.78.24.46.12.76-.35.14-4.56-5.95-21.2-34.75-31.56-52.27-5.19-8.76-10.31-17.54-15.21-26.5-.63-1.1-1.19-2.29-1.77-3.45s-.89-2.44-1.3-3.66c-.79-2.43-1.53-4.87-2.27-7.31q-2.19-7.32-4.29-14.66c-5.48-19.6-10.88-39.23-15.84-59-1.23-4.94-2.46-9.87-3.56-14.86-.26-1.26-.55-2.46-.7-3.82a3.34,3.34,0,0,1,.15-1.07l.2-.93c.15-.61.24-1.23.35-1.85a50.06,50.06,0,0,0,.68-7.53A53.85,53.85,0,0,0,845.55,419.29Z" transform="translate(-30.99 -38)"/><path class="cls-13" d="M855,425.5l-90.12.6c0,1.77,4.56-70.62,27.67-113.34,1.58-2.91,15.72-6.12,22-.41C842.09,337.39,855,426.64,855,425.5Z" transform="translate(-30.99 -38)"/><g class="cls-27"><path class="cls-13" d="M791.59,404.84c-2.33-1.94-5.75-1.45-6.77,1.67-1.15,3.56,1.16,7,4.25,8.71a11.74,11.74,0,0,0,10.53.43c3.16-1.43,2.3-6.38-.83-7.22-1.43-.39-3.14-.45-4.47-1.11C793.17,406.76,792.54,405.63,791.59,404.84Z" transform="translate(-30.99 -38)"/><path class="cls-13" d="M787.64,393.06c-1.86,5.36,6,11.14,10.75,8.76a2.94,2.94,0,0,0,.69-4.56c-1.14-1.19-2.19-1.48-3.2-2.56a4.75,4.75,0,0,1-.89-1.22,8.25,8.25,0,0,0-2.14-2.46C790.9,389.59,788.32,391.08,787.64,393.06Z" transform="translate(-30.99 -38)"/><path class="cls-13" d="M774,391.64c-2,2.05-1.15,5.64.12,7.9a7,7,0,0,0,6,3.89,2.37,2.37,0,0,0,1.72-4,7.43,7.43,0,0,1-1.9-3.11c-.55-1.8-.78-4.08-2.59-5.07A2.8,2.8,0,0,0,774,391.64Z" transform="translate(-30.99 -38)"/><path class="cls-13" d="M807.92,401.84a2.69,2.69,0,0,0-2.67,2.62,3.15,3.15,0,0,0,2.62,3.05,4.76,4.76,0,0,0,3-.34,2.25,2.25,0,0,0,1-1.17,2.36,2.36,0,0,0,.15-1.59,2.53,2.53,0,0,0-2.21-1.85,2.11,2.11,0,0,0-.36-.27A3,3,0,0,0,807.92,401.84Z" transform="translate(-30.99 -38)"/><path class="cls-13" d="M780.42,378.94c-2.11,2.76-.43,8.25,2.49,9.83a2.59,2.59,0,0,0,3.89-2.17,10.53,10.53,0,0,0-.16-1.7c-.09-.62-.2-1-.22-1.37a13.34,13.34,0,0,0-.31-3.74A3.17,3.17,0,0,0,780.42,378.94Z" transform="translate(-30.99 -38)"/><path class="cls-13" d="M772.69,407.71c-2.86,4.32,3.4,10.42,7.72,10.05,1.45-.13,3-1.8,2-3.28-.87-1.18-2-2.19-2.75-3.43-1-1.52-1.37-3.37-3.08-4.28A2.86,2.86,0,0,0,772.69,407.71Z" transform="translate(-30.99 -38)"/></g><g class="cls-27"><path class="cls-13" d="M839,399.5c-.27,1.65-.17,3.08-1.22,4.47s-2.37,2.34-3.09,4A2.14,2.14,0,0,0,837,410.8c4.88-1.12,8.62-6.41,7.59-11.41A2.82,2.82,0,0,0,839,399.5Z" transform="translate(-30.99 -38)"/><path class="cls-13" d="M832.43,386.17c-.58,2.05-.17,4.24-.6,6.37a53.51,53.51,0,0,1-1.48,5.73c-.45,1.36,1,3.26,2.48,2.38a10.86,10.86,0,0,0,5.21-6c.83-2.38,1.59-6.31.25-8.6C837.07,383.94,833.27,383.2,832.43,386.17Z" transform="translate(-30.99 -38)"/><path class="cls-13" d="M826.54,406.71a13.15,13.15,0,0,1-4,4.19,3.12,3.12,0,0,0-1.4,4.43c1.06,1.74,3,1.8,4.57.83a11.15,11.15,0,0,0,5.42-7.71C831.5,405.93,828,404.72,826.54,406.71Z" transform="translate(-30.99 -38)"/></g><g class="cls-27"><path class="cls-13" d="M803.43,342.13a3.21,3.21,0,0,0,3.47-2.77c.44-3.19-2.69-6-5.1-7.71s-5.7-3.06-8.63-1.7c-1.86.86-1.85,3-.53,4.28,1.53,1.5,3.52,2.51,5.14,4S800.88,342,803.43,342.13Z" transform="translate(-30.99 -38)"/><path class="cls-13" d="M813.6,350.8c1-1.88-.23-4.32-1.29-5.89A5.38,5.38,0,0,0,810,343c-1.26-.52-3.06-.22-3.59,1.22a3.55,3.55,0,0,0,.14,2.64,8.5,8.5,0,0,0,.63,1.24l.08.12a1,1,0,0,0,0,.12c.57,1.28,1,2.73,2.14,3.64A2.75,2.75,0,0,0,813.6,350.8Z" transform="translate(-30.99 -38)"/><path class="cls-13" d="M819.58,341.6a17.11,17.11,0,0,0-5.09-9.17c-2-2-5.38-5.23-8.45-4.06a1.66,1.66,0,0,0-1,1.72c.09,2.45,3.18,4.73,4.61,6.52,1.8,2.27,3.18,4.85,5,7.08A2.76,2.76,0,0,0,819.58,341.6Z" transform="translate(-30.99 -38)"/><path class="cls-13" d="M812.8,363.37a3.63,3.63,0,0,0,1.6-.24,3.3,3.3,0,0,0,1.7-1.73,5.29,5.29,0,0,0,.26-2.56,4.91,4.91,0,0,0-.92-2.24l-.54-.53-.68-.39a2.89,2.89,0,0,0-1.88-.07,2.93,2.93,0,0,0-2.12,2.46,14.39,14.39,0,0,0-.2,2.62c.07.26.15.52.22.78a2.3,2.3,0,0,0,.7,1A3.09,3.09,0,0,0,812.8,363.37Z" transform="translate(-30.99 -38)"/><path class="cls-13" d="M820.47,357.16a2.65,2.65,0,0,0,2.18-2.26,6.44,6.44,0,0,0-.61-3.32,5.5,5.5,0,0,0-1.82-2.57A2.05,2.05,0,0,0,817,350.4a9.86,9.86,0,0,0,.27,2.53c0,.37.07.73.1,1.1a7.32,7.32,0,0,0,.36,1.59A2.58,2.58,0,0,0,820.47,357.16Z" transform="translate(-30.99 -38)"/></g><path class="cls-10" d="M801.24,326.63c3.71-.48,10.15-8.67,12.12-15,.14-.43-1.28-4.42-2.78-9.35-.9-3-1.82-6.34-2.45-9.47l-18.63,8.68a50.48,50.48,0,0,1,4.29,11.61,6.76,6.76,0,0,1,.13,1.31,1.86,1.86,0,0,0,0,.22C794,317.16,795.45,327.37,801.24,326.63Z" transform="translate(-30.99 -38)"/><path class="cls-15" d="M793.92,314.43a1.41,1.41,0,0,1,0,.22,12.42,12.42,0,0,0,2-.3c11.3-2.52,11.32-17.05,11.11-21l-17.58,8.17a50.79,50.79,0,0,1,4.3,11.61A10.45,10.45,0,0,1,793.92,314.43Z" transform="translate(-30.99 -38)"/><path class="cls-10" d="M809.78,271.82c2.35,7-.83,27.57-5.74,32.26-7.12,6.81-19,7.77-24.9-.85-5.68-8.36-1.06-35.07,4.45-39.36C791.71,257.54,806.31,261.45,809.78,271.82Z" transform="translate(-30.99 -38)"/><path class="cls-13" d="M791.38,284.69c0-.05.1.08.09.14-.32,1.36-.44,3,.71,3.68,0,0,0,.09,0,.07C790.68,288.08,790.87,285.93,791.38,284.69Z" transform="translate(-30.99 -38)"/><path class="cls-13" d="M792.89,283.49c2.24.26,1.55,4.73-.52,4.49S791,283.27,792.89,283.49Z" transform="translate(-30.99 -38)"/><path class="cls-13" d="M783.65,283.23c0-.05-.12,0-.13.11-.17,1.39-.6,3-1.92,3.22,0,0-.05.08,0,.08C783.16,286.66,783.71,284.58,783.65,283.23Z" transform="translate(-30.99 -38)"/><path class="cls-13" d="M782.63,281.59c-2.2-.51-3.06,3.93-1,4.4S784.48,282,782.63,281.59Z" transform="translate(-30.99 -38)"/><path class="cls-13" d="M790.67,297.82c-.38.27-.78.67-1.29.63a3.66,3.66,0,0,1-1.44-.57,0,0,0,0,0-.07.06,1.9,1.9,0,0,0,1.64,1,1.49,1.49,0,0,0,1.28-1.06C790.82,297.83,790.72,297.78,790.67,297.82Z" transform="translate(-30.99 -38)"/><path class="cls-10" d="M805.86,288.6s4.58-6.65,7.6-5-.4,11.24-3.92,12.58a3.58,3.58,0,0,1-4.81-1.89Z" transform="translate(-30.99 -38)"/><path class="cls-30" d="M812.41,285.42c.06,0,.07.07,0,.09-2.46,1-3.75,3.32-4.64,5.7a2,2,0,0,1,3-.56c.07,0,0,.15-.06.13a2.19,2.19,0,0,0-2.42.79,10.46,10.46,0,0,0-1.15,2c-.12.22-.51.11-.43-.15a.14.14,0,0,1,0-.06C806.61,290.18,809,285.76,812.41,285.42Z" transform="translate(-30.99 -38)"/><path class="cls-18" d="M798.17,279.1a5.52,5.52,0,0,0-3.78-1.26,5.52,5.52,0,0,1-3.78-1.26s0,2.52,1.26,2.52S795.65,277.84,798.17,279.1Z" transform="translate(-30.99 -38)"/><path class="cls-14" d="M806.22,291.26s-.14-.7-3.17,2.8c-1.38,1.58-3,4.09-5,3.48-2.25-.7-5.21-2.84-8.58-2-5.86,1.51-11.62-4.14-12.76-.72-.9,2.68,2.7,10.18,4.86,13.48a5.1,5.1,0,0,0,4.47,2.3c3.2-.11,8.28-.46,10.84-1.45,3.91-1.51,8.79-3,10.74-7.56S806.22,297.31,806.22,291.26Z" transform="translate(-30.99 -38)"/><path class="cls-10" d="M780.34,300.73a1.88,1.88,0,0,1,1.9-2h4c2.87,0,8.18.78,8.3,1.38.3,1.48.3,7.22-11.16,4.35A4.23,4.23,0,0,1,780.34,300.73Z" transform="translate(-30.99 -38)"/><path class="cls-13" d="M783.28,298.82a10.7,10.7,0,0,0,8.61.53S787.19,304,783.28,298.82Z" transform="translate(-30.99 -38)"/><path class="cls-30" d="M785.31,287.44s-3.23,4.85-2.15,5.93,7,0,7,0,1.62-1.08-2.7-.54-3.77-.54-3.77-.54S783.7,290.67,785.31,287.44Z" transform="translate(-30.99 -38)"/><path class="cls-17" d="M806.22,291.26s-1-1-5.43,5.34-2.63,7.2-5.32,10.78c-1.93,2.59-.88,1.85-7.6,3.17a29.2,29.2,0,0,0,17.56-5.86s3.7-3.66,2.69-6.31S806.22,294.85,806.22,291.26Z" transform="translate(-30.99 -38)"/><path class="cls-18" d="M790.69,277.46s0,2,1.51,1.62a27.16,27.16,0,0,1,3.21-.53S792.17,278.89,790.69,277.46Z" transform="translate(-30.99 -38)"/><path class="cls-18" d="M778.39,279.09a5.52,5.52,0,0,1,3.78-1.26,5.56,5.56,0,0,0,3.79-1.26s0,2.52-1.27,2.52S780.91,277.83,778.39,279.09Z" transform="translate(-30.99 -38)"/><path class="cls-18" d="M785.87,277.45s0,2-1.51,1.61a29.75,29.75,0,0,0-3.2-.53S784.39,278.88,785.87,277.45Z" transform="translate(-30.99 -38)"/><path class="cls-31" d="M756.18,330.31v7.07s22.44-1.42,26.73-2.83c0,0,4.29-8.47,8.58-11.3,0,0-22.44,5.65-35.31,1.41Z" transform="translate(-30.99 -38)"/><path class="cls-31" d="M753,372s13.51-.12,15.6,8.09a18.38,18.38,0,0,0-9.22-13.67S756.62,370.67,753,372Z" transform="translate(-30.99 -38)"/><polyline class="cls-13" points="773.21 515.47 766.3 657.03 774.62 656.69 778.24 535.09"/><path class="cls-10" d="M806.74,337.48c-2.82,13-17.92,63.37-34.55,69-20.15,6.83-47.45,8.14-60.15,5.14-7.13-1.68,3.08-32.53,9.67-31.82,10.39,1.11,28.92-5.79,32.71-6.36s25.41-26.22,37.48-40.33C802.78,320.39,808.41,329.83,806.74,337.48Z" transform="translate(-30.99 -38)"/><path class="cls-13" d="M729,373.87l-5.28,42.05s39.7-3.11,53.16-11.94,25.08-39.56,30.47-58.52-4.35-27.57-22.07-7.91c-20.75,23-29.22,34-30.81,34.69S729,373.87,729,373.87Z" transform="translate(-30.99 -38)"/><g class="cls-27"><path class="cls-13" d="M771.07,397.93c-1.3,1-2.19,2.17-3.9,2.49s-3.33.14-5,.87a2.13,2.13,0,0,0-.22,3.65c4.36,2.46,10.68,1.05,13.28-3.35A2.82,2.82,0,0,0,771.07,397.93Z" transform="translate(-30.99 -38)"/><path class="cls-13" d="M775.15,383.63c-1.81,1.13-3,3-4.72,4.31a52.31,52.31,0,0,1-5,3.26c-1.23.7-1.45,3.08.25,3.43a10.86,10.86,0,0,0,7.9-1c2.21-1.2,5.41-3.6,6-6.19C780.08,385.1,777.77,382,775.15,383.63Z" transform="translate(-30.99 -38)"/><path class="cls-13" d="M757,394.89a13.44,13.44,0,0,1-5.81.39,3.11,3.11,0,0,0-4,2.34c-.39,2,1,3.33,2.83,3.68a11.12,11.12,0,0,0,9.18-2.07C761.18,397.64,759.37,394.35,757,394.89Z" transform="translate(-30.99 -38)"/></g><g class="cls-27"><path class="cls-13" d="M799.68,345a3.21,3.21,0,0,0,2.67-3.54c-.36-3.2-4.1-5.19-6.85-6.21s-6.27-1.55-8.78.48c-1.59,1.3-1.05,3.35.55,4.28,1.85,1.08,4,1.56,6,2.57C795.3,343.66,797.18,345.51,799.68,345Z" transform="translate(-30.99 -38)"/><path class="cls-13" d="M806.56,344.27c-.45,1.81-1,3.75-1.57,5.78,0,0,0,0,0,0a.33.33,0,0,1-.08-.11l-.11-.09c-.34-.36-.64-.67-.93-1a3.6,3.6,0,0,1-.78-2.52,2.7,2.7,0,0,1,3.18-2.08A1.29,1.29,0,0,1,806.56,344.27Z" transform="translate(-30.99 -38)"/><path class="cls-13" d="M807.92,332.82a34.15,34.15,0,0,1-.57,7.83c-1-.87-2-1.75-3-2.54-1.83-1.39-5.39-2.83-6.07-5.19a1.63,1.63,0,0,1,.5-1.89C801.46,329.15,805.48,331.36,807.92,332.82Z" transform="translate(-30.99 -38)"/></g><path class="cls-13" d="M728.77,373.51c3.73-.45,18.87-.87,22.6-1.34a7.7,7.7,0,0,0,4.46-2c1.38-1.24,23.5-25.38,25.91-28.22.1-.12.29,0,.19.14-2.56,2.86-19.43,22.89-22.08,25.77a34.13,34.13,0,0,1-3.72,3.79,7.1,7.1,0,0,1-4.47,1.55c-3.59.1-17.62.58-22.53.78-.09,0-.39,1.89-.48,1.89h-.19A8,8,0,0,1,728.77,373.51Z" transform="translate(-30.99 -38)"/><path class="cls-23" d="M576.45,298.75h-.37v28.93a24.67,24.67,0,0,0,24.77,24.55h36a35.61,35.61,0,1,0,58.39,0h35.24a24.67,24.67,0,0,0,24.77-24.55V199.26a24.66,24.66,0,0,0-24.77-24.54H600.85a24.66,24.66,0,0,0-24.77,24.54v28.93h.37a35.28,35.28,0,1,1,0,70.56Z" transform="translate(-30.99 -38)"/><path class="cls-24" d="M583.82,299.47h-.37v28.93a24.67,24.67,0,0,0,24.78,24.54h36a35.62,35.62,0,1,0,58.39,0h35.24a24.66,24.66,0,0,0,24.77-24.54V200a24.66,24.66,0,0,0-24.77-24.54H608.23A24.67,24.67,0,0,0,583.45,200v28.93h.37a35.29,35.29,0,1,1,0,70.57Z" transform="translate(-30.99 -38)"/><path class="cls-10" d="M767.45,261.27c1-5.72,5.32-13.67,4.68-17.93a5,5,0,0,0-4-4.32s3.56-3.19,2.34-7c-.63-1.95-4.29-2.65-4.29-2.65s2.74-2.68,1.45-6c-1-2.63-4.54-2.94-4.54-2.94s1.43-3.8-.48-6.13c-3.86-4.74-27.18,1.68-28.42,11.26-.58,4.47,5,2.59,5,2.59s-7.41,4.65-6.21,9.49,8.34,2,8.34,2-7.15,4.57-5.4,9.47c1.82,5.09,8.48,1,8.48,1s-4.22,4.94-2,8.38c3.63,5.68,11.3-4.83,16.76-5l5.15,7.68Z" transform="translate(-30.99 -38)"/><path class="cls-10" d="M770.1,252.63c-.48,5.5,7.39,10,7.68,15.28.4,7.2-9.08,2.65-13.5-6.75l-2.15-7.9Z" transform="translate(-30.99 -38)"/><path class="cls-10" d="M762.53,220.22a.06.06,0,1,0,0-.12c-8.18.24-17.1,3-23.63,8-.21.17,0,.59.23.45A85.93,85.93,0,0,1,762.53,220.22Z" transform="translate(-30.99 -38)"/><path class="cls-10" d="M766.24,229.33c.1,0,.07-.17,0-.17-8.44.3-18.4,3.7-25.23,10.38-.24.23-.22.67.07.43C745.93,235.87,758.56,230.75,766.24,229.33Z" transform="translate(-30.99 -38)"/><path class="cls-10" d="M744,250.77c6.81-6.15,14.9-9.5,23.71-11.75.11,0,.06-.19,0-.19-4.61-.08-10.08,1.94-14.2,3.87a24.19,24.19,0,0,0-9.68,7.83C743.73,250.67,743.89,250.9,744,250.77Z" transform="translate(-30.99 -38)"/><path class="cls-15" d="M764.46,220.81s-10.51,1-15.8,4.94c0,0,3-4.95,14.71-6.45" transform="translate(-30.99 -38)"/><path class="cls-15" d="M767.62,229.83s-11,2.53-15,6.5c0,0,5.82-6.17,14.16-7.71" transform="translate(-30.99 -38)"/><path class="cls-15" d="M769.45,239.48s-7.56.82-12.85,4.79c0,0,3.69-4.66,12.43-6.3" transform="translate(-30.99 -38)"/><path class="cls-15" d="M770.93,250.21s-7.72,4.65-11.69,3.33l.66,1.09s6.23,1.78,10.07-1Z" transform="translate(-30.99 -38)"/><path class="cls-10" d="M727.57,379.36l-6.66,33.74c-13.46-1.54-30.21-3.17-41.93-12.47a7.52,7.52,0,0,1-2.54-3.48c-.07-.17-.11-.32-.14-.41a.43.43,0,0,0,0-.05l0-.08h0l-.7-.56,0,0,0,0a11.34,11.34,0,0,1-4.09-5.94,4.36,4.36,0,0,1-.15-1.26c-.15-.22-.31-.43-.44-.65a14.37,14.37,0,0,1-2.57-6.74,6.73,6.73,0,0,1,0-1.6.65.65,0,0,1,0-.1,16.05,16.05,0,0,1-1.38-1.27c-1.69-1.72-4.09-4.91-2.52-7.81,2.58-4.76,10.79,3,17.9,4.47a174.93,174.93,0,0,0,20.52,2.74h0c7.11.6,13.84.92,18.62,1.15l.46,0,.55,0,.45,0,.59,0,.38,0,.38,0h.19l1.26.08.72,0,.62.05Z" transform="translate(-30.99 -38)"/><path class="cls-10" d="M696.84,390.92a58.26,58.26,0,0,1-22.1-6.84,46.29,46.29,0,0,1-6.38-4.2.19.19,0,0,1-.06-.07.65.65,0,0,1,0-.1.11.11,0,0,1,.17,0c3.35,1.87,6.63,3.77,10.07,5.41,1.37.66,2.78,1.26,4.22,1.82a109.24,109.24,0,0,0,14.11,3.81C697.13,390.76,697.08,390.94,696.84,390.92Z" transform="translate(-30.99 -38)"/><path class="cls-10" d="M696.25,400.85c-4.59-1.34-12.64-3.73-24.89-12.18,0,0-.1,0-.06.07a50.78,50.78,0,0,0,24.89,12.32C696.48,401.12,696.56,400.93,696.25,400.85Z" transform="translate(-30.99 -38)"/><path class="cls-10" d="M695.81,406.29c-7.72-2.56-12.26-5.15-19.49-9.69,0,0-.1,0-.06.07,7.68,6,11.14,7.33,19.5,9.9C696,406.66,696.11,406.39,695.81,406.29Z" transform="translate(-30.99 -38)"/><path class="cls-15" d="M692.81,385.09s-5.72,1.78-14.25,0a38,38,0,0,1-3.82-1,44.58,44.58,0,0,1-6.47-2.64v0a6.73,6.73,0,0,1,0-1.6.65.65,0,0,1,0-.1,16.05,16.05,0,0,1-1.38-1.27S678.82,386.93,692.81,385.09Z" transform="translate(-30.99 -38)"/><path class="cls-15" d="M690.75,391.06s-4.14,4.35-12.79,1.84h0a26.09,26.09,0,0,1-2.79-1,36.07,36.07,0,0,1-3.75-1.86,4.36,4.36,0,0,1-.15-1.26c-.15-.22-.31-.43-.44-.65C670.83,388.15,679.92,395.33,690.75,391.06Z" transform="translate(-30.99 -38)"/><path class="cls-15" d="M691.66,398.07a13.46,13.46,0,0,1-1.36.83c-.24.14-.51.27-.81.41A12.84,12.84,0,0,1,683,400.6a8.29,8.29,0,0,1-1.8-.35,10.16,10.16,0,0,1-4.71-3.1c-.07-.17-.11-.32-.14-.41a11.12,11.12,0,0,0,1.05.77l.11.08a13.26,13.26,0,0,0,2.23,1.09,15,15,0,0,0,9,.34c.37-.08.76-.19,1.15-.3C690.4,398.53,691,398.32,691.66,398.07Z" transform="translate(-30.99 -38)"/><path class="cls-31" d="M787.87,337.14S802,327,813.27,327c0,0-11.44,2.42-31.85,14.63Z" transform="translate(-30.99 -38)"/><path class="cls-31" d="M767,410.19a203.36,203.36,0,0,0,42.33-47.9s-.6,20.1-43.85,57.59Z" transform="translate(-30.99 -38)"/><path class="cls-31" d="M758.32,367.85s9.34,1.84,10.06,10.76c0,0-3.75-7.09-18-6.34A70.12,70.12,0,0,0,758.32,367.85Z" transform="translate(-30.99 -38)"/><path class="cls-13" d="M143.24,419.46s8.7,13.54,31.92,9.67C175.16,429.13,156.78,428.16,143.24,419.46Z" transform="translate(-30.99 -38)"/><path class="cls-13" d="M78.42,401.08" transform="translate(-30.99 -38)"/><path class="cls-13" d="M183.52,489.34l6.3,27.71a65.32,65.32,0,0,1,1.6,15.89l-.78,34.57h-6.55s3.38-49.28-6.65-67.23Z" transform="translate(-30.99 -38)"/><path class="cls-11" d="M560.85,687.94a8.27,8.27,0,1,1-8.27,8.27A8.26,8.26,0,0,1,560.85,687.94Zm16.54-24.66a1.88,1.88,0,0,1,2.66,2.66l-6.25,6.26,6.25,6.26a1.88,1.88,0,0,1-2.66,2.67l-7.59-7.6a1.87,1.87,0,0,1,0-2.66l7.59-7.59Zm-21.7-10.6h-1.36a1.25,1.25,0,0,0-1.24,1.24v26.69l2.29,2.24v-4.11a3.14,3.14,0,0,1,.31-1.12Zm-6.34,27.59V652.16a3.23,3.23,0,0,1,3.22-3.22h3.12v-3.23a3.24,3.24,0,0,1,3.23-3.22h3.22v-1.34a5,5,0,0,1,5-5h27.64a1.92,1.92,0,0,1,1.41.63l15.61,15.13a1.83,1.83,0,0,1,.57,1.34v37.31a5,5,0,0,1-5,5H606v1.37a5,5,0,0,1-5,5h-1.46v1.33a5,5,0,0,1-5,5H576.2L572,712.41a1.89,1.89,0,0,1-2.66,0l-2.92-2.9v4.21a1.89,1.89,0,0,1-1.89,1.89h-7.25a1.89,1.89,0,0,1-1.89-1.89v-4.13l-2.91,2.92a1.87,1.87,0,0,1-2.66,0l-5.14-5.15a1.9,1.9,0,0,1,0-2.67l2.92-2.92h-4.16a1.88,1.88,0,0,1-1.88-1.88v-7.36a1.89,1.89,0,0,1,1.88-1.89h4.13l-2.92-2.94a1.9,1.9,0,0,1,0-2.68l4.71-4.75Zm27.71,24.21h17.55a1.24,1.24,0,0,0,1.23-1.23v-1.37H574.46l2.6,2.6Zm3.08-6.45h20.8a1.25,1.25,0,0,0,1.25-1.23v-1.37H580.14V698Zm-.16-6.35h27.31a1.24,1.24,0,0,0,1.24-1.24V655.18H597.85a5,5,0,0,1-5-5V639.89H567a1.25,1.25,0,0,0-1.24,1.24v36.31a3.63,3.63,0,0,1,.63,1.3v4.13l2.88-2.92a1.9,1.9,0,0,1,2.67,0l5.14,5.15a1.88,1.88,0,0,1,0,2.67l-2.92,2.87h4.13C579,690.68,580,691.68,580,691.68ZM562,676.92V646.34h-1.36a1.24,1.24,0,0,0-1.24,1.24v29.34Zm10.84-30.4a2.36,2.36,0,1,0-2.35,2.35A2.35,2.35,0,0,0,572.88,646.52Zm15.71-2.35a2.35,2.35,0,1,0,2.35,2.35A2.35,2.35,0,0,0,588.59,644.17Zm-9,0a2.35,2.35,0,1,0,2.35,2.35,2.35,2.35,0,0,0-2.35-2.35Zm18.36,7.26h8l-9.2-9v7.73a1.23,1.23,0,0,0,1.24,1.24Zm-9.32,8.32a1.88,1.88,0,0,1,3.64,1l-6.41,23.94a1.88,1.88,0,0,1-3.64-1Zm5.78,6.19a1.88,1.88,0,0,1,2.66-2.66l7.6,7.59a1.89,1.89,0,0,1,0,2.66l-7.6,7.6a1.88,1.88,0,0,1-2.66-2.67l6.25-6.26-6.25-6.26Zm-31.72,18.11v-3.39h-3.53V684c0,1.78-4.27,3.57-5.5,2.32l-2.53-2.55-2.48,2.5,2.53,2.55c1.27,1.29-.49,5.55-2.28,5.55h-3.58v3.54h3.47c1.78,0,3.57,4.26,2.32,5.49L548.53,706l2.5,2.48,2.55-2.53c1.29-1.27,5.55.49,5.55,2.28v3.58h3.53V708.3c0-1.78,4.24-3.57,5.46-2.33l2.51,2.55,2.46-2.5-2.51-2.55c-1.26-1.29.49-5.54,2.26-5.54h3.55v-3.54h-3.52c-1.75,0-3.51-4.3-2.29-5.55l2.51-2.55-2.46-2.5-2.51,2.55c-1.23,1.24-5.46-.54-5.46-2.29Zm-1.81,7.66a4.5,4.5,0,1,0,4.49,4.5A4.51,4.51,0,0,0,560.85,691.71Z" transform="translate(-30.99 -38)"/><path class="cls-11" d="M661.29,227.09l.49-2.76a28.33,28.33,0,0,0-6-.4c-4.43.2-8,1.61-10.59,4.19a14.12,14.12,0,0,0-3.79,7.1v0a21.76,21.76,0,0,0-.38,6.49l2.82-.25a19.21,19.21,0,0,1,.33-5.66,11.38,11.38,0,0,1,3-5.72,12.81,12.81,0,0,1,8.71-3.37A26.65,26.65,0,0,1,661.29,227.09Z" transform="translate(-30.99 -38)"/><path class="cls-11" d="M649.83,259.07c-.85-1.55-1.63-3.1-2.31-4.61l-2.59,1.15c.72,1.58,1.53,3.2,2.42,4.81Z" transform="translate(-30.99 -38)"/><path class="cls-11" d="M641.85,246.71c.29,1.25.66,2.55,1.1,3.86l2.69-.88c-.41-1.23-.76-2.45-1-3.62Z" transform="translate(-30.99 -38)"/><path class="cls-11" d="M651.24,266.71c.88,1.29,1.83,2.6,2.82,3.88l.34.45,2.25-1.71-.33-.43c-1-1.25-1.88-2.52-2.74-3.77Z" transform="translate(-30.99 -38)"/><path class="cls-11" d="M662.52,276.17c-.71-.75-1.4-1.52-2.08-2.27l-.49-.56-2.14,1.83.51.58c.69.78,1.41,1.56,2.13,2.33l1,1,2-1.95Z" transform="translate(-30.99 -38)"/><path class="cls-11" d="M716.14,270.81l-2.59,1.13a42.7,42.7,0,0,1,3.21,10.32c1,6-.1,10.74-3.08,13.7a11.5,11.5,0,0,1-5.7,3,20.23,20.23,0,0,1-6.31.3c-.57-.06-1.16-.13-1.75-.23l-.44,2.78c.64.1,1.29.18,1.92.24.88.08,1.75.13,2.59.13a21.67,21.67,0,0,0,4.61-.48,14.27,14.27,0,0,0,7.08-3.74c3.65-3.61,5-9.19,3.87-16.12A45.09,45.09,0,0,0,716.14,270.81Z" transform="translate(-30.99 -38)"/><path class="cls-11" d="M713,264.57,710.49,266c.66,1.14,1.28,2.28,1.84,3.4l2.54-1.24C714.28,267,713.64,265.75,713,264.57Z" transform="translate(-30.99 -38)"/><path class="cls-11" d="M709.94,259.75c-1-1.42-2-2.84-3-4.21l-2.26,1.69c1,1.33,2,2.71,3,4.09Z" transform="translate(-30.99 -38)"/><path class="cls-11" d="M699.91,247.4l-2,1.94c1.2,1.25,2.37,2.54,3.5,3.85l2.15-1.82C702.37,250,701.15,248.69,699.91,247.4Z" transform="translate(-30.99 -38)"/><path class="cls-11" d="M696.3,293.12a1.43,1.43,0,0,0-1.75-1,1.41,1.41,0,0,0-1,1.73h0l1.13,3.89a54.35,54.35,0,0,1-9.28-3.89,79.75,79.75,0,0,1-11.81-7.65,96.53,96.53,0,0,1-7.88-6.82l-2,2a98.41,98.41,0,0,0,8.1,7,82.75,82.75,0,0,0,12.23,7.92,60.4,60.4,0,0,0,7.63,3.38l-2.31.66a1.4,1.4,0,1,0,.74,2.7h0l7-2a1.4,1.4,0,0,0,1-1.73Z" transform="translate(-30.99 -38)"/><path class="cls-11" d="M674.59,225a1.42,1.42,0,0,0-1.68-1.08h0l-7.07,1.5a1.41,1.41,0,0,0-1.09,1.67l1.38,6.38a1.42,1.42,0,0,0,2.77-.59l-.86-4A54.84,54.84,0,0,1,675.2,232a79.11,79.11,0,0,1,11.67,7.46c1.73,1.32,3.47,2.76,5.17,4.26.94.84,1.89,1.71,2.82,2.6l1.23,1.2,2-2-1.26-1.23c-1-.91-1.93-1.81-2.91-2.67-1.75-1.55-3.54-3-5.32-4.39s-3.47-2.56-5.28-3.74c1-.56,2-1.1,3-1.59l-1.26-2.51c-1.22.6-2.47,1.26-3.71,2l.83,1.44q-2.78-1.75-5.7-3.28a56.24,56.24,0,0,0-5.23-2.42l2.21-.47a1.41,1.41,0,0,0,1.09-1.67Z" transform="translate(-30.99 -38)"/><path class="cls-11" d="M652.5,299.44a11.48,11.48,0,0,1-5.76-3c-2.09-2.06-3.23-5-3.4-8.63a24.79,24.79,0,0,1,.36-5.3l-2.79-.48a27.72,27.72,0,0,0-.4,5.9,15.22,15.22,0,0,0,4.23,10.5,14.34,14.34,0,0,0,7.16,3.75h0a22.65,22.65,0,0,0,4.57.47q1,0,2-.09l-.25-2.79A20.33,20.33,0,0,1,652.5,299.44Z" transform="translate(-30.99 -38)"/><path class="cls-11" d="M662.85,299l.64,2.74c1.27-.29,2.58-.66,3.91-1.1l-.9-2.66C665.26,298.43,664,298.77,662.85,299Z" transform="translate(-30.99 -38)"/><path class="cls-11" d="M671.32,296.16l1.15,2.56c1.6-.71,3.24-1.51,4.86-2.39L676,293.86C674.41,294.71,672.85,295.48,671.32,296.16Z" transform="translate(-30.99 -38)"/><path class="cls-11" d="M685.88,287.44c-1.21.91-2.43,1.79-3.65,2.61l1.6,2.32c1.25-.85,2.52-1.75,3.77-2.7l.44-.33-1.72-2.23Z" transform="translate(-30.99 -38)"/><path class="cls-11" d="M692.8,285.46c.79-.69,1.58-1.4,2.36-2.12l1-1-2-2-1,1c-.75.7-1.52,1.39-2.29,2.06l-.56.48,1.85,2.13Z" transform="translate(-30.99 -38)"/><path class="cls-11" d="M716.28,244.23l2.79.44c.1-.64.19-1.29.25-1.91a22.4,22.4,0,0,0-.36-7.13,14.11,14.11,0,0,0-3.77-7c-3.65-3.61-9.27-4.94-16.27-3.83a46.43,46.43,0,0,0-11.1,3.38l1.14,2.57a44.05,44.05,0,0,1,10.41-3.18c6.06-1,10.84.09,13.82,3.05a11.26,11.26,0,0,1,3,5.65,19.86,19.86,0,0,1,.3,6.25C716.44,243.06,716.37,243.64,716.28,244.23Z" transform="translate(-30.99 -38)"/><path class="cls-11" d="M674.11,239.55c1.35-1,2.73-2,4.13-2.93l-1.58-2.33c-1.44,1-2.87,2-4.26,3Z" transform="translate(-30.99 -38)"/><path class="cls-11" d="M666.15,246.26c1.26-1.19,2.57-2.35,3.89-3.47l-1.84-2.13c-1.36,1.14-2.71,2.35-4,3.57Z" transform="translate(-30.99 -38)"/><path class="cls-11" d="M718.77,246.65a1.4,1.4,0,0,0-1.74-1l-.07,0-6.51,2.14a1.41,1.41,0,0,0,.89,2.67l3.73-1.23a53.89,53.89,0,0,1-4,9.33,79.14,79.14,0,0,1-7.72,11.7,94.51,94.51,0,0,1-6.89,7.81l2,2a100,100,0,0,0,7.09-8,83.19,83.19,0,0,0,8-12.12,59.7,59.7,0,0,0,3.63-8.18l.79,2.89a1.43,1.43,0,0,0,1.75,1,1.4,1.4,0,0,0,1-1.71Z" transform="translate(-30.99 -38)"/><path class="cls-11" d="M643.38,279.11a1.53,1.53,0,0,0,.3,0l6.44-1.36a1.41,1.41,0,1,0-.59-2.75l-4,.85a53.48,53.48,0,0,1,3.15-7.09,79.4,79.4,0,0,1,7.53-11.57c1.34-1.71,2.78-3.43,4.3-5.12.84-.94,1.73-1.88,2.63-2.8l1.2-1.22-2-2c-.42.41-.84.84-1.24,1.25-.93,1-1.83,1.92-2.7,2.88-1.57,1.74-3.06,3.51-4.43,5.27a82.4,82.4,0,0,0-7.79,12,55.71,55.71,0,0,0-2.44,5.19l-.48-2.19a1.41,1.41,0,0,0-2.77.56v0l1.51,7A1.4,1.4,0,0,0,643.38,279.11Z" transform="translate(-30.99 -38)"/><path class="cls-11" d="M692.71,266a11.18,11.18,0,0,0-3.63-8.2,12.32,12.32,0,0,0-9.12-3.23,12.09,12.09,0,0,0-7.93,3.57A11.17,11.17,0,0,0,668.7,266a11.44,11.44,0,0,0,6.16,10v6.55a1.33,1.33,0,0,0,1.34,1.33h8.86a1.47,1.47,0,0,0,1.48-1.46v-6.39A11.58,11.58,0,0,0,692.71,266Zm-21.15,0a8.35,8.35,0,0,1,2.49-5.87,9.25,9.25,0,0,1,6.07-2.73,9.43,9.43,0,0,1,7,2.48,8.33,8.33,0,0,1,2.72,6.15,8.69,8.69,0,0,1-5.32,7.88,1.37,1.37,0,0,0-.81,1.28v.14h-6v-.18a1.38,1.38,0,0,0-.83-1.29A8.52,8.52,0,0,1,671.56,266Zm6.13,15.12v-3h6v3Z" transform="translate(-30.99 -38)"/><path class="cls-11" d="M679.28,246.26v5.09a1.43,1.43,0,0,0,1.21,1.43,1.41,1.41,0,0,0,1.63-1.38v-5.1a1.44,1.44,0,0,0-1.21-1.43A1.41,1.41,0,0,0,679.28,246.26Z" transform="translate(-30.99 -38)"/><path class="cls-11" d="M660.47,264.08a1.41,1.41,0,0,0-1.4,1.61,1.44,1.44,0,0,0,1.44,1.2h5.31a1.45,1.45,0,0,0,1.45-1.2,1.41,1.41,0,0,0-1.4-1.61Z" transform="translate(-30.99 -38)"/><path class="cls-11" d="M700.8,264.08h-5.36a1.44,1.44,0,0,0-1.44,1.2,1.4,1.4,0,0,0,1.4,1.61h5.4a1.41,1.41,0,0,0,1.41-1.4h0A1.41,1.41,0,0,0,700.8,264.08Z" transform="translate(-30.99 -38)"/><path class="cls-11" d="M670.23,256.91a1.41,1.41,0,0,0,1.41-1.4,1.39,1.39,0,0,0-.44-1l-3.84-3.62a1.43,1.43,0,0,0-2,0,1.4,1.4,0,0,0,0,2h0l3.84,3.61A1.41,1.41,0,0,0,670.23,256.91Z" transform="translate(-30.99 -38)"/><path class="cls-11" d="M693.91,250.87l-3.85,3.62a1.39,1.39,0,0,0,0,2,1.42,1.42,0,0,0,2,0l3.85-3.61a1.41,1.41,0,0,0,0-2,1.43,1.43,0,0,0-2,0Z" transform="translate(-30.99 -38)"/><path class="cls-32" d="M387.29,402c0-10.25,10.54-15.07,10.54-15.07l-12.05-27.12h-3.44" transform="translate(-30.99 -38)"/><path class="cls-32" d="M378.25,402c0-10.25-10.55-15.07-10.55-15.07l12.05-27.12h2.59" transform="translate(-30.99 -38)"/><line class="cls-32" x1="351.35" y1="321.83" x2="351.35" y2="338.41"/><rect class="cls-32" x="334.77" y="364.02" width="33.15" height="10.55"/><circle class="cls-32" cx="351.78" cy="342.09" r="3.01"/><rect class="cls-32" x="370.94" y="330.87" width="6.03" height="6.03"/><rect class="cls-32" x="348.34" y="305.26" width="6.03" height="6.03"/><rect class="cls-32" x="325.73" y="330.87" width="6.03" height="6.03"/><path class="cls-32" d="M379.75,347.09a22.74,22.74,0,0,0-19.59,22.45" transform="translate(-30.99 -38)"/><path class="cls-32" d="M405.37,369.54a22.74,22.74,0,0,0-19.59-22.45" transform="translate(-30.99 -38)"/><line class="cls-32" x1="354.36" y1="308.27" x2="379.98" y2="308.27"/><rect class="cls-32" x="379.98" y="305.26" width="6.03" height="6.03"/><line class="cls-32" x1="348.34" y1="308.27" x2="322.72" y2="308.27"/><rect class="cls-32" x="316.69" y="305.26" width="6.03" height="6.03"/><path class="cls-11" d="M425.6,624.38l-9.45,22.56a1.08,1.08,0,0,1-1.36.56,1,1,0,0,1-.44-.4L408.74,640l-15.15,12.87a1,1,0,0,1-1.4-.12s-.08-.12-.12-.16l-4-6.7-26.72,24a1,1,0,0,1-1.45-.08.72.72,0,0,1-.2-.28l-3.08-5.93-14.07,12.14a1,1,0,0,1-1.4,0l-2.68-2.68a1,1,0,0,1,0-1.44l19.19-16.55a1,1,0,0,1,1.44.08c0,.08.12.16.16.24l3.09,5.93,26.68-24a1,1,0,0,1,1.41.08.4.4,0,0,1,.16.2l4,6.69,10.5-8.93-5.37-6.77a1.11,1.11,0,0,1,.16-1.45,2.45,2.45,0,0,1,.48-.2l24.16-4a1,1,0,0,1,1.16.84A.88.88,0,0,1,425.6,624.38Z" transform="translate(-30.99 -38)"/><path class="cls-11" d="M351.61,678.35h5.05a1,1,0,0,1,1,1v16.18a1,1,0,0,1-1,1h-5.05a1,1,0,0,1-1-1V679.36A1,1,0,0,1,351.61,678.35Z" transform="translate(-30.99 -38)"/><path class="cls-11" d="M379.58,662.45h5a1,1,0,0,1,1.05,1v32a1,1,0,0,1-1,1h-5a1,1,0,0,1-1.05-1v-32A1,1,0,0,1,379.58,662.45Z" transform="translate(-30.99 -38)"/><path class="cls-11" d="M408.18,659.28h5.05a1,1,0,0,1,1,1v35.26a1,1,0,0,1-1,1h-5.05a1,1,0,0,1-1-1V660.28A1,1,0,0,1,408.18,659.28Z" transform="translate(-30.99 -38)"/><path class="cls-11" d="M366.07,673.31h5a1,1,0,0,1,1,1v21.19a1,1,0,0,1-1,1H366a1,1,0,0,1-1-1V674.35A1,1,0,0,1,366.07,673.31Z" transform="translate(-30.99 -38)"/><path class="cls-11" d="M392.28,671.46h5.05a1,1,0,0,1,1,1v23.08a1,1,0,0,1-1,1h-5.05a1,1,0,0,1-1-1V672.46A1,1,0,0,1,392.28,671.46Z" transform="translate(-30.99 -38)"/><path class="cls-11" d="M449.2,234l1.17,1.71a12.07,12.07,0,0,0,5.29,4.32l1.9.81L455.85,242a12.18,12.18,0,0,0-4.32,5.28l-.81,1.91-1.16-1.71a12.13,12.13,0,0,0-5.29-4.32l-1.9-.81,1.7-1.17a12.13,12.13,0,0,0,4.33-5.28Z" transform="translate(-30.99 -38)"/><path class="cls-11" d="M473,109.77l2.14,3.13a22.3,22.3,0,0,0,9.67,7.91l3.49,1.48-3.13,2.13a22.23,22.23,0,0,0-7.91,9.67l-1.48,3.49-2.14-3.13a22.28,22.28,0,0,0-9.66-7.91l-3.49-1.48,3.12-2.13a22.26,22.26,0,0,0,7.92-9.67Z" transform="translate(-30.99 -38)"/><path class="cls-11" d="M501.57,153l2.89,4.22a30,30,0,0,0,13,10.66l4.7,2L518,172.72a30,30,0,0,0-10.67,13l-2,4.7-2.88-4.21a30,30,0,0,0-13-10.67l-4.7-2,4.21-2.88a29.93,29.93,0,0,0,10.67-13Z" transform="translate(-30.99 -38)"/><path class="cls-11" d="M532.66,509.79l1.17,1.71a12.1,12.1,0,0,0,5.28,4.32l1.91.81-1.71,1.17a12.18,12.18,0,0,0-4.32,5.28l-.81,1.91L533,523.28a12,12,0,0,0-5.28-4.32l-1.9-.81,1.7-1.17a12.13,12.13,0,0,0,4.33-5.28Z" transform="translate(-30.99 -38)"/><path class="cls-11" d="M585,428.73l2.89,4.22a29.88,29.88,0,0,0,13,10.66l4.7,2-4.21,2.89a30,30,0,0,0-10.67,13l-2,4.7L585.9,462a30,30,0,0,0-13-10.67l-4.7-2,4.21-2.88a30,30,0,0,0,10.67-13Z" transform="translate(-30.99 -38)"/></svg>