<svg xmlns="http://www.w3.org/2000/svg" xmlns:xlink="http://www.w3.org/1999/xlink" viewBox="0 0 1056.95 739.49"><defs><style>.cls-1{isolation:isolate;}.cls-2{fill:#c0e5c0;}.cls-3{fill:#8ab887;}.cls-4{fill:#cce3ff;}.cls-15,.cls-5{fill:#91b3fa;}.cls-6{fill:#e4eafc;}.cls-7{fill:#fff;}.cls-15,.cls-24,.cls-43,.cls-8{opacity:0.3;}.cls-15,.cls-27,.cls-8,.cls-9{mix-blend-mode:multiply;}.cls-9{fill:#d1d4fb;}.cls-10{fill:url(#linear-gradient);}.cls-11{fill:#1a2e36;}.cls-12{fill:url(#linear-gradient-2);}.cls-13{fill:url(#linear-gradient-3);}.cls-14{fill:url(#linear-gradient-4);}.cls-16{fill:#f96755;}.cls-17{fill:#6798ca;}.cls-18{fill:#f47067;}.cls-19{fill:#3178a3;}.cls-20{fill:url(#linear-gradient-5);}.cls-21{fill:#497ab7;}.cls-22{fill:#78add4;}.cls-23{fill:#00448e;}.cls-24{mix-blend-mode:color-burn;}.cls-25{fill:url(#linear-gradient-6);}.cls-26{fill:#e1e1e1;}.cls-27{fill:url(#linear-gradient-7);}.cls-28{fill:#406b91;opacity:0.72;}.cls-29{fill:#ffbf9d;}.cls-30{fill:#4d4d4d;}.cls-31,.cls-34{fill:#1a2e35;}.cls-32{fill:#ffaba1;}.cls-33,.cls-34{opacity:0.1;}.cls-35{fill:#375a64;}.cls-36{fill:#dd9373;}.cls-37{fill:#c17e67;}.cls-38{fill:#89705d;}.cls-39{fill:#d1945d;}.cls-40{fill:#c18859;}.cls-41{fill:#16282d;}.cls-42{fill:#9fc9ff;}</style><linearGradient id="linear-gradient" x1="237.53" y1="228.92" x2="237.06" y2="231.07" gradientUnits="userSpaceOnUse"><stop offset="0" stop-color="#ebeff2"/><stop offset="1" stop-color="#fff"/></linearGradient><linearGradient id="linear-gradient-2" x1="856.83" y1="93.33" x2="864.19" y2="93.33" gradientUnits="userSpaceOnUse"><stop offset="0" stop-color="#ff9085"/><stop offset="1" stop-color="#fb6fbb"/></linearGradient><linearGradient id="linear-gradient-3" x1="871.96" y1="93.82" x2="879.27" y2="93.82" xlink:href="#linear-gradient-2"/><linearGradient id="linear-gradient-4" x1="887" y1="94.3" x2="894.28" y2="94.3" xlink:href="#linear-gradient-2"/><linearGradient id="linear-gradient-5" x1="-2720.98" y1="-1029.09" x2="-2626.23" y2="-1029.09" gradientTransform="matrix(0, -1, -1, 0, -95.72, -2465.11)" xlink:href="#linear-gradient"/><linearGradient id="linear-gradient-6" x1="-2719.25" y1="-971.88" x2="-2648.71" y2="-1074.82" gradientTransform="matrix(-0.84, -0.55, -0.55, 0.84, -1868.16, -389.64)" gradientUnits="userSpaceOnUse"><stop offset="0" stop-color="#444b8c"/><stop offset="1" stop-color="#26264f"/></linearGradient><linearGradient id="linear-gradient-7" x1="-2720.98" y1="-1027.54" x2="-2626.23" y2="-1027.54" gradientTransform="matrix(-0.84, -0.55, -0.55, 0.84, -1868.16, -389.64)" xlink:href="#linear-gradient"/></defs><title>shopillusztracio</title><g class="cls-1"><g id="Layer_1" data-name="Layer 1"><path class="cls-2" d="M108.63,550.68c-2.1-6.92-1.16-14.44,1.29-21.25,1.31-3.66,3.16-7.38,6.47-9.43s8.37-1.62,10.27,1.77c1.13,2,.9,4.51.45,6.78C126,534,124,540,126.46,545c1.42,2.85,4.25,5.1,4.63,8.26s-2,6.09-4.89,7.16a12.34,12.34,0,0,1-9.09-.76A13.85,13.85,0,0,1,108.63,550.68Z" transform="translate(-23.05 -18.97)"/><path class="cls-2" d="M78,560c6.23-2.85,5.78-10.7,3-14.81s-7.35-6.47-11.76-8.66c-10.09-5-20.69-10.16-31.95-9.87a18.46,18.46,0,0,0-9.64,2.55c-2.82,1.83-4.89,5.07-4.63,8.43.3,4,3.58,7,6.8,9.36a79.35,79.35,0,0,0,32,13.82c5.38,1,11.14,1.4,16.14-.82" transform="translate(-23.05 -18.97)"/><path class="cls-2" d="M84,572.11c-4.21-5.11-11.33-7.24-17.92-6.52s-12.66,4-17.89,8A59.86,59.86,0,0,0,33,591.12a21.36,21.36,0,0,0-3.12,8.55c-.26,3,.72,6.34,3.12,8.22,3.56,2.79,8.7,1.69,13,.26a152.5,152.5,0,0,0,22-9.28c5.68-3,11.4-6.47,14.73-12s4.19-11.63.68-15.5" transform="translate(-23.05 -18.97)"/><path class="cls-3" d="M161.27,575.58a13,13,0,0,0-2.45-.81l-6.72-1.92a102.3,102.3,0,0,1-9.77-3.38,79.16,79.16,0,0,1-11.18-5.83,44.3,44.3,0,0,1-9.62-8,23,23,0,0,1-5-8.82,21.8,21.8,0,0,1-.83-6.82,12.42,12.42,0,0,0,.1-2.56,11.83,11.83,0,0,0-.51,2.53,20,20,0,0,0,.52,7,23.07,23.07,0,0,0,4.94,9.25,43.32,43.32,0,0,0,9.79,8.28A74.22,74.22,0,0,0,142,570.37a87.74,87.74,0,0,0,9.92,3.2c2.87.75,5.21,1.26,6.83,1.6A12.23,12.23,0,0,0,161.27,575.58Z" transform="translate(-23.05 -18.97)"/><path class="cls-3" d="M156.08,574.14a5.42,5.42,0,0,0-1.15-.28l-3.33-.6c-2.89-.52-7.07-1.29-12.21-2.39-10.28-2.15-21.23-5.08-36.59-9.67-14.43-4.33-31.18-9.66-41.91-14-2.44-1-4.64-1.87-6.55-2.71s-3.57-1.51-4.9-2.13L46.34,541a4.89,4.89,0,0,0-1.11-.42,5.33,5.33,0,0,0,1,.61l3,1.55c1.31.68,2.94,1.43,4.84,2.3s4.07,1.86,6.51,2.86a383.08,383.08,0,0,0,38.75,13.75c15.39,4.6,29.54,8,39.88,10,5.17,1,9.38,1.67,12.3,2.07l3.36.4A4.78,4.78,0,0,0,156.08,574.14Z" transform="translate(-23.05 -18.97)"/><path class="cls-3" d="M128.52,569a21.34,21.34,0,0,0-3.48-.62c-2.26-.28-5.55-.56-9.62-.66a126,126,0,0,0-14.3.55,112.86,112.86,0,0,0-17.3,2.76c-12.17,2.69-22.59,7.47-29.34,12a46.64,46.64,0,0,0-4.42,3.29c-.62.52-1.24,1-1.74,1.44L47,589.16a23.18,23.18,0,0,0-2.41,2.59c.2.2,3.53-3.65,10.33-8a92.59,92.59,0,0,1,29.17-11.65,130.71,130.71,0,0,1,17.16-2.82c5.32-.58,10.14-.73,14.19-.77s7.32.18,9.59.33A23.5,23.5,0,0,0,128.52,569Z" transform="translate(-23.05 -18.97)"/><path class="cls-2" d="M166.26,585.13c3.84,1.36,4,6,2.6,8.6s-4,4.22-6.49,5.76c-5.7,3.51-11.69,7.12-18.37,7.55a10.9,10.9,0,0,1-5.84-1,5.72,5.72,0,0,1-3.2-4.74c0-2.36,1.75-4.34,3.53-5.9a47,47,0,0,1,18.18-9.89c3.13-.89,6.52-1.43,9.59-.39" transform="translate(-23.05 -18.97)"/><path class="cls-2" d="M169.15,577.67c-2.22,3.25-6.31,4.89-10.25,4.82a21.56,21.56,0,0,1-11-3.8,35.55,35.55,0,0,1-9.91-9.53,12.5,12.5,0,0,1-2.3-4.89,5.58,5.58,0,0,1,1.4-5c2-1.84,5.06-1.47,7.67-.85a90.2,90.2,0,0,1,13.5,4.31c3.52,1.44,7.1,3.22,9.36,6.28s3.1,6.66,1.23,9.13" transform="translate(-23.05 -18.97)"/><path class="cls-3" d="M211.7,572.6a2.79,2.79,0,0,1-.66.23l-1.94.53c-1.69.47-4.12,1.15-7.1,2.07-6,1.83-12.29,4.15-21.13,7.69-8.31,3.33-17.93,7.39-24,10.53-1.4.7-2.65,1.36-3.73,2s-2,1.09-2.79,1.53l-1.76,1a2.92,2.92,0,0,1-.63.31,2.68,2.68,0,0,1,.57-.41c.44-.29,1-.65,1.7-1.08s1.66-1,2.74-1.63,2.31-1.31,3.69-2a227.92,227.92,0,0,1,22.19-10.21c8.86-3.55,17.05-6.32,23.07-8,3-.87,5.45-1.49,7.16-1.88l2-.42A3.26,3.26,0,0,1,211.7,572.6Z" transform="translate(-23.05 -18.97)"/><path class="cls-3" d="M193.64,576a14.58,14.58,0,0,1-2,.55c-1.32.29-3.25.63-5.65.91a74.87,74.87,0,0,1-8.49.44,66.6,66.6,0,0,1-10.38-.71,52,52,0,0,1-18-5.55,24.9,24.9,0,0,1-2.79-1.71c-.4-.27-.79-.5-1.11-.75l-.87-.72a13.62,13.62,0,0,1-1.56-1.4,63.73,63.73,0,0,0,6.54,4.19,55,55,0,0,0,17.88,5.32,76.84,76.84,0,0,0,10.3.75c3.18.06,6.05-.11,8.44-.3s4.33-.5,5.66-.71A13.6,13.6,0,0,1,193.64,576Z" transform="translate(-23.05 -18.97)"/><path class="cls-3" d="M84.82,487.14a8.87,8.87,0,0,0,1.61-.07l4.6-.41c2-.2,4.44-.43,7.28-.61s6.07-.49,9.65-.61c7.15-.41,15.68-.56,25.14-.42s19.87.8,30.73,1.93,21.15,2.85,30.44,4.64,17.59,3.84,24.49,5.75c3.47.88,6.56,1.86,9.3,2.65s5.07,1.52,7,2.14l4.4,1.38a8.3,8.3,0,0,0,1.57.4,8.73,8.73,0,0,0-1.49-.63l-4.34-1.58c-1.88-.7-4.2-1.51-6.93-2.35s-5.8-1.89-9.26-2.82c-6.89-2-15.2-4.07-24.5-6S174.86,487,164,485.77s-21.34-1.68-30.84-1.84-18.05.16-25.21.67c-3.59.17-6.82.54-9.66.79s-5.28.54-7.27.82l-4.58.63A6.74,6.74,0,0,0,84.82,487.14Z" transform="translate(-23.05 -18.97)"/><path class="cls-2" d="M135.89,486a26.8,26.8,0,0,0-16.18,8.08c-1.45,1.52-2.8,3.55-2.29,5.59.68,2.71,4.11,3.64,6.9,3.46a19.79,19.79,0,0,0,12.58-5.72c3.32-3.33,5.25-6.67,5.54-11.37" transform="translate(-23.05 -18.97)"/><path class="cls-2" d="M170.77,488.07c-7.28.38-18.25,3.83-23.71,8.65a8.58,8.58,0,0,0-2.21,2.63,3.54,3.54,0,0,0,0,3.32c.87,1.4,2.78,1.68,4.43,1.67a28.44,28.44,0,0,0,25.08-16.28" transform="translate(-23.05 -18.97)"/><path class="cls-2" d="M202.22,493.54a41.24,41.24,0,0,0-19.31,9.7c-1.27,1.14-2.55,2.54-2.6,4.25-.07,2.59,2.74,4.36,5.32,4.67,5.3.64,10.3-2.46,14.39-5.89,4.41-3.69,8.81-10.86,8.81-10.86" transform="translate(-23.05 -18.97)"/><path class="cls-2" d="M212.32,494.07a126.83,126.83,0,0,1-13-19.43c-.58-1.07-1.15-2.39-.54-3.45a2.43,2.43,0,0,1,2.46-1,6.07,6.07,0,0,1,2.54,1.17c7.73,5.27,12.63,14.9,13,24.25" transform="translate(-23.05 -18.97)"/><path class="cls-2" d="M184.68,488.81Q178.33,480.92,172,473a15.54,15.54,0,0,1-3-4.89,5.26,5.26,0,0,1,1.06-5.38,5.18,5.18,0,0,1,5.43-.66A13.48,13.48,0,0,1,180,465.6a38.21,38.21,0,0,1,7.82,11.2c1.77,4.23,2.72,7.93,1.13,12.23" transform="translate(-23.05 -18.97)"/><path class="cls-2" d="M153.32,484.07A44.78,44.78,0,0,1,137,467.43a7.48,7.48,0,0,1-1.23-3.7c0-2.62,2.65-4.62,5.26-4.92a10.59,10.59,0,0,1,8.08,2.89,22.33,22.33,0,0,1,5,7.22,51.83,51.83,0,0,1,4.62,15.58" transform="translate(-23.05 -18.97)"/><path class="cls-2" d="M125.25,483.86c-8.64-3.08-15.07-9.25-21.14-16.12-1.28-1.45-2.56-3.37-1.88-5.18a3.71,3.71,0,0,1,2.8-2.15,8.57,8.57,0,0,1,3.66.25,28,28,0,0,1,20.8,23" transform="translate(-23.05 -18.97)"/><path class="cls-2" d="M111,485a74.31,74.31,0,0,0-13.65-3.34,25.07,25.07,0,0,0-13.76,1.88,10.7,10.7,0,0,0-4.6,3.8,5.88,5.88,0,0,0-.43,5.76,6.22,6.22,0,0,0,4.53,3,15.56,15.56,0,0,0,5.56-.31c8.77-1.66,18.87-5.38,22.35-10.74" transform="translate(-23.05 -18.97)"/><path class="cls-3" d="M147.28,377.73a8.11,8.11,0,0,0,1.14,1.15l3.42,3.1c1.5,1.33,3.32,3,5.38,4.93s4.48,4.13,7,6.68c5.15,5,11,11.15,17.36,18.2s12.88,15.14,19.41,23.9,12.24,17.48,17.22,25.53,9.1,15.52,12.38,21.89c1.71,3.15,3.08,6.09,4.35,8.64s2.32,4.76,3.16,6.58,1.47,3.11,2,4.17a8.82,8.82,0,0,0,.77,1.43,8.58,8.58,0,0,0-.55-1.52l-1.77-4.27c-.77-1.85-1.75-4.11-3-6.68s-2.54-5.55-4.21-8.73c-3.18-6.43-7.3-13.93-12.18-22.08s-10.7-16.84-17.21-25.66-13.23-16.83-19.55-23.92S170,397.91,164.8,393c-2.56-2.51-5-4.64-7.13-6.56s-4-3.51-5.53-4.79l-3.57-2.94A8.63,8.63,0,0,0,147.28,377.73Z" transform="translate(-23.05 -18.97)"/><path class="cls-2" d="M182.76,414.48a26.8,26.8,0,0,0-16.91-6.41c-2.11,0-4.51.35-5.66,2.1-1.54,2.34.1,5.49,2.13,7.42A19.78,19.78,0,0,0,175.05,423c4.7.18,8.47-.66,12.11-3.63" transform="translate(-23.05 -18.97)"/><path class="cls-2" d="M204.86,441.55c-5.22-5.1-15.18-10.82-22.44-11.57a8.61,8.61,0,0,0-3.43.17,3.52,3.52,0,0,0-2.42,2.26c-.44,1.6.65,3.19,1.78,4.39a28.41,28.41,0,0,0,29,7.41" transform="translate(-23.05 -18.97)"/><path class="cls-2" d="M222.15,468.38a41.16,41.16,0,0,0-20.22-7.62c-1.7-.16-3.59-.16-4.88,1-2,1.7-1.35,5,.17,7.07,3.12,4.33,8.8,5.91,14.09,6.6,5.7.74,14-.89,14-.89" transform="translate(-23.05 -18.97)"/><path class="cls-2" d="M213.74,452.28l3-20a15.67,15.67,0,0,1,1.55-5.54,5.28,5.28,0,0,1,4.68-2.87,5.21,5.21,0,0,1,4.16,3.54,13.73,13.73,0,0,1,.49,5.71,38.32,38.32,0,0,1-2.94,13.35c-1.91,4.16-4,7.37-8.22,9.12" transform="translate(-23.05 -18.97)"/><path class="cls-2" d="M196,426a44.68,44.68,0,0,1,1.15-23.31,7.52,7.52,0,0,1,1.88-3.42c2-1.74,5.2-1.17,7.19.54a10.6,10.6,0,0,1,3.35,7.9,22.5,22.5,0,0,1-1.91,8.59,51.6,51.6,0,0,1-8.32,14" transform="translate(-23.05 -18.97)"/><path class="cls-2" d="M177.09,405.23c-3.59-8.43-3.41-17.35-2.47-26.47.19-1.92.73-4.16,2.52-4.89a3.74,3.74,0,0,1,3.49.6,8.91,8.91,0,0,1,2.3,2.86,28.08,28.08,0,0,1-2.78,30.86" transform="translate(-23.05 -18.97)"/><path class="cls-2" d="M166.61,395.53a74,74,0,0,0-6.8-12.3,25,25,0,0,0-10.71-8.84,10.75,10.75,0,0,0-5.91-.8,5.9,5.9,0,0,0-4.53,3.58,6.23,6.23,0,0,0,.9,5.34,15.88,15.88,0,0,0,4,3.87c7.16,5.32,16.74,10.22,23,9.15" transform="translate(-23.05 -18.97)"/><path class="cls-3" d="M1023.27,376.39a8.48,8.48,0,0,0-.82,1.39l-2.13,4.09c-.91,1.79-2,4-3.41,6.46s-2.86,5.37-4.69,8.45c-3.52,6.24-8,13.51-13.22,21.4S987.61,434.47,980.79,443,967,459.27,960.46,466.13s-12.72,12.74-18.05,17.52c-2.62,2.45-5.11,4.52-7.25,6.4s-4,3.45-5.57,4.72l-3.54,3a7.93,7.93,0,0,0-1.18,1.1,7.78,7.78,0,0,0,1.33-.91l3.68-2.79c1.6-1.22,3.53-2.73,5.71-4.57s4.72-3.87,7.38-6.28c5.42-4.72,11.63-10.6,18.28-17.39s13.57-14.61,20.47-23.14,12.93-17.06,18.19-25,9.6-15.28,13-21.59c1.79-3.11,3.23-6,4.54-8.55s2.4-4.74,3.24-6.56l1.94-4.2A8,8,0,0,0,1023.27,376.39Z" transform="translate(-23.05 -18.97)"/><path class="cls-2" d="M996.7,420a26.84,26.84,0,0,0,1.93-18c-.5-2-1.48-4.27-3.48-4.94-2.65-.9-5.28,1.49-6.63,3.94a19.76,19.76,0,0,0-2,13.67c1,4.6,2.78,8,6.58,10.8" transform="translate(-23.05 -18.97)"/><path class="cls-2" d="M976.11,448.25c3.61-6.34,6.62-17.43,5.51-24.64a8.46,8.46,0,0,0-1-3.27,3.51,3.51,0,0,0-2.8-1.77c-1.65,0-2.92,1.43-3.8,2.83a28.43,28.43,0,0,0,.17,29.89" transform="translate(-23.05 -18.97)"/><path class="cls-2" d="M954.53,471.77a41.35,41.35,0,0,0,2.26-21.49c-.28-1.69-.77-3.52-2.18-4.48-2.14-1.46-5.15-.05-6.8,1.95-3.4,4.12-3.49,10-2.81,15.31.73,5.7,4.39,13.27,4.39,13.27" transform="translate(-23.05 -18.97)"/><path class="cls-2" d="M938.9,486.71c1.42-5.65,2.11-11.6,1-17.31a8.34,8.34,0,0,0-1.37-3.5,3.49,3.49,0,0,0-3.31-1.45c-2,.4-2.81,2.79-3.07,4.81a32.57,32.57,0,0,0,3.25,20" transform="translate(-23.05 -18.97)"/><path class="cls-2" d="M948.64,480a127.39,127.39,0,0,1,23.35-.43c1.21.09,2.63.33,3.19,1.41a2.42,2.42,0,0,1-.47,2.62,6.21,6.21,0,0,1-2.36,1.51c-8.61,3.66-19.36,2.59-27.45-2.12" transform="translate(-23.05 -18.97)"/><path class="cls-2" d="M968,459.56l20.16-2.18a15.59,15.59,0,0,1,5.74.1,5.28,5.28,0,0,1,4,3.8,5.19,5.19,0,0,1-2.37,4.92,13.6,13.6,0,0,1-5.4,1.92,38,38,0,0,1-13.65.53c-4.51-.79-8.14-2-10.91-5.64" transform="translate(-23.05 -18.97)"/><path class="cls-2" d="M988.89,435.71a44.94,44.94,0,0,1,22.83-4.79,7.62,7.62,0,0,1,3.78,1c2.19,1.45,2.46,4.73,1.31,7.09a10.65,10.65,0,0,1-6.8,5.25,22.59,22.59,0,0,1-8.79.32A51.82,51.82,0,0,1,985.61,440" transform="translate(-23.05 -18.97)"/><path class="cls-2" d="M1004.21,412.19c7.25-5.61,15.93-7.69,25-9.09,1.9-.3,4.21-.34,5.37,1.2a3.74,3.74,0,0,1,.3,3.53,8.72,8.72,0,0,1-2.18,2.94,28.08,28.08,0,0,1-30.56,5.13" transform="translate(-23.05 -18.97)"/><path class="cls-2" d="M1011,399.6a75.9,75.9,0,0,0,10.18-9.69A25.19,25.19,0,0,0,1027,377.3a10.85,10.85,0,0,0-.72-5.92,5.91,5.91,0,0,0-4.62-3.47,6.23,6.23,0,0,0-4.93,2.22A15.74,15.74,0,0,0,1014,375c-3.33,8.27-5.65,18.78-3,24.61" transform="translate(-23.05 -18.97)"/><path class="cls-2" d="M1006.54,536.19c6.31,3.53,10.85,9.61,13.8,16.21,1.59,3.55,2.84,7.52,1.88,11.28s-4.92,7-8.64,5.85c-2.21-.68-3.77-2.63-5-4.57-3-4.7-5.63-10.41-10.9-12.28-3-1.06-6.6-.72-9.07-2.74s-2.8-5.75-1.43-8.55a12.28,12.28,0,0,1,7.08-5.75A13.88,13.88,0,0,1,1006.54,536.19Z" transform="translate(-23.05 -18.97)"/><path class="cls-2" d="M1022.12,508.22c-2.51,6.38,3.25,11.72,8.07,12.79s9.78-.43,14.48-1.91c10.75-3.38,21.95-7,29.86-15a18.36,18.36,0,0,0,5.19-8.51c.76-3.28,0-7.05-2.51-9.29-3-2.66-7.44-2.57-11.39-2a79.19,79.19,0,0,0-32.64,12.22c-4.57,3-9,6.7-11.06,11.77" transform="translate(-23.05 -18.97)"/><path class="cls-2" d="M1009.44,503.66c6.58.77,13.19-2.64,17.44-7.72s6.38-11.65,7.32-18.2a59.83,59.83,0,0,0-1.19-23.12,21.12,21.12,0,0,0-3.68-8.32c-1.92-2.38-4.91-4.08-7.95-3.77-4.49.46-7.43,4.82-9.53,8.82a152.09,152.09,0,0,0-9.41,21.93c-2.05,6.06-3.73,12.57-2.34,18.82s5,11.29,10.26,11.64" transform="translate(-23.05 -18.97)"/><path class="cls-3" d="M951.34,554.74a12.56,12.56,0,0,0,2.32-1.11l6.19-3.28a97.19,97.19,0,0,1,9.38-4.33,79.38,79.38,0,0,1,12.1-3.56,44.48,44.48,0,0,1,12.49-.88,22.79,22.79,0,0,1,9.69,2.92,21.8,21.8,0,0,1,5.32,4.34,12.43,12.43,0,0,0,1.71,1.91,12.33,12.33,0,0,0-1.4-2.18,19.81,19.81,0,0,0-5.25-4.71,22.88,22.88,0,0,0-10-3.25,43.52,43.52,0,0,0-12.8.82,73,73,0,0,0-12.25,3.69,84.4,84.4,0,0,0-9.38,4.57c-2.59,1.45-4.63,2.7-6,3.58A11.09,11.09,0,0,0,951.34,554.74Z" transform="translate(-23.05 -18.97)"/><path class="cls-3" d="M956.07,552.18a5.07,5.07,0,0,0,1-.6l2.82-1.87c2.44-1.63,6-4,10.45-6.74,8.9-5.58,18.83-11.06,33.08-18.4,13.4-6.88,29.17-14.65,39.91-19,2.43-1,4.64-1.86,6.6-2.58s3.63-1.39,5-1.86l3.18-1.16a6,6,0,0,0,1.09-.47,4.77,4.77,0,0,0-1.16.27l-3.24,1c-1.42.41-3.12,1-5.09,1.69s-4.22,1.49-6.67,2.45a386.17,386.17,0,0,0-37.46,16.95c-14.28,7.36-26.84,14.72-35.66,20.47-4.42,2.85-7.91,5.3-10.29,7-1.1.83-2,1.51-2.71,2A5.29,5.29,0,0,0,956.07,552.18Z" transform="translate(-23.05 -18.97)"/><path class="cls-3" d="M979.49,536.77a21.9,21.9,0,0,0,2.94-2,96.3,96.3,0,0,0,7.39-6.19,125.47,125.47,0,0,0,9.92-10.3,113.49,113.49,0,0,0,10.56-14c6.9-10.38,11.1-21.05,12.8-29a44.66,44.66,0,0,0,.9-5.43c.09-.8.23-1.55.26-2.24s0-1.31,0-1.9a24,24,0,0,0,0-3.53c-.29,0,0,5.06-1.88,12.94a92.74,92.74,0,0,1-13,28.61A129.8,129.8,0,0,1,999,517.67c-3.44,4.11-6.81,7.56-9.7,10.39s-5.4,5-7.13,6.41A22.61,22.61,0,0,0,979.49,536.77Z" transform="translate(-23.05 -18.97)"/><path class="cls-2" d="M941.12,551.32c-3.71,1.68-7.06-1.57-7.84-4.4s0-5.81.69-8.65c1.67-6.48,3.5-13.23,8-18.17a10.93,10.93,0,0,1,4.89-3.34,5.74,5.74,0,0,1,5.59,1.2c1.66,1.68,1.75,4.34,1.55,6.7a46.88,46.88,0,0,1-6.25,19.73c-1.64,2.81-3.7,5.55-6.64,6.93" transform="translate(-23.05 -18.97)"/><path class="cls-2" d="M944.21,558.7c-.66-3.88,1.16-7.91,4-10.58a21.51,21.51,0,0,1,10.57-4.91,35.79,35.79,0,0,1,13.76,0,12.69,12.69,0,0,1,5,1.93,5.6,5.6,0,0,1,2.48,4.6c-.13,2.68-2.63,4.56-4.94,5.93a89.79,89.79,0,0,1-12.72,6.25c-3.54,1.41-7.34,2.6-11.1,2s-6.85-2.65-7.22-5.73" transform="translate(-23.05 -18.97)"/><path class="cls-3" d="M917.06,591.85a2.75,2.75,0,0,1,.32-.63l1-1.73c.89-1.5,2.17-3.67,3.67-6.41,3-5.45,6-11.5,9.9-20.18,3.68-8.17,7.81-17.76,10-24.27.52-1.47,1-2.81,1.33-4s.72-2.19,1-3,.43-1.42.58-1.93a4.18,4.18,0,0,1,.25-.66,3,3,0,0,1-.12.7q-.19.76-.48,1.95c-.2.85-.5,1.88-.85,3.07s-.75,2.55-1.25,4a226,226,0,0,1-8.91,22.75c-3.92,8.7-7.91,16.37-11,21.78-1.56,2.71-2.9,4.86-3.86,6.32l-1.12,1.67A4,4,0,0,1,917.06,591.85Z" transform="translate(-23.05 -18.97)"/><path class="cls-3" d="M927.74,576.9a13.4,13.4,0,0,1,1.08-1.8c.75-1.13,1.91-2.71,3.45-4.58a74.32,74.32,0,0,1,5.81-6.2,67.13,67.13,0,0,1,8-6.69,52.29,52.29,0,0,1,16.83-8.48,23.6,23.6,0,0,1,3.19-.7c.48-.08.92-.19,1.33-.23l1.12-.08a14.4,14.4,0,0,1,2.1-.08,64.06,64.06,0,0,0-7.62,1.51,55.14,55.14,0,0,0-16.58,8.57,76.08,76.08,0,0,0-7.95,6.6c-2.33,2.16-4.27,4.27-5.87,6.07s-2.77,3.35-3.58,4.43A13.49,13.49,0,0,1,927.74,576.9Z" transform="translate(-23.05 -18.97)"/><ellipse class="cls-4" cx="667.76" cy="699.12" rx="180.86" ry="40.37"/><path class="cls-5" d="M225,42.44,881.56,67.2a31.68,31.68,0,0,1,30.49,31.65V614.1a32.73,32.73,0,0,1-31.84,32.72l-655.5,18a32.73,32.73,0,0,1-33.64-32.72V75.15A32.74,32.74,0,0,1,225,42.44Z" transform="translate(-23.05 -18.97)"/><path class="cls-6" d="M249.76,19,906.28,43.75a31.69,31.69,0,0,1,30.49,31.66V590.66a32.74,32.74,0,0,1-31.84,32.72l-655.51,18a32.74,32.74,0,0,1-33.63-32.72V51.7A32.74,32.74,0,0,1,249.76,19Z" transform="translate(-23.05 -18.97)"/><rect class="cls-7" x="659.93" y="347.28" width="104.64" height="83.22"/><g class="cls-8"><polygon class="cls-5" points="663.09 430.2 703.67 372.35 747.71 430.2 663.09 430.2"/><polyline class="cls-5" points="767.57 430.2 720.06 430.2 742.84 397.72"/><circle class="cls-5" cx="733.58" cy="368.75" r="9.04"/></g><rect class="cls-9" x="539.64" y="458.26" width="104.94" height="6.32" transform="translate(-26.8 -14.12) rotate(-0.47)"/><rect class="cls-9" x="539.54" y="470.8" width="104.94" height="6.32" transform="translate(-26.9 -14.12) rotate(-0.47)"/><rect class="cls-9" x="250.65" y="462.68" width="104.94" height="6.32" transform="translate(-26.85 -16.48) rotate(-0.47)"/><rect class="cls-9" x="250.54" y="475.21" width="104.94" height="6.32" transform="translate(-26.95 -16.48) rotate(-0.47)"/><rect class="cls-9" x="395.56" y="459.29" width="104.94" height="6.32" transform="translate(-26.82 -15.3) rotate(-0.47)"/><rect class="cls-9" x="395.45" y="471.83" width="104.94" height="6.32" transform="translate(-26.92 -15.3) rotate(-0.47)"/><rect class="cls-9" x="682.79" y="460.27" width="104.94" height="6.32" transform="translate(-26.81 -12.95) rotate(-0.47)"/><rect class="cls-9" x="682.69" y="472.81" width="104.94" height="6.32" transform="translate(-26.92 -12.95) rotate(-0.47)"/><circle class="cls-10" cx="237.23" cy="230.28" r="1.65"/><polygon class="cls-11" points="892.82 90.77 211.08 70.82 211.28 37.77 893 61.51 892.82 90.77"/><path class="cls-12" d="M864.19,93.45a3.63,3.63,0,0,1-3.7,3.67,3.86,3.86,0,0,1-3.66-3.91,3.61,3.61,0,0,1,3.7-3.66A3.85,3.85,0,0,1,864.19,93.45Z" transform="translate(-23.05 -18.97)"/><path class="cls-13" d="M879.27,93.93a3.59,3.59,0,0,1-3.67,3.66A3.83,3.83,0,0,1,872,93.7,3.6,3.6,0,0,1,875.64,90,3.83,3.83,0,0,1,879.27,93.93Z" transform="translate(-23.05 -18.97)"/><path class="cls-14" d="M894.28,94.41a3.59,3.59,0,0,1-3.66,3.65A3.82,3.82,0,0,1,887,94.18a3.59,3.59,0,0,1,3.66-3.65A3.84,3.84,0,0,1,894.28,94.41Z" transform="translate(-23.05 -18.97)"/><g class="cls-8"><polygon class="cls-5" points="802.65 226.64 815.29 226.84 818.29 124.04 805.66 123.54 802.65 226.64"/><polygon class="cls-5" points="779.99 226.27 792.76 226.48 794.27 174.81 781.5 174.45 779.99 226.27"/><polygon class="cls-5" points="757.1 225.9 770 226.11 773.32 112.39 760.42 111.85 757.1 225.9"/><polygon class="cls-5" points="733.96 225.52 747 225.74 749.85 128.38 736.81 127.88 733.96 225.52"/><polygon class="cls-5" points="710.58 225.14 723.76 225.36 724.53 199.12 711.35 198.82 710.58 225.14"/><polygon class="cls-5" points="686.95 224.76 700.28 224.98 702.09 162.97 688.77 162.57 686.95 224.76"/><polygon class="cls-5" points="663.07 224.37 676.54 224.59 679.16 134.75 665.7 134.26 663.07 224.37"/><polygon class="cls-5" points="638.93 223.98 652.54 224.2 654.47 158.33 640.86 157.91 638.93 223.98"/><polygon class="cls-5" points="614.54 223.58 628.29 223.81 631.29 121.08 617.54 120.54 614.54 223.58"/><polygon class="cls-5" points="589.87 223.18 603.78 223.41 607.13 108.61 593.23 108.03 589.87 223.18"/></g><polygon class="cls-15" points="589.36 240.83 814.8 243.62 815.12 232.65 589.69 229.29 589.36 240.83"/><polygon class="cls-15" points="588.89 256.77 746.06 258.17 746.2 253.26 589.04 251.69 588.89 256.77"/><polygon class="cls-5" points="228.91 225.61 462.55 227.7 462.63 214.51 228.99 212.15 228.91 225.61"/><polygon class="cls-5" points="228.75 252.53 462.39 254.07 462.47 240.88 228.83 239.07 228.75 252.53"/><polygon class="cls-5" points="439.53 198.54 462.73 198.81 462.85 178.77 439.65 178.46 439.53 198.54"/><polygon class="cls-5" points="398.06 198.06 421.43 198.33 421.71 151.06 398.35 150.69 398.06 198.06"/><polygon class="cls-5" points="356.29 197.58 379.82 197.85 380.24 129.47 356.7 129.06 356.29 197.58"/><polygon class="cls-5" points="314.2 197.1 337.91 197.37 338.22 147.32 314.5 146.94 314.2 197.1"/><polygon class="cls-5" points="271.8 196.61 295.69 196.89 296.16 118.96 272.28 118.52 271.8 196.61"/><polygon class="cls-5" points="229.09 196.12 253.16 196.4 253.68 109.45 229.62 108.99 229.09 196.12"/><circle class="cls-16" cx="238.88" cy="55.6" r="11.54"/><path class="cls-17" d="M930.13,290.46S962.5,320.72,942.4,376a7.1,7.1,0,0,1-12.14,2.06l-22.16-27a19.83,19.83,0,0,1-4.3-15.48L908,307.17Z" transform="translate(-23.05 -18.97)"/><path class="cls-17" d="M859.8,244.6s-40.75-17.42-83.23,23.29a7.08,7.08,0,0,0,3,11.93l33.62,9.4a19.92,19.92,0,0,0,15.91-2.31l24.33-15.3Z" transform="translate(-23.05 -18.97)"/><path class="cls-18" d="M932.69,286.53s32.37,30.26,12.26,85.55a7.08,7.08,0,0,1-12.13,2.06l-22.16-27a19.85,19.85,0,0,1-4.3-15.49l4.17-28.43Z" transform="translate(-23.05 -18.97)"/><path class="cls-18" d="M862.36,240.67S821.61,223.26,779.12,264a7.09,7.09,0,0,0,3,11.93l33.62,9.4A19.84,19.84,0,0,0,831.67,283L856,267.69Z" transform="translate(-23.05 -18.97)"/><path class="cls-19" d="M885.33,154.85c37.33-45.37,107.47-36.61,106.95-36.58.09,0,36.13,60.16,9.67,112.62-24,47.58-83.58,86-95.05,93.13-1.23.76-3.25,1.84-4.13.69-17.15-22.42-38.57-35.6-63.36-41.29-1.37-.31-1.16-2.56-1-4C840.28,266.29,851.41,196.08,885.33,154.85Z" transform="translate(-23.05 -18.97)"/><path class="cls-5" d="M917.66,215.26c20.91-25.2,43.39-17.73,63.78-39.89,7.45-8.09,15.24-20.81,18.34-41.82,8.91,21.22,20.44,61.11,2.17,97.34-24,47.58-83.58,86-95.05,93.13-1.23.76-3.25,1.84-4.13.69a113.32,113.32,0,0,0-29.15-27.13,75.09,75.09,0,0,0,18-18.19C908.08,255.5,898.62,238.22,917.66,215.26Z" transform="translate(-23.05 -18.97)"/><ellipse class="cls-20" cx="933.51" cy="208.41" rx="42.66" ry="47.37" transform="translate(226.02 857.59) rotate(-56.9)"/><ellipse class="cls-17" cx="870.92" cy="304.11" rx="11.64" ry="39.4" transform="translate(117.45 848.59) rotate(-56.9)"/><path class="cls-21" d="M867.08,294.81,881.25,304a22.12,22.12,0,0,1,9.62,22.74l-1.63,8.38a4.43,4.43,0,0,1-6.77,2.86l-47-30.63a4.42,4.42,0,0,1-.11-7.34l7-4.87A22.07,22.07,0,0,1,867.08,294.81Z" transform="translate(-23.05 -18.97)"/><ellipse class="cls-22" cx="860.2" cy="320.82" rx="10.98" ry="32.52" transform="translate(98.59 847.19) rotate(-56.89)"/><path class="cls-23" d="M839.5,307.32c-2.51,3.87,4.71,13,16.14,20.49s22.75,10.37,25.26,6.51-4.7-13-16.14-20.49S842,303.46,839.5,307.32Z" transform="translate(-23.05 -18.97)"/><g class="cls-24"><path class="cls-25" d="M917.66,215.26c14.51-17.49,29.78-19.25,44.58-26.09,9.21,11.86,10.88,27.74,3,39.9-10.28,15.76-32.8,19.28-50.3,7.87a41.9,41.9,0,0,1-6.91-5.63A59,59,0,0,1,917.66,215.26Z" transform="translate(-23.05 -18.97)"/></g><ellipse class="cls-26" cx="933.52" cy="208.05" rx="39.72" ry="44.11" transform="translate(226.32 857.43) rotate(-56.89)"/><ellipse class="cls-17" cx="933.51" cy="208.41" rx="34.07" ry="37.83" transform="translate(226.02 857.58) rotate(-56.89)"/><path class="cls-27" d="M917.66,215.26C934.72,194.7,952.83,195.88,970,185c11.08,14.79,13,34.31,3.19,49.31-12.87,19.74-41.07,24.15-63,9.87a52.21,52.21,0,0,1-5.08-3.77A59.36,59.36,0,0,1,917.66,215.26Z" transform="translate(-23.05 -18.97)"/><path class="cls-28" d="M904.18,137.73S990.5,157.49,1009.36,210c0,0,11.45-43.11-17.39-91.72C992,118.24,942.53,111.64,904.18,137.73Z" transform="translate(-23.05 -18.97)"/><rect class="cls-7" x="251.3" y="362.96" width="104.64" height="83.22" transform="translate(-21.05 -20.47) rotate(0.28)"/><rect class="cls-7" x="372.36" y="343.99" width="104.64" height="82.4"/><path class="cls-29" d="M593.35,729.48c2.32.76,68.5.18,71-1.44.95-.61,1.43-10.25,1.68-21.92.05-2.52.09-5.12.12-7.76.19-17.17,0-35.38,0-35.38l-44.27.26,1.23,35.37.27,7.76S598.13,717.93,595.56,720,591,728.73,593.35,729.48Z" transform="translate(-23.05 -18.97)"/><path class="cls-7" d="M593.35,729.48c2.32.76,68.5.18,71-1.44,1.16-.74,1.63-14.82,1.8-29.68l-43.06.25.27,7.76S598.13,717.93,595.56,720,591,728.73,593.35,729.48Z" transform="translate(-23.05 -18.97)"/><path class="cls-30" d="M590.12,729.34c2.44.85,72.48,1.66,75.17,0,1-.63,1.74-10.82,2.25-23.16l-45.15-.66s-27,11.68-29.71,13.82S587.69,728.49,590.12,729.34Z" transform="translate(-23.05 -18.97)"/><path class="cls-31" d="M597.48,716.27a9.43,9.43,0,0,1,7,3,9.13,9.13,0,0,1,2.55,6.29c0,.07-.13.08-.14,0a10.92,10.92,0,0,0-9.4-9.1A.07.07,0,1,1,597.48,716.27Z" transform="translate(-23.05 -18.97)"/><path class="cls-31" d="M618.09,706c4.7,0,10.13,1.72,13,5.59.11.15-.1.31-.24.24A65.07,65.07,0,0,0,618,706.61.3.3,0,0,1,618.09,706Z" transform="translate(-23.05 -18.97)"/><path class="cls-31" d="M614.44,707.41c4.7,0,10.13,1.71,13,5.58.11.15-.11.31-.24.24A65.57,65.57,0,0,0,614.36,708,.29.29,0,0,1,614.44,707.41Z" transform="translate(-23.05 -18.97)"/><path class="cls-31" d="M610.8,708.78c4.7,0,10.13,1.71,13,5.59.11.15-.1.3-.24.23a65.07,65.07,0,0,0-12.85-5.25A.29.29,0,0,1,610.8,708.78Z" transform="translate(-23.05 -18.97)"/><path class="cls-31" d="M607.16,710.15c4.7,0,10.12,1.71,13,5.59.11.15-.1.3-.24.23a64.68,64.68,0,0,0-12.85-5.24A.3.3,0,0,1,607.16,710.15Z" transform="translate(-23.05 -18.97)"/><path class="cls-31" d="M665.17,729.39s2.29-3.94,1.73-11.35c0,0-50,7.37-77.64,6.47,0,0-.67,3.06.22,4.48S648.72,730.63,665.17,729.39Z" transform="translate(-23.05 -18.97)"/><path class="cls-31" d="M597.52,716.57s7.57,1.66,7.34,8.38l1.89-.14S605.67,716,597.52,716.57Z" transform="translate(-23.05 -18.97)"/><path class="cls-29" d="M712.21,729.28c2.43-.24,62.8-27.38,64.45-29.87.63-.94-2.81-10-7.28-20.74-1-2.33-2-4.73-3-7.16-6.73-15.79-14.23-32.39-14.23-32.39l-40.44,18L727.05,689l3.36,7s-18.47,20.72-20,23.65S709.79,729.52,712.21,729.28Z" transform="translate(-23.05 -18.97)"/><path class="cls-7" d="M712.21,729.28c2.43-.24,62.8-27.38,64.45-29.87.76-1.15-4.48-14.23-10.29-27.9L727.05,689l3.36,7s-18.47,20.72-20,23.65S709.79,729.52,712.21,729.28Z" transform="translate(-23.05 -18.97)"/><path class="cls-30" d="M709.2,730.44c2.57-.2,67-27.61,68.83-30.21.69-1-2.76-10.6-7.25-22.11l-41.61,17.55s-20,21.53-21.65,24.59S706.63,730.64,709.2,730.44Z" transform="translate(-23.05 -18.97)"/><path class="cls-31" d="M710.68,715.52a9.38,9.38,0,0,1,7.59-.11,9.12,9.12,0,0,1,4.87,4.74c0,.06-.1.12-.14.05a10.9,10.9,0,0,0-12.26-4.55A.07.07,0,0,1,710.68,715.52Z" transform="translate(-23.05 -18.97)"/><path class="cls-31" d="M725.44,697.86c4.3-1.9,10-2.5,14.15-.11.16.09,0,.32-.13.31a65.67,65.67,0,0,0-13.87.36A.29.29,0,0,1,725.44,697.86Z" transform="translate(-23.05 -18.97)"/><path class="cls-31" d="M722.65,700.58c4.3-1.9,10-2.5,14.16-.11.16.09,0,.32-.13.31a65,65,0,0,0-13.87.37A.3.3,0,0,1,722.65,700.58Z" transform="translate(-23.05 -18.97)"/><path class="cls-31" d="M719.87,703.3c4.3-1.9,10-2.5,14.15-.11.16.1,0,.33-.13.31a65,65,0,0,0-13.87.37A.3.3,0,0,1,719.87,703.3Z" transform="translate(-23.05 -18.97)"/><path class="cls-31" d="M717.08,706c4.3-1.9,10-2.5,14.16-.11.16.1,0,.33-.13.31a65.1,65.1,0,0,0-13.88.37A.3.3,0,0,1,717.08,706Z" transform="translate(-23.05 -18.97)"/><path class="cls-31" d="M777.94,700.32s.51-4.53-3-11.09c0,0-42.82,26.85-68.49,37.14,0,0,.61,3.07,2,4S763.37,708.07,777.94,700.32Z" transform="translate(-23.05 -18.97)"/><path class="cls-31" d="M710.84,715.77s7.6-1.52,10.09,4.73l1.68-.89S718.05,711.94,710.84,715.77Z" transform="translate(-23.05 -18.97)"/><path class="cls-32" d="M661.16,425.7c-7.28,3.47-32.74,10-43.33,3-9.49-6.33-10.29-51.8-6.33-66.37,1.39-5.12,21.59,4.68,23.73,9,1.84,3.7-1.16,38,.31,38.77,2.47,1.27,10.48,2.22,23.25,4C670.81,415.73,666.28,423.26,661.16,425.7Z" transform="translate(-23.05 -18.97)"/><path class="cls-31" d="M635.75,386.31l-27-12.78s-4.65,46.28,8.54,56c3,2.25,23.29,6,42.37-2.18,5.9-2.53,15.07-11.25-2.47-14s-20.74-3.76-21.06-4.19S635.75,386.31,635.75,386.31Z" transform="translate(-23.05 -18.97)"/><g class="cls-33"><path class="cls-31" d="M622.74,396.37a2.34,2.34,0,0,0,3.21-.28c1.54-1.75.79-4.73,0-6.71s-2.22-4.13-4.53-4.49a1.85,1.85,0,0,0-2,2.38c.32,1.52,1.12,2.93,1.52,4.45S621.25,395.27,622.74,396.37Z" transform="translate(-23.05 -18.97)"/><path class="cls-31" d="M625.41,405.68c1.35-.73,1.59-2.7,1.58-4.07a3.82,3.82,0,0,0-.62-2.1,1.94,1.94,0,0,0-2.66-.7,2.55,2.55,0,0,0-1,1.65,6.66,6.66,0,0,0-.12,1v.11l0,.08a6.37,6.37,0,0,0-.16,3.06A2,2,0,0,0,625.41,405.68Z" transform="translate(-23.05 -18.97)"/><path class="cls-31" d="M632.71,402.53a12.47,12.47,0,0,0,.6-7.59c-.39-2-1.16-5.31-3.48-5.84a1.22,1.22,0,0,0-1.27.65c-.93,1.52,0,4.14.17,5.79.18,2.09,0,4.2.19,6.29A2,2,0,0,0,632.71,402.53Z" transform="translate(-23.05 -18.97)"/><path class="cls-31" d="M619.88,413a2.66,2.66,0,0,0,1.06.5,2.37,2.37,0,0,0,1.72-.37,3.84,3.84,0,0,0,1.19-1.43,3.66,3.66,0,0,0,.34-1.72c0-.18-.08-.36-.11-.54l-.26-.51a2.08,2.08,0,0,0-1.11-.8,2.11,2.11,0,0,0-2.26.64,9.44,9.44,0,0,0-1.17,1.5l-.18.56a1.64,1.64,0,0,0,0,.88A2.22,2.22,0,0,0,619.88,413Z" transform="translate(-23.05 -18.97)"/><path class="cls-31" d="M627,412.28a1.93,1.93,0,0,0,2.23-.49,4.67,4.67,0,0,0,1-2.25,4,4,0,0,0-.07-2.28,1.49,1.49,0,0,0-2.51-.47,7.33,7.33,0,0,0-.86,1.64,6.8,6.8,0,0,1-.38.7,5.38,5.38,0,0,0-.42,1.12A1.87,1.87,0,0,0,627,412.28Z" transform="translate(-23.05 -18.97)"/></g><path class="cls-31" d="M609.48,380.46c2.24.71,4.4,1.74,6.56,2.67s4.26,1.84,6.37,2.79c4.28,1.9,8.63,3.72,12.77,5.9.1.05,0,.2-.06.16-4.48-1.49-8.82-3.45-13.14-5.34q-3.26-1.42-6.46-2.94a60.61,60.61,0,0,1-6.13-3.09C609.3,380.56,609.39,380.43,609.48,380.46Z" transform="translate(-23.05 -18.97)"/><path class="cls-34" d="M659.64,427.39c-19.07,8.16-39.34,4.43-42.37,2.18-6.11-4.53-8.39-16.91-9.08-28.9L636,406.94a13.58,13.58,0,0,0,.15,2.24c.32.44,3.51,1.42,21,4.19S665.54,424.86,659.64,427.39Z" transform="translate(-23.05 -18.97)"/><path class="cls-35" d="M681.05,489.94s-11.5,113.79-11.77,115.23c0,.19-.13,2.38-.24,6-.62,19.59-2.15,80.67-2.15,80.67H620s3.06-72.34,4.83-89.22C627,581,641.14,489.94,641.14,489.94Z" transform="translate(-23.05 -18.97)"/><path class="cls-31" d="M681.05,489.94s-11.5,113.79-11.77,115.23c0,.19-.13,2.38-.24,6L646.92,489.94Z" transform="translate(-23.05 -18.97)"/><path class="cls-35" d="M641.14,489.94s3.1,16.44,14.56,24.8c0,0,25.29,84.61,28.57,94.31,5.67,16.72,36.1,73.36,36.1,73.36l47-20.16s-35.83-63.1-39.7-68c-2.57-3.23-21.59-71.81-21.62-73.59-.4-20.15-7.16-30.86-7.16-30.86Z" transform="translate(-23.05 -18.97)"/><path class="cls-31" d="M679.14,495.9a15.71,15.71,0,0,0,5.75,8.24,19.33,19.33,0,0,0,10.43,3.58c.63,0,.68,1,0,1-7.65,0-15.39-4.85-16.51-12.78A.16.16,0,0,1,679.14,495.9Z" transform="translate(-23.05 -18.97)"/><path class="cls-31" d="M648.36,509.53a42.24,42.24,0,0,1,7.91,4.2c2.62,1.62,5.05,3.53,7.59,5.28.09.07,0,.23-.1.17-2.65-1.53-5.43-2.86-8.06-4.44a51.38,51.38,0,0,1-7.46-5C648.16,509.66,648.24,509.49,648.36,509.53Z" transform="translate(-23.05 -18.97)"/><path class="cls-31" d="M647.28,493.57c.41,1.76.92,3.49,1.38,5.23s.78,3.3,1.29,4.91a8.37,8.37,0,0,0,2.5,4.05c.67.58,1.41,1.08,2.12,1.59.39.28.8.55,1.2.83-.06-.23-.11-.46-.16-.7-.15-.67-.29-1.33-.44-2-.32-1.48-.62-3-.92-4.44-.58-2.91-1.13-5.86-1.87-8.73a.09.09,0,0,1,.18-.06c.86,2.85,1.8,5.66,2.56,8.53.38,1.41,1.82,8.39,1.89,8.88s.14,1,.18,1.54a6,6,0,0,1,.07,1.58.12.12,0,0,1-.23,0h0a6.13,6.13,0,0,1-.52-1.51c-.15-.49-.29-1-.4-1.5,0-.19-.07-.37-.11-.56-.71-.39-1.38-.92-2-1.36s-1.45-.93-2.14-1.45a8,8,0,0,1-2.7-3.83,29.69,29.69,0,0,1-1.06-5c-.31-2-.57-4-.94-6C647.08,493.51,647.25,493.45,647.28,493.57Z" transform="translate(-23.05 -18.97)"/><path class="cls-31" d="M695.82,491.87a37.52,37.52,0,0,1,4.75,10,37.93,37.93,0,0,1,1.75,10.95,34.59,34.59,0,0,1-.4,5.56c-.08.45-.14.92-.24,1.37l-.15.68a2.17,2.17,0,0,0-.08.59c.11.85.34,1.77.54,2.66.85,3.58,1.79,7.14,2.74,10.71,3.82,14.24,7.7,28.48,11.77,42.65l3.07,10.62c.52,1.77,1,3.54,1.61,5.28.28.87.57,1.76.89,2.57s.78,1.61,1.23,2.42c3.47,6.48,7.23,12.85,10.86,19.26,0,0,18.51,31.1,22.32,38.27.18.33.09.55-.25.1-3.31-4.31-15.37-25.19-22.88-37.89-3.77-6.35-7.48-12.72-11-19.22-.45-.8-.86-1.66-1.28-2.5s-.65-1.77-.94-2.66c-.58-1.76-1.12-3.52-1.65-5.29q-1.59-5.31-3.11-10.63c-4-14.21-7.89-28.44-11.48-42.76-.9-3.58-1.79-7.16-2.58-10.77-.19-.92-.4-1.79-.51-2.77a2.64,2.64,0,0,1,.1-.78l.15-.67c.11-.45.17-.9.26-1.35a36.93,36.93,0,0,0,.49-5.46A39.12,39.12,0,0,0,695.82,491.87Z" transform="translate(-23.05 -18.97)"/><path class="cls-31" d="M702.68,496.37l-65.34.44c0,1.28,3.3-51.2,20.06-82.17,1.14-2.11,11.39-4.44,16-.3C693.31,432.5,702.68,497.2,702.68,496.37Z" transform="translate(-23.05 -18.97)"/><g class="cls-33"><path class="cls-31" d="M656.7,481.39c-1.7-1.4-4.18-1-4.91,1.22-.84,2.58.84,5.1,3.08,6.31a8.48,8.48,0,0,0,7.63.31c2.29-1,1.67-4.62-.6-5.23a17.46,17.46,0,0,1-3.24-.81C657.84,482.79,657.39,482,656.7,481.39Z" transform="translate(-23.05 -18.97)"/><path class="cls-31" d="M653.83,472.86c-1.35,3.88,4.37,8.07,7.79,6.35a2.13,2.13,0,0,0,.5-3.31c-.82-.86-1.58-1.08-2.32-1.86a3.34,3.34,0,0,1-.64-.88,5.87,5.87,0,0,0-1.55-1.78C656.19,470.34,654.33,471.42,653.83,472.86Z" transform="translate(-23.05 -18.97)"/><path class="cls-31" d="M644,471.82c-1.47,1.49-.83,4.1.09,5.74a5.13,5.13,0,0,0,4.32,2.82,1.73,1.73,0,0,0,1.25-2.89,5.24,5.24,0,0,1-1.38-2.25c-.4-1.31-.57-3-1.88-3.68A2,2,0,0,0,644,471.82Z" transform="translate(-23.05 -18.97)"/><path class="cls-31" d="M668.53,479.22a1.94,1.94,0,0,0-1.93,1.9,2.29,2.29,0,0,0,1.9,2.21,3.47,3.47,0,0,0,2.18-.24,1.64,1.64,0,0,0,.76-.86,1.75,1.75,0,0,0,.11-1.15,1.84,1.84,0,0,0-1.6-1.34l-.26-.2A2.14,2.14,0,0,0,668.53,479.22Z" transform="translate(-23.05 -18.97)"/><path class="cls-31" d="M648.59,462.62c-1.53,2-.3,6,1.81,7.12a1.87,1.87,0,0,0,2.82-1.57,6.18,6.18,0,0,0-.12-1.23c-.06-.45-.14-.73-.15-1a10.14,10.14,0,0,0-.23-2.7A2.3,2.3,0,0,0,648.59,462.62Z" transform="translate(-23.05 -18.97)"/><path class="cls-31" d="M643,483.47c-2.07,3.14,2.47,7.56,5.6,7.29,1-.09,2.2-1.3,1.41-2.38-.63-.86-1.41-1.58-2-2.48-.7-1.1-1-2.44-2.23-3.11A2.08,2.08,0,0,0,643,483.47Z" transform="translate(-23.05 -18.97)"/></g><g class="cls-33"><path class="cls-31" d="M691.08,477.52c-.19,1.2-.12,2.23-.88,3.24a15.63,15.63,0,0,0-2.25,2.88,1.55,1.55,0,0,0,1.67,2.07,7.36,7.36,0,0,0,5.5-8.27A2,2,0,0,0,691.08,477.52Z" transform="translate(-23.05 -18.97)"/><path class="cls-31" d="M686.3,467.86c-.42,1.49-.12,3.08-.43,4.61a36.26,36.26,0,0,1-1.08,4.16c-.32,1,.73,2.37,1.81,1.73a7.9,7.9,0,0,0,3.77-4.36c.6-1.73,1.15-4.58.18-6.24S686.91,465.71,686.3,467.86Z" transform="translate(-23.05 -18.97)"/><path class="cls-31" d="M682,482.75a9.53,9.53,0,0,1-2.92,3,2.24,2.24,0,1,0,2.3,3.81,8.07,8.07,0,0,0,3.92-5.59C685.63,482.19,683.05,481.3,682,482.75Z" transform="translate(-23.05 -18.97)"/></g><g class="cls-33"><path class="cls-31" d="M665.28,435.93a2.32,2.32,0,0,0,2.51-2c.33-2.31-1.95-4.38-3.7-5.59s-4.12-2.21-6.25-1.23a1.83,1.83,0,0,0-.38,3.1c1.1,1.09,2.55,1.82,3.72,2.87S663.43,435.84,665.28,435.93Z" transform="translate(-23.05 -18.97)"/><path class="cls-31" d="M672.65,442.21c.73-1.36-.17-3.13-.94-4.26a3.83,3.83,0,0,0-1.67-1.41,1.94,1.94,0,0,0-2.6.89,2.53,2.53,0,0,0,.1,1.91,5.88,5.88,0,0,0,.46.9l0,.09a.29.29,0,0,1,0,.08,6.46,6.46,0,0,0,1.55,2.64A2,2,0,0,0,672.65,442.21Z" transform="translate(-23.05 -18.97)"/><path class="cls-31" d="M677,435.55a12.44,12.44,0,0,0-3.69-6.65c-1.44-1.46-3.91-3.79-6.13-2.95a1.2,1.2,0,0,0-.7,1.25c.06,1.78,2.3,3.43,3.34,4.73,1.3,1.64,2.31,3.51,3.64,5.13A2,2,0,0,0,677,435.55Z" transform="translate(-23.05 -18.97)"/><path class="cls-31" d="M672.07,451.33a2.69,2.69,0,0,0,1.16-.17,2.4,2.4,0,0,0,1.23-1.26,3.64,3.64,0,0,0,.19-1.85,3.59,3.59,0,0,0-.66-1.63l-.4-.38-.49-.28a2,2,0,0,0-1.36-.06,2.12,2.12,0,0,0-1.54,1.79,10.87,10.87,0,0,0-.15,1.89l.17.57a1.62,1.62,0,0,0,.5.71A2.26,2.26,0,0,0,672.07,451.33Z" transform="translate(-23.05 -18.97)"/><path class="cls-31" d="M677.63,446.83a1.94,1.94,0,0,0,1.59-1.64,4.66,4.66,0,0,0-.45-2.41,4.06,4.06,0,0,0-1.32-1.86,1.49,1.49,0,0,0-2.35,1,7.16,7.16,0,0,0,.2,1.84c0,.27.05.53.07.8a5,5,0,0,0,.26,1.15A1.88,1.88,0,0,0,677.63,446.83Z" transform="translate(-23.05 -18.97)"/></g><path class="cls-29" d="M663.18,423.9c2.57-.33,7.05-6,8.42-10.41.09-.3-.89-3.07-1.93-6.49-.63-2.09-1.27-4.42-1.71-6.59l-12.94,6a35.31,35.31,0,0,1,3,8.07,4.87,4.87,0,0,1,.08.91.71.71,0,0,1,0,.15C658.16,417.32,659.15,424.42,663.18,423.9Z" transform="translate(-23.05 -18.97)"/><path class="cls-36" d="M658.09,415.42v.16a10,10,0,0,0,1.42-.21c7.85-1.76,7.87-11.85,7.72-14.61L655,406.45a35.46,35.46,0,0,1,3,8.06A7.77,7.77,0,0,1,658.09,415.42Z" transform="translate(-23.05 -18.97)"/><path class="cls-29" d="M669.11,385.81c1.64,4.88-.58,19.16-4,22.42-5,4.73-13.24,5.4-17.31-.59-3.94-5.81-.73-24.37,3.1-27.36C656.55,375.88,666.69,378.6,669.11,385.81Z" transform="translate(-23.05 -18.97)"/><path class="cls-31" d="M656.32,394.75s.07.06.06.1c-.22.95-.3,2.07.5,2.56,0,0,0,.06,0,0C655.83,397.11,656,395.62,656.32,394.75Z" transform="translate(-23.05 -18.97)"/><path class="cls-31" d="M657.37,393.92c1.56.18,1.08,3.29-.36,3.12S656.06,393.77,657.37,393.92Z" transform="translate(-23.05 -18.97)"/><path class="cls-31" d="M651,393.74s-.09,0-.09.07c-.12,1-.42,2.06-1.34,2.24,0,0,0,.06,0,.06C650.61,396.12,651,394.67,651,393.74Z" transform="translate(-23.05 -18.97)"/><path class="cls-31" d="M650.24,392.6c-1.53-.35-2.13,2.73-.71,3.06S651.52,392.9,650.24,392.6Z" transform="translate(-23.05 -18.97)"/><path class="cls-31" d="M655.82,404.26c-.25.18-.52.44-.85.42a2.48,2.48,0,0,1-1-.39s-.06,0,0,0a1.24,1.24,0,0,0,1.09.68,1,1,0,0,0,.84-.7C655.92,404.26,655.85,404.23,655.82,404.26Z" transform="translate(-23.05 -18.97)"/><path class="cls-29" d="M666.39,397.47s3.18-4.62,5.27-3.49-.27,7.81-2.71,8.74a2.49,2.49,0,0,1-3.35-1.31Z" transform="translate(-23.05 -18.97)"/><path class="cls-37" d="M670.94,395.26s0,.05,0,.06a6.34,6.34,0,0,0-3.23,4,1.38,1.38,0,0,1,2.06-.4.06.06,0,0,1,0,.1,1.53,1.53,0,0,0-1.68.54,7.79,7.79,0,0,0-.8,1.37c-.08.16-.35.08-.3-.1l0,0C666.91,398.57,668.59,395.5,670.94,395.26Z" transform="translate(-23.05 -18.97)"/><path class="cls-38" d="M661,390.87a3.81,3.81,0,0,0-2.63-.88,3.82,3.82,0,0,1-2.62-.87s0,1.75.87,1.75S659.29,390,661,390.87Z" transform="translate(-23.05 -18.97)"/><path class="cls-39" d="M666.64,399.32s-.1-.49-2.21,1.94c-.95,1.1-2.11,2.85-3.5,2.42-1.57-.48-3.62-2-6-1.36-4.08,1.05-8.08-2.88-8.87-.51-.63,1.87,1.87,7.08,3.38,9.37a3.52,3.52,0,0,0,3.1,1.6c2.22-.08,5.75-.31,7.53-1,2.72-1,6.11-2.11,7.47-5.26S666.64,403.53,666.64,399.32Z" transform="translate(-23.05 -18.97)"/><path class="cls-29" d="M649,406.18a1.24,1.24,0,0,1,1.25-1.34h2.62c1.89,0,5.4.52,5.48.91.2,1,.2,4.77-7.38,2.87A2.78,2.78,0,0,1,649,406.18Z" transform="translate(-23.05 -18.97)"/><path class="cls-31" d="M650.69,404.57a7.45,7.45,0,0,0,6,.37S653.41,408.19,650.69,404.57Z" transform="translate(-23.05 -18.97)"/><path class="cls-37" d="M652.11,396.66s-2.25,3.38-1.5,4.13,4.87,0,4.87,0,1.12-.75-1.88-.38S651,400,651,400A8.68,8.68,0,0,1,652.11,396.66Z" transform="translate(-23.05 -18.97)"/><path class="cls-40" d="M666.64,399.32s-.71-.67-3.78,3.71-1.83,5-3.69,7.5c-1.35,1.79-.62,1.28-5.29,2.19a20.31,20.31,0,0,0,12.21-4.06s2.57-2.55,1.87-4.39S666.64,401.81,666.64,399.32Z" transform="translate(-23.05 -18.97)"/><path class="cls-38" d="M655.84,389.73s0,1.36,1,1.12a21.94,21.94,0,0,1,2.23-.37S656.87,390.72,655.84,389.73Z" transform="translate(-23.05 -18.97)"/><path class="cls-38" d="M647.29,390.86a3.84,3.84,0,0,1,2.63-.88,3.87,3.87,0,0,0,2.63-.87s0,1.75-.88,1.75S649.05,390,647.29,390.86Z" transform="translate(-23.05 -18.97)"/><path class="cls-38" d="M652.49,389.72s0,1.37-1,1.12a22,22,0,0,0-2.22-.37S651.46,390.71,652.49,389.72Z" transform="translate(-23.05 -18.97)"/><path class="cls-41" d="M640.26,473.35A147.37,147.37,0,0,0,671,438.63s-.43,14.56-31.79,41.75Z" transform="translate(-23.05 -18.97)"/><path class="cls-41" d="M631,427.36v5.12s16.27-1,19.38-2.05c0,0,3.11-6.14,6.22-8.19,0,0-16.27,4.1-25.6,1Z" transform="translate(-23.05 -18.97)"/><path class="cls-41" d="M650.49,431.61s10.23-7.32,18.42-7.32c0,0-8.3,1.75-23.09,10.6Z" transform="translate(-23.05 -18.97)"/><path class="cls-41" d="M627.65,446.53s9.51,2.34,9.51,8.48a13.31,13.31,0,0,0-4-11.25S630.43,446.24,627.65,446.53Z" transform="translate(-23.05 -18.97)"/><polyline class="cls-31" points="642.78 570.18 637.77 672.82 643.8 672.57 646.43 584.41"/><path class="cls-29" d="M671.17,430.82c-4.07,8.73-22.78,42-35.44,43.29-15.34,1.61-34.85-1.82-43.36-6-4.77-2.32,7.62-25.65,12.16-24.1,7.17,2.44,21.13,3.65,23.9,3.86s22.15-14.5,32.94-22.56C671.09,418.1,673.57,425.67,671.17,430.82Z" transform="translate(-23.05 -18.97)"/><path class="cls-31" d="M610.36,444.15l-10.44,28.9s27.25,5.73,38.18,1.63,25.34-25.6,32.21-38.13,3.24-23.1-14.35-9.11-26.09,19.37-27.32,19.62S610.36,444.15,610.36,444.15Z" transform="translate(-23.05 -18.97)"/><g class="cls-33"><path class="cls-31" d="M635.69,468c-1.1.5-1.93,1.13-3.19,1a14.83,14.83,0,0,0-3.64-.28,1.55,1.55,0,0,0-.81,2.53,7.38,7.38,0,0,0,9.94,0A2,2,0,0,0,635.69,468Z" transform="translate(-23.05 -18.97)"/><path class="cls-31" d="M641.12,458.67c-1.47.47-2.64,1.59-4.09,2.18a36.72,36.72,0,0,1-4.06,1.4c-1,.27-1.57,1.91-.45,2.45a7.86,7.86,0,0,0,5.72.75c1.77-.45,4.45-1.56,5.3-3.28S643.25,458,641.12,458.67Z" transform="translate(-23.05 -18.97)"/><path class="cls-31" d="M626.34,463.32a9.64,9.64,0,0,1-4.15-.77,2.24,2.24,0,1,0-1.91,4,8.08,8.08,0,0,0,6.83.19C628.8,466,628.11,463.37,626.34,463.32Z" transform="translate(-23.05 -18.97)"/></g><g class="cls-33"><path class="cls-31" d="M665.28,435.93a2.32,2.32,0,0,0,2.51-2c.33-2.31-1.95-4.38-3.7-5.59s-4.12-2.21-6.25-1.23a1.83,1.83,0,0,0-.38,3.1c1.1,1.09,2.55,1.82,3.72,2.87S663.43,435.84,665.28,435.93Z" transform="translate(-23.05 -18.97)"/><path class="cls-31" d="M670.25,436.65c-.65,1.19-1.37,2.46-2.14,3.78l0,0a.47.47,0,0,1,0-.09.81.81,0,0,1-.06-.08c-.17-.32-.33-.58-.47-.9a2.58,2.58,0,0,1-.09-1.91,1.94,1.94,0,0,1,2.6-.89Z" transform="translate(-23.05 -18.97)"/><path class="cls-31" d="M673.25,428.85a25.31,25.31,0,0,1-1.8,5.4c-.52-.79-1.06-1.58-1.64-2.32-1-1.3-3.27-3-3.33-4.73a1.17,1.17,0,0,1,.69-1.24C669.37,425.12,671.8,427.39,673.25,428.85Z" transform="translate(-23.05 -18.97)"/></g><path class="cls-31" d="M606.11,473.07a68.94,68.94,0,0,1,2.18-6.75q1.13-3.29,2.3-6.56c1.59-4.41,3.07-8.88,4.94-13.17a.08.08,0,0,1,.16.05c-1.15,4.58-2.78,9.05-4.34,13.5q-1.19,3.35-2.45,6.66a61.73,61.73,0,0,1-2.63,6.34C606.22,473.24,606.09,473.16,606.11,473.07Z" transform="translate(-23.05 -18.97)"/><path class="cls-31" d="M610.28,443.86c2.71.28,13.48,2.39,16.19,2.66a5.61,5.61,0,0,0,3.49-.72c1.17-.66,20.66-14.2,22.82-15.83.08-.06.2.07.11.14-2.26,1.61-17.39,13.08-19.72,14.7a26.3,26.3,0,0,1-3.24,2.09,5.14,5.14,0,0,1-3.41.38c-2.56-.5-12.55-2.4-16.06-3-.06,0-.57,1.28-.64,1.26l-.14,0A5.63,5.63,0,0,1,610.28,443.86Z" transform="translate(-23.05 -18.97)"/><path class="cls-41" d="M650.49,431.61s10.23-6.3,18.42-7.32c0,0-15.36,5.87-24.58,11.64Z" transform="translate(-23.05 -18.97)"/><path class="cls-42" d="M851.73,348.2c-2.16,2.33-4.57,5.11-6.8,7.78s-4.5,5.43-6.67,8.22c-4.36,5.57-8.59,11.27-12.54,17.12a229.51,229.51,0,0,0-20.67,36.54c-10.92,25.32-15.7,54.09-8.74,80.87a98.31,98.31,0,0,0,18.86,36.79c8.77,11,19.94,20.15,32,27.92a207.77,207.77,0,0,0,39,19,330.3,330.3,0,0,0,42,12.31,331.09,331.09,0,0,1-43-9.42,212.4,212.4,0,0,1-41.1-16.59c-13-7.17-25.49-15.94-35.81-27.18a108.85,108.85,0,0,1-23.63-39.25,122.62,122.62,0,0,1-5.85-45.86,162.19,162.19,0,0,1,3-22.94A186.5,186.5,0,0,1,788,411.2a248.14,248.14,0,0,1,19.65-41.27c3.8-6.56,7.88-12.92,12.11-19.19,2.11-3.14,4.29-6.23,6.53-9.3s4.43-6,7-9.26Z" transform="translate(-23.05 -18.97)"/><path class="cls-42" d="M814.79,418.81c-2.47,8.6-4.67,17.12-6.51,25.69-.85,4.29-1.73,8.56-2.33,12.87a128.16,128.16,0,0,0-1.43,12.9,100.49,100.49,0,0,0,1.18,25.65,72,72,0,0,0,3.57,12.36A73.81,73.81,0,0,0,815.35,520a46.36,46.36,0,0,1-8.75-10.33,55,55,0,0,1-5.51-12.57,76.16,76.16,0,0,1-2.65-27.21,114.18,114.18,0,0,1,5.26-26.57A107.38,107.38,0,0,1,814.79,418.81Z" transform="translate(-23.05 -18.97)"/><path class="cls-42" d="M815.25,347c-5.42,8.23-10.34,16.6-14.87,25.15a249.11,249.11,0,0,0-12.08,26.28c-1.94,4.41-3.33,9-5,13.54-1.37,4.61-2.92,9.18-4,13.88-2.63,9.32-4.08,18.88-5.86,28.61a113.91,113.91,0,0,1,1.21-29.6l.57-3.69c.19-1.23.56-2.42.83-3.63l1.76-7.25c1.53-4.73,2.93-9.52,4.84-14.11s4-9.13,6.15-13.58l3.59-6.52c1.25-2.15,2.59-4.24,3.92-6.33A114.37,114.37,0,0,1,815.25,347Z" transform="translate(-23.05 -18.97)"/><path class="cls-26" d="M821.8,506l1,1.45a10.37,10.37,0,0,0,4.5,3.68l1.62.69-1.45,1a10.31,10.31,0,0,0-3.68,4.5l-.69,1.62-1-1.46a10.25,10.25,0,0,0-4.5-3.68l-1.62-.69,1.46-1a10.37,10.37,0,0,0,3.68-4.5Z" transform="translate(-23.05 -18.97)"/><path class="cls-7" d="M842.08,400.14l1.83,2.66a18.88,18.88,0,0,0,8.23,6.74l3,1.26-2.66,1.82a19,19,0,0,0-6.74,8.24l-1.26,3-1.82-2.66a18.85,18.85,0,0,0-8.24-6.74l-3-1.26,2.67-1.82a19.1,19.1,0,0,0,6.74-8.24Z" transform="translate(-23.05 -18.97)"/><path class="cls-7" d="M866.4,436.93l2.46,3.59a25.53,25.53,0,0,0,11.1,9.09l4,1.69-3.59,2.46a25.53,25.53,0,0,0-9.09,11.1l-1.7,4-2.45-3.59a25.59,25.59,0,0,0-11.1-9.09l-4-1.7,3.59-2.45a25.59,25.59,0,0,0,9.09-11.1Z" transform="translate(-23.05 -18.97)"/><rect class="cls-7" x="252.8" y="501.25" width="104.64" height="83.22" transform="translate(-25.56 -17.55) rotate(-0.27)"/><rect class="cls-7" x="396.9" y="499.87" width="104.64" height="82.4" transform="translate(-28.22 -14.64) rotate(-0.55)"/><rect class="cls-9" x="252.67" y="598.14" width="104.94" height="6.32" transform="translate(-35.6 -12.44) rotate(-1.2)"/><rect class="cls-9" x="252.72" y="610.67" width="104.94" height="6.32" transform="translate(-35.86 -12.43) rotate(-1.2)"/><rect class="cls-9" x="397.6" y="595.27" width="104.94" height="6.32" transform="translate(-34.28 -10.36) rotate(-1.08)"/><rect class="cls-9" x="397.63" y="607.8" width="104.94" height="6.32" transform="translate(-34.51 -10.36) rotate(-1.08)"/><g class="cls-8"><polygon class="cls-5" points="227.84 427.66 268.42 369.81 312.46 427.66 227.84 427.66"/><polyline class="cls-5" points="332.32 427.66 284.81 427.66 307.6 395.18"/><circle class="cls-5" cx="298.33" cy="366.21" r="9.04"/></g><g class="cls-8"><polygon class="cls-5" points="373.02 426.73 413.6 368.88 457.64 426.73 373.02 426.73"/><polyline class="cls-5" points="477.5 426.73 429.99 426.73 452.77 394.25"/><circle class="cls-5" cx="443.51" cy="365.28" r="9.04"/></g><g class="cls-43"><polygon class="cls-5" points="230.04 566.36 269.98 508.07 314.65 565.43 230.04 566.36"/><polyline class="cls-5" points="334.51 565.22 287 565.74 309.43 533.01"/><circle class="cls-5" cx="299.85" cy="504.14" r="9.04"/></g><g class="cls-8"><polygon class="cls-5" points="373.84 563.51 414.42 505.65 458.46 563.51 373.84 563.51"/><polyline class="cls-5" points="478.32 563.51 430.81 563.51 453.6 531.03"/><circle class="cls-5" cx="444.33" cy="502.05" r="9.04"/></g><rect class="cls-7" x="508.42" y="344.42" width="104.64" height="82.4"/><g class="cls-8"><polygon class="cls-5" points="509.07 427.17 549.65 369.31 593.69 427.17 509.07 427.17"/><polyline class="cls-5" points="612.96 427.3 565.45 427.3 588.24 394.82"/><circle class="cls-5" cx="579.56" cy="365.71" r="9.04"/></g><path class="cls-29" d="M589.31,443.62c1.69-.06,1.67-.95-.77-2.72S575,434.22,577,430.48s17.66,3.42,21.49,6.67,8.89,9.85,8.89,9.85C604.07,446.21,595.84,445.08,589.31,443.62Z" transform="translate(-23.05 -18.97)"/><path class="cls-29" d="M599.42,470.63c-9.53-2.38-21.41-5.14-29-12.92a5.4,5.4,0,0,1-1.57-3.15c-3.44-3.43-2.86-6.09-2.86-6.09-2.23-4.17-1.26-6.81-1.26-6.81s-4-4.07-1.94-6.9c2.3-3.17,7.47,3.16,12.44,4.91,11.4,4,28.72,6.5,32.12,7.33Z" transform="translate(-23.05 -18.97)"/><path class="cls-29" d="M584.27,452.26a54.47,54.47,0,0,1-19.37-10.61c-.09-.08-.2.05-.12.14a41,41,0,0,0,19.44,10.62C584.38,452.45,584.44,452.32,584.27,452.26Z" transform="translate(-23.05 -18.97)"/><path class="cls-29" d="M582.86,459.49c-3.18-1.39-8.74-3.87-16.75-11.1,0,0-.08,0-.05,0a36.83,36.83,0,0,0,16.73,11.21C583,459.71,583.07,459.58,582.86,459.49Z" transform="translate(-23.05 -18.97)"/><path class="cls-29" d="M582,463.36c-5.3-2.57-8.33-4.86-13.09-8.8,0,0-.07,0,0,0,5,5,7.32,6.32,13.08,9C582.16,463.65,582.23,463.46,582,463.36Z" transform="translate(-23.05 -18.97)"/><path class="cls-36" d="M563.9,440.62s7.73,7.22,18,7.22c0,0-8,1.38-17.3-4.94" transform="translate(-23.05 -18.97)"/><path class="cls-36" d="M565.77,448s5.86,6,14.06,4c0,0-5.09,4.1-13.81-2.56" transform="translate(-23.05 -18.97)"/><path class="cls-36" d="M568.38,454s3.25,5.08,11.45,3C579.83,457.06,572.3,461.22,568.38,454Z" transform="translate(-23.05 -18.97)"/><path class="cls-29" d="M637.37,383.17c.78-4.42,4.12-10.57,3.62-13.87a3.84,3.84,0,0,0-3.12-3.34s2.75-2.47,1.8-5.39c-.48-1.5-3.31-2.05-3.31-2.05s2.12-2.07,1.12-4.62c-.8-2-3.51-2.27-3.51-2.27s1.1-2.94-.37-4.74c-3-3.67-21,1.3-22,8.71-.45,3.46,3.89,2,3.89,2s-5.74,3.6-4.81,7.35,6.46,1.51,6.46,1.51-5.53,3.54-4.18,7.32c1.41,4,6.56.77,6.56.77s-3.27,3.83-1.57,6.49c2.81,4.39,8.75-3.74,13-3.89l4,5.93Z" transform="translate(-23.05 -18.97)"/><path class="cls-29" d="M639.42,376.49c-.37,4.25,5.72,7.7,5.94,11.82.31,5.57-7,2.05-10.44-5.23L633.26,377Z" transform="translate(-23.05 -18.97)"/><path class="cls-29" d="M633.56,351.42c.07,0,.06-.1,0-.1a32.43,32.43,0,0,0-18.28,6.22c-.17.13,0,.45.17.35A66.3,66.3,0,0,1,633.56,351.42Z" transform="translate(-23.05 -18.97)"/><path class="cls-29" d="M636.44,358.46c.07,0,0-.13,0-.13-6.53.23-14.23,2.86-19.52,8-.18.18-.17.52.06.33C620.72,363.52,630.49,359.56,636.44,358.46Z" transform="translate(-23.05 -18.97)"/><path class="cls-29" d="M619.26,375.05c5.26-4.76,11.53-7.35,18.34-9.09.09,0,0-.15,0-.15-3.57-.06-7.8,1.5-11,3a18.78,18.78,0,0,0-7.5,6.05C619,375,619.15,375.15,619.26,375.05Z" transform="translate(-23.05 -18.97)"/><path class="cls-36" d="M635.06,351.87s-8.13.75-12.23,3.82c0,0,2.3-3.83,11.39-5" transform="translate(-23.05 -18.97)"/><path class="cls-36" d="M637.5,358.85s-8.53,2-11.6,5a22.41,22.41,0,0,1,11-6" transform="translate(-23.05 -18.97)"/><path class="cls-36" d="M638.92,366.32s-5.85.63-9.95,3.7c0,0,2.86-3.6,9.62-4.87" transform="translate(-23.05 -18.97)"/><path class="cls-36" d="M640.06,374.61s-6,3.6-9,2.58l.51.85s4.82,1.37,7.79-.76Z" transform="translate(-23.05 -18.97)"/></g></g></svg>