<svg id="Layer_1" data-name="Layer 1" xmlns="http://www.w3.org/2000/svg" viewBox="0 0 84.45 89.22"><defs><style>.cls-1{fill:#fff;}</style></defs><title>shop</title><path class="cls-1" d="M79.47,28.5h-45a5.93,5.93,0,0,0-5.92,5.92V64H31V34.42a3.55,3.55,0,0,1,3.55-3.55h45A3.55,3.55,0,0,1,83,34.42V72.28a3.55,3.55,0,0,1-3.55,3.55H49.88V78.2H79.47a5.92,5.92,0,0,0,5.91-5.92V34.42A5.92,5.92,0,0,0,79.47,28.5Z" transform="translate(-8.78 -10.28)"/><rect class="cls-1" x="24.54" y="22.95" width="2.37" height="2.37"/><rect class="cls-1" x="29.27" y="22.95" width="2.37" height="2.37"/><rect class="cls-1" x="34.01" y="22.95" width="2.37" height="2.37"/><rect class="cls-1" x="24.54" y="27.69" width="47.33" height="2.37"/><path class="cls-1" d="M33.32,55.72A1.18,1.18,0,0,0,34.5,56.9H46.33a1.18,1.18,0,0,0,1.19-1.18V43.88a1.18,1.18,0,0,0-1.19-1.18H34.5a1.18,1.18,0,0,0-1.18,1.18Zm2.36-10.65h9.47v9.46H35.68Z" transform="translate(-8.78 -10.28)"/><path class="cls-1" d="M64.08,43.88A1.18,1.18,0,0,0,62.9,42.7H51.07a1.18,1.18,0,0,0-1.19,1.18V55.72a1.18,1.18,0,0,0,1.19,1.18H62.9a1.18,1.18,0,0,0,1.18-1.18ZM61.72,54.53H52.25V45.07h9.47Z" transform="translate(-8.78 -10.28)"/><path class="cls-1" d="M80.65,43.88a1.18,1.18,0,0,0-1.18-1.18H67.63a1.18,1.18,0,0,0-1.18,1.18V55.72a1.18,1.18,0,0,0,1.18,1.18H79.47a1.18,1.18,0,0,0,1.18-1.18ZM78.28,54.53H68.82V45.07h9.46Z" transform="translate(-8.78 -10.28)"/><path class="cls-1" d="M33.32,64h2.36V61.63H47.52V60.45a1.18,1.18,0,0,0-1.19-1.18H34.5a1.18,1.18,0,0,0-1.18,1.18Z" transform="translate(-8.78 -10.28)"/><path class="cls-1" d="M62.9,59.27H61.72V71.1H52.25v2.37H62.9a1.18,1.18,0,0,0,1.18-1.19V60.45A1.18,1.18,0,0,0,62.9,59.27Z" transform="translate(-8.78 -10.28)"/><path class="cls-1" d="M79.47,59.27H67.63a1.18,1.18,0,0,0-1.18,1.18V72.28a1.18,1.18,0,0,0,1.18,1.19H79.47a1.18,1.18,0,0,0,1.18-1.19V60.45A1.18,1.18,0,0,0,79.47,59.27ZM78.28,71.1H68.82V61.63h9.46Z" transform="translate(-8.78 -10.28)"/><path class="cls-1" d="M14.64,66.81a1.2,1.2,0,0,0-.23,1l4.73,21.3A1.17,1.17,0,0,0,20.3,90h26a1.19,1.19,0,1,1,0,2.37H19.12A3.55,3.55,0,1,0,22.67,96a3.68,3.68,0,0,0-.22-1.18h17A3.68,3.68,0,0,0,39.23,96a3.55,3.55,0,1,0,7.1,0,3.41,3.41,0,0,0-.21-1.18h.21a3.55,3.55,0,1,0,0-7.1h-.89L49.82,68l2-4h.67a3.55,3.55,0,1,0,0-2.37h-1.4a1.19,1.19,0,0,0-1.07.66l-2,4.08H15.57A1.2,1.2,0,0,0,14.64,66.81Zm4.48,30.32A1.18,1.18,0,1,1,20.3,96,1.18,1.18,0,0,1,19.12,97.13Zm23.66,0A1.18,1.18,0,1,1,44,96,1.18,1.18,0,0,1,42.78,97.13Zm13-35.5a1.19,1.19,0,1,1-1.18,1.19A1.18,1.18,0,0,1,55.8,61.63ZM31,87.67h-4.8l-.26-4.74H31Zm0-7.1H25.76l-.27-4.74H31ZM41.54,68.73h5.68l-1,4.74h-4.9Zm-.4,7.1h4.51l-1.06,4.74H40.88Zm-.39,7.1h3.32l-1,4.74H40.48Zm-7.43-14.2h5.85l-.27,4.74H33.32Zm0,7.1h5.45l-.26,4.74H33.32Zm0,7.1h5.06l-.27,4.74H33.32ZM31,68.73v4.74H25.36l-.26-4.74ZM23.78,87.67H21.25l-1.06-4.74h3.33Zm-.39-7.1H19.67l-1.05-4.74h4.51Zm-.66-11.84L23,73.47h-4.9L17,68.73Z" transform="translate(-8.78 -10.28)"/><circle class="cls-1" cx="4.89" cy="13.33" r="4.89"/><circle class="cls-1" cx="28.92" cy="7.69" r="2.81"/><circle class="cls-1" cx="57.78" cy="6.67" r="6.67"/><circle class="cls-1" cx="81.93" cy="13.02" r="2.52"/></svg>