<svg id="Layer_1" data-name="Layer 1" xmlns="http://www.w3.org/2000/svg" viewBox="0 0 102 105.08"><title>webdesignicon</title><path d="M14.34,130.29H110a3.19,3.19,0,0,0,2-5.65l-9.66-8a2.65,2.65,0,0,0-.39-.26,2.5,2.5,0,0,0,0-.47v-4.67a24.1,24.1,0,0,1-3.19,1.22v3.45H25.5V76.1h3.19v35.06a1.6,1.6,0,1,0,3.19,0V63.35H92.44v.82a24.41,24.41,0,0,1,3.19.3V52.19a4.8,4.8,0,0,0-4.79-4.78H33.47a4.79,4.79,0,0,0-4.78,4.78V72.91H25.5a3.19,3.19,0,0,0-3.19,3.19v39.84a3.75,3.75,0,0,0,.05.47,3.3,3.3,0,0,0-.39.26l-9.65,8a3.19,3.19,0,0,0,2,5.65Zm17.54-78.1a1.59,1.59,0,0,1,1.59-1.59H90.84a1.6,1.6,0,0,1,1.6,1.59v8H31.88ZM24,119.13h76.31l9.66,8H14.34Z" transform="translate(-11.16 -25.21)"/><path d="M87.66,53.79H84.47a1.6,1.6,0,0,0,0,3.19h3.19a1.6,1.6,0,0,0,0-3.19Z" transform="translate(-11.16 -25.21)"/><path d="M78.09,53.79H74.91a1.6,1.6,0,1,0,0,3.19h3.18a1.6,1.6,0,1,0,0-3.19Z" transform="translate(-11.16 -25.21)"/><path d="M36.66,69.73h9.56a1.6,1.6,0,0,0,0-3.19H36.66a1.6,1.6,0,1,0,0,3.19Z" transform="translate(-11.16 -25.21)"/><path d="M36.66,76.1H65.34a1.6,1.6,0,1,0,0-3.19H36.66a1.6,1.6,0,1,0,0,3.19Z" transform="translate(-11.16 -25.21)"/><path d="M36.66,82.48H49.41a1.6,1.6,0,0,0,0-3.19H36.66a1.6,1.6,0,1,0,0,3.19Z" transform="translate(-11.16 -25.21)"/><path d="M36.66,88.85H65.34a1.6,1.6,0,1,0,0-3.19H36.66a1.6,1.6,0,1,0,0,3.19Z" transform="translate(-11.16 -25.21)"/><path d="M36.66,101.6H57.38a1.6,1.6,0,0,0,0-3.19H36.66a1.6,1.6,0,1,0,0,3.19Z" transform="translate(-11.16 -25.21)"/><path d="M36.66,108H73.31a1.6,1.6,0,1,0,0-3.19H36.66a1.6,1.6,0,1,0,0,3.19Z" transform="translate(-11.16 -25.21)"/><path d="M36.66,92a1.6,1.6,0,1,0,0,3.19H67.78A25,25,0,0,1,67.15,92Z" transform="translate(-11.16 -25.21)"/><path d="M91.64,67.33a21.52,21.52,0,1,0,21.52,21.52A21.52,21.52,0,0,0,91.64,67.33Zm0,39.85A18.33,18.33,0,1,1,110,88.85,18.33,18.33,0,0,1,91.64,107.18Z" transform="translate(-11.16 -25.21)"/><path d="M99.94,84.54a1.59,1.59,0,0,0-2.25,2.25l2.06,2.06-2.06,2.06a1.59,1.59,0,0,0,2.25,2.25L103.13,90a1.61,1.61,0,0,0,0-2.26h0Z" transform="translate(-11.16 -25.21)"/><path d="M85.6,84.54a1.59,1.59,0,0,0-2.26,0h0l-3.19,3.18a1.61,1.61,0,0,0,0,2.26h0l3.19,3.18a1.59,1.59,0,1,0,2.26-2.25l-2.06-2.06,2.06-2.06a1.59,1.59,0,0,0,0-2.25Z" transform="translate(-11.16 -25.21)"/><path d="M93.74,82.56a1.59,1.59,0,0,0-2,1l-3.19,9.56a1.6,1.6,0,0,0,3,1l3.19-9.57A1.6,1.6,0,0,0,93.74,82.56Z" transform="translate(-11.16 -25.21)"/><circle cx="13.66" cy="13.33" r="4.89"/><circle cx="37.69" cy="7.69" r="2.81"/><circle cx="66.55" cy="6.67" r="6.67"/><circle cx="90.7" cy="13.02" r="2.52"/></svg>