<svg id="Layer_1" data-name="Layer 1" xmlns="http://www.w3.org/2000/svg" viewBox="0 0 102 105.11"><defs><style>.cls-1{fill:#fff;}</style></defs><title>webicon</title><path class="cls-1" d="M3.18,105.08H98.84a3.19,3.19,0,0,0,2-5.65l-9.66-8a2,2,0,0,0-.39-.26,3.69,3.69,0,0,0,0-.47V86a24.1,24.1,0,0,1-3.19,1.22V90.7H14.34V50.89h3.19V86a1.6,1.6,0,0,0,3.19.25,1,1,0,0,0,0-.25V38.14H81.28V39a24.41,24.41,0,0,1,3.19.3V27a4.8,4.8,0,0,0-4.79-4.78H22.31A4.79,4.79,0,0,0,17.53,27V47.7H14.34a3.19,3.19,0,0,0-3.19,3.19h0V90.73a3.75,3.75,0,0,0,0,.47,2.65,2.65,0,0,0-.39.26l-9.65,8a3.19,3.19,0,0,0,2,5.65ZM20.72,27a1.59,1.59,0,0,1,1.59-1.59H79.68A1.6,1.6,0,0,1,81.28,27v8H20.72ZM12.84,93.92H89.15l9.66,8H3.18Z" transform="translate(0)"/><path class="cls-1" d="M76.5,28.58H73.31a1.6,1.6,0,0,0,0,3.19H76.5a1.6,1.6,0,0,0,0-3.19Z" transform="translate(0)"/><path class="cls-1" d="M66.93,28.58H63.75a1.6,1.6,0,1,0-.25,3.19,1,1,0,0,0,.25,0h3.18a1.6,1.6,0,0,0,.25-3.19Z" transform="translate(0)"/><path class="cls-1" d="M25.5,44.52h9.56a1.6,1.6,0,0,0,0-3.19H25.5a1.6,1.6,0,1,0-.25,3.19Z" transform="translate(0)"/><path class="cls-1" d="M25.5,50.89H54.18a1.6,1.6,0,0,0,.25-3.19,1,1,0,0,0-.25,0H25.5a1.6,1.6,0,1,0-.25,3.19Z" transform="translate(0)"/><path class="cls-1" d="M25.5,57.27H38.25a1.6,1.6,0,0,0,0-3.19H25.5a1.6,1.6,0,0,0-.25,3.19Z" transform="translate(0)"/><path class="cls-1" d="M25.5,63.64H54.18a1.6,1.6,0,0,0,.25-3.19,1,1,0,0,0-.25,0H25.5a1.6,1.6,0,1,0-.25,3.19Z" transform="translate(0)"/><path class="cls-1" d="M25.5,76.39H46.22a1.6,1.6,0,0,0,0-3.19H25.5a1.6,1.6,0,1,0-.25,3.19A1,1,0,0,0,25.5,76.39Z" transform="translate(0)"/><path class="cls-1" d="M25.5,82.79H62.15a1.6,1.6,0,0,0,.25-3.19H25.5a1.6,1.6,0,0,0-.25,3.19Z" transform="translate(0)"/><path class="cls-1" d="M25.5,66.79A1.6,1.6,0,1,0,25.25,70H56.62A24.65,24.65,0,0,1,56,66.79Z" transform="translate(0)"/><path class="cls-1" d="M80.48,42.12A21.52,21.52,0,1,0,102,63.64,21.51,21.51,0,0,0,80.48,42.12Zm0,39.85A18.33,18.33,0,1,1,98.84,63.64,18.33,18.33,0,0,1,80.48,82Z" transform="translate(0)"/><path class="cls-1" d="M88.78,59.33a1.59,1.59,0,0,0-2.25,2.25l2.06,2.06L86.53,65.7A1.59,1.59,0,0,0,88.78,68L92,64.79a1.61,1.61,0,0,0,0-2.26h0Z" transform="translate(0)"/><path class="cls-1" d="M74.44,59.33a1.59,1.59,0,0,0-2.25,0h0L69,62.51a1.61,1.61,0,0,0,0,2.26h0L72.18,68a1.59,1.59,0,1,0,2.26-2.25l-2.06-2.06,2.06-2.06a1.59,1.59,0,0,0,0-2.25Z" transform="translate(0)"/><path class="cls-1" d="M82.58,57.35a1.59,1.59,0,0,0-2,1l-3.19,9.56a1.6,1.6,0,0,0,3,1l3.19-9.57A1.6,1.6,0,0,0,82.58,57.35Z" transform="translate(0)"/><circle class="cls-1" cx="13.66" cy="13.33" r="4.89"/><circle class="cls-1" cx="37.69" cy="7.69" r="2.81"/><circle class="cls-1" cx="66.55" cy="6.67" r="6.67"/><circle class="cls-1" cx="90.7" cy="13.02" r="2.52"/></svg>